<?xml version="1.0" encoding="utf-8" standalone="no"?>
<!DOCTYPE svg PUBLIC "-//W3C//DTD SVG 1.1//EN"
  "http://www.w3.org/Graphics/SVG/1.1/DTD/svg11.dtd">
<!-- Created with matplotlib (http://matplotlib.org/) -->
<svg height="701.28pt" version="1.1" viewBox="0 0 920.16 701.28" width="920.16pt" xmlns="http://www.w3.org/2000/svg" xmlns:xlink="http://www.w3.org/1999/xlink">
 <defs>
  <style type="text/css">
*{stroke-linecap:butt;stroke-linejoin:round;}
  </style>
 </defs>
 <g id="figure_1">
  <g id="patch_1">
   <path d="M 0 701.28 
L 920.16 701.28 
L 920.16 0 
L 0 0 
z
" style="fill:#ffffff;"/>
  </g>
  <g id="axes_1">
   <g id="patch_2">
    <path d="M 115.02 624.1392 
L 828.144 624.1392 
L 828.144 84.1536 
L 115.02 84.1536 
z
" style="fill:#ffffff;"/>
   </g>
   <g id="PolyCollection_1">
    <path clip-path="url(#pb2f216f637)" d="M 118.762492 303.922223 
L 118.762492 1046.026602 
L 197.249637 1046.026602 
L 275.736782 1046.026602 
L 354.223927 1046.026602 
L 432.711072 1046.026602 
L 511.198217 1046.026602 
L 589.685362 1046.026602 
L 668.172507 1046.026602 
L 746.659652 1046.026602 
L 825.146797 1046.026602 
L 825.146797 327.714887 
L 825.146797 327.714887 
L 746.659652 361.227319 
L 668.172507 379.565854 
L 589.685362 360.06648 
L 511.198217 347.829785 
L 432.711072 352.36598 
L 354.223927 368.751777 
L 275.736782 328.327266 
L 197.249637 289.910038 
L 118.762492 303.922223 
z
" style="fill:#7bc8f6;"/>
   </g>
   <g id="PolyCollection_2">
    <path clip-path="url(#pb2f216f637)" d="M 118.762492 6.420902 
L 118.762492 303.922223 
L 197.249637 289.910038 
L 275.736782 328.327266 
L 354.223927 368.751777 
L 432.711072 352.36598 
L 511.198217 347.829785 
L 589.685362 360.06648 
L 668.172507 379.565854 
L 746.659652 361.227319 
L 825.146797 327.714887 
L 825.146797 6.420902 
L 825.146797 6.420902 
L 746.659652 6.420902 
L 668.172507 6.420902 
L 589.685362 6.420902 
L 511.198217 6.420902 
L 432.711072 6.420902 
L 354.223927 6.420902 
L 275.736782 6.420902 
L 197.249637 6.420902 
L 118.762492 6.420902 
z
" style="fill:#ff796c;"/>
   </g>
   <g id="matplotlib.axis_1">
    <g id="xtick_1">
     <g id="line2d_1">
      <defs>
       <path d="M 0 0 
L 0 3.5 
" id="me9641127bf" style="stroke:#000000;stroke-width:0.8;"/>
      </defs>
      <g>
       <use style="stroke:#000000;stroke-width:0.8;" x="118.762492" xlink:href="#me9641127bf" y="624.1392"/>
      </g>
     </g>
     <g id="text_1">
      <!-- 3 -->
      <defs>
       <path d="M 6.390625 2.59375 
L 6.390625 11.234375 
Q 13.578125 5.5625 22.609375 5.5625 
Q 29.9375 5.5625 34.296875 9.21875 
Q 38.671875 12.890625 38.671875 19.09375 
Q 38.671875 32.8125 19.1875 32.8125 
L 13.375 32.8125 
L 13.375 39.59375 
L 18.890625 39.59375 
Q 36.234375 39.59375 36.234375 52.484375 
Q 36.234375 64.40625 23 64.40625 
Q 15.625 64.40625 9.078125 59.375 
L 9.078125 67.1875 
Q 15.828125 71.1875 25 71.1875 
Q 33.84375 71.1875 39.140625 66.5 
Q 44.4375 61.8125 44.4375 54.5 
Q 44.4375 40.671875 30.375 36.71875 
L 30.375 36.53125 
Q 37.9375 35.796875 42.40625 31.21875 
Q 46.875 26.65625 46.875 19.828125 
Q 46.875 10.40625 40.109375 4.609375 
Q 33.34375 -1.171875 22.265625 -1.171875 
Q 12.3125 -1.171875 6.390625 2.59375 
z
" id="SegoeUIEmoji-33"/>
      </defs>
      <g transform="translate(114.449992 642.9842)scale(0.16 -0.16)">
       <use xlink:href="#SegoeUIEmoji-33"/>
      </g>
     </g>
    </g>
    <g id="xtick_2">
     <g id="line2d_2">
      <g>
       <use style="stroke:#000000;stroke-width:0.8;" x="197.249637" xlink:href="#me9641127bf" y="624.1392"/>
      </g>
     </g>
     <g id="text_2">
      <!-- 4 -->
      <defs>
       <path d="M 41.5 70.015625 
L 41.5 23.78125 
L 50.484375 23.78125 
L 50.484375 16.453125 
L 41.5 16.453125 
L 41.5 0 
L 33.59375 0 
L 33.59375 16.453125 
L 0.6875 16.453125 
L 0.6875 23.390625 
Q 5.28125 28.5625 9.96875 34.4375 
Q 14.65625 40.328125 18.921875 46.375 
Q 23.1875 52.4375 26.828125 58.46875 
Q 30.46875 64.5 32.953125 70.015625 
z
M 9.71875 23.78125 
L 33.59375 23.78125 
L 33.59375 58.0625 
Q 29.9375 51.65625 26.65625 46.625 
Q 23.390625 41.609375 20.4375 37.5 
Q 17.484375 33.40625 14.796875 30.078125 
Q 12.109375 26.765625 9.71875 23.78125 
z
" id="SegoeUIEmoji-34"/>
      </defs>
      <g transform="translate(192.937137 642.9842)scale(0.16 -0.16)">
       <use xlink:href="#SegoeUIEmoji-34"/>
      </g>
     </g>
    </g>
    <g id="xtick_3">
     <g id="line2d_3">
      <g>
       <use style="stroke:#000000;stroke-width:0.8;" x="275.736782" xlink:href="#me9641127bf" y="624.1392"/>
      </g>
     </g>
     <g id="text_3">
      <!-- 5 -->
      <defs>
       <path d="M 8.015625 1.703125 
L 8.015625 10.203125 
Q 15.1875 5.5625 22.609375 5.5625 
Q 30.03125 5.5625 34.5625 9.765625 
Q 39.109375 13.96875 39.109375 20.90625 
Q 39.109375 27.78125 34.46875 31.640625 
Q 29.828125 35.5 21.1875 35.5 
Q 18.265625 35.5 10.203125 34.90625 
L 10.203125 70.015625 
L 44.09375 70.015625 
L 44.09375 62.796875 
L 17.78125 62.796875 
L 17.78125 42.28125 
Q 21 42.484375 23.734375 42.484375 
Q 34.96875 42.484375 41.109375 36.84375 
Q 47.265625 31.203125 47.265625 21.390625 
Q 47.265625 11.234375 40.640625 5.03125 
Q 34.03125 -1.171875 22.515625 -1.171875 
Q 12.796875 -1.171875 8.015625 1.703125 
z
" id="SegoeUIEmoji-35"/>
      </defs>
      <g transform="translate(271.424282 642.9842)scale(0.16 -0.16)">
       <use xlink:href="#SegoeUIEmoji-35"/>
      </g>
     </g>
    </g>
    <g id="xtick_4">
     <g id="line2d_4">
      <g>
       <use style="stroke:#000000;stroke-width:0.8;" x="354.223927" xlink:href="#me9641127bf" y="624.1392"/>
      </g>
     </g>
     <g id="text_4">
      <!-- 6 -->
      <defs>
       <path d="M 45.609375 69.1875 
L 45.609375 61.625 
Q 40.1875 64.40625 34.1875 64.40625 
Q 24.859375 64.40625 19.265625 56.09375 
Q 13.671875 47.796875 13.671875 33.890625 
L 13.875 33.890625 
Q 18.75 43.796875 29.890625 43.796875 
Q 39.0625 43.796875 44.484375 37.90625 
Q 49.90625 32.03125 49.90625 22.171875 
Q 49.90625 11.859375 43.703125 5.34375 
Q 37.5 -1.171875 27.9375 -1.171875 
Q 17.390625 -1.171875 11.375 7.21875 
Q 5.375 15.625 5.375 30.8125 
Q 5.375 49.21875 13.234375 60.203125 
Q 21.09375 71.1875 33.984375 71.1875 
Q 41.3125 71.1875 45.609375 69.1875 
z
M 28.125 37.015625 
Q 21.921875 37.015625 18.0625 32.8125 
Q 14.203125 28.609375 14.203125 22.90625 
Q 14.203125 15.71875 18.03125 10.640625 
Q 21.875 5.5625 28.21875 5.5625 
Q 34.28125 5.5625 37.984375 9.984375 
Q 41.703125 14.40625 41.703125 21.1875 
Q 41.703125 28.609375 38.140625 32.8125 
Q 34.578125 37.015625 28.125 37.015625 
z
" id="SegoeUIEmoji-36"/>
      </defs>
      <g transform="translate(349.911427 642.9842)scale(0.16 -0.16)">
       <use xlink:href="#SegoeUIEmoji-36"/>
      </g>
     </g>
    </g>
    <g id="xtick_5">
     <g id="line2d_5">
      <g>
       <use style="stroke:#000000;stroke-width:0.8;" x="432.711072" xlink:href="#me9641127bf" y="624.1392"/>
      </g>
     </g>
     <g id="text_5">
      <!-- 7 -->
      <defs>
       <path d="M 49.3125 67.484375 
L 21.578125 0 
L 13.28125 0 
L 39.5 62.796875 
L 4.203125 62.796875 
L 4.203125 70.015625 
L 49.3125 70.015625 
z
" id="SegoeUIEmoji-37"/>
      </defs>
      <g transform="translate(428.398572 642.9842)scale(0.16 -0.16)">
       <use xlink:href="#SegoeUIEmoji-37"/>
      </g>
     </g>
    </g>
    <g id="xtick_6">
     <g id="line2d_6">
      <g>
       <use style="stroke:#000000;stroke-width:0.8;" x="511.198217" xlink:href="#me9641127bf" y="624.1392"/>
      </g>
     </g>
     <g id="text_6">
      <!-- 8 -->
      <defs>
       <path d="M 20.015625 36.71875 
L 20.015625 36.921875 
Q 7.421875 42.78125 7.421875 53.90625 
Q 7.421875 61.46875 13.1875 66.328125 
Q 18.953125 71.1875 28.03125 71.1875 
Q 36.234375 71.1875 41.5 66.640625 
Q 46.78125 62.109375 46.78125 54.984375 
Q 46.78125 43.359375 33.796875 36.921875 
L 33.796875 36.71875 
Q 49.125 31.25 49.125 17.78125 
Q 49.125 9.078125 42.875 3.953125 
Q 36.625 -1.171875 25.484375 -1.171875 
Q 16.5 -1.171875 10.6875 3.90625 
Q 4.890625 8.984375 4.890625 17.09375 
Q 4.890625 30.5625 20.015625 36.71875 
z
M 38.578125 54 
Q 38.578125 58.84375 35.546875 61.625 
Q 32.515625 64.40625 27.296875 64.40625 
Q 22.40625 64.40625 19.015625 61.5 
Q 15.625 58.59375 15.625 54.109375 
Q 15.625 44.96875 27 40.328125 
Q 38.578125 45.125 38.578125 54 
z
M 26.46875 32.90625 
Q 13.09375 27.59375 13.09375 17.484375 
Q 13.09375 12.25 16.96875 8.90625 
Q 20.84375 5.5625 27.203125 5.5625 
Q 33.25 5.5625 37.078125 8.859375 
Q 40.921875 12.15625 40.921875 17.1875 
Q 40.921875 27.734375 26.46875 32.90625 
z
" id="SegoeUIEmoji-38"/>
      </defs>
      <g transform="translate(506.885717 642.9842)scale(0.16 -0.16)">
       <use xlink:href="#SegoeUIEmoji-38"/>
      </g>
     </g>
    </g>
    <g id="xtick_7">
     <g id="line2d_7">
      <g>
       <use style="stroke:#000000;stroke-width:0.8;" x="589.685362" xlink:href="#me9641127bf" y="624.1392"/>
      </g>
     </g>
     <g id="text_7">
      <!-- 9 -->
      <defs>
       <path d="M 8.40625 1.171875 
L 8.40625 8.890625 
Q 14.265625 5.5625 20.796875 5.5625 
Q 30.328125 5.5625 35.625 13.234375 
Q 40.921875 20.90625 40.921875 35.015625 
Q 40.828125 34.96875 40.71875 35.015625 
Q 36.234375 25.984375 25.09375 25.984375 
Q 16.109375 25.984375 10.34375 32.078125 
Q 4.59375 38.1875 4.59375 47.796875 
Q 4.59375 58.0625 10.90625 64.625 
Q 17.234375 71.1875 27.09375 71.1875 
Q 37.453125 71.1875 43.234375 63 
Q 49.03125 54.828125 49.03125 39.203125 
Q 49.03125 19.828125 41.5 9.328125 
Q 33.984375 -1.171875 20.609375 -1.171875 
Q 13.578125 -1.171875 8.40625 1.171875 
z
M 26.375 64.40625 
Q 20.5625 64.40625 16.671875 60.03125 
Q 12.796875 55.671875 12.796875 48.921875 
Q 12.796875 41.546875 16.59375 37.328125 
Q 20.40625 33.109375 26.90625 33.109375 
Q 32.5625 33.109375 36.5 36.96875 
Q 40.4375 40.828125 40.4375 46.390625 
Q 40.4375 54.34375 36.53125 59.375 
Q 32.625 64.40625 26.375 64.40625 
z
" id="SegoeUIEmoji-39"/>
      </defs>
      <g transform="translate(585.372862 642.9842)scale(0.16 -0.16)">
       <use xlink:href="#SegoeUIEmoji-39"/>
      </g>
     </g>
    </g>
    <g id="xtick_8">
     <g id="line2d_8">
      <g>
       <use style="stroke:#000000;stroke-width:0.8;" x="668.172507" xlink:href="#me9641127bf" y="624.1392"/>
      </g>
     </g>
     <g id="text_8">
      <!-- 10 -->
      <defs>
       <path d="M 35.359375 0 
L 27.34375 0 
L 27.34375 60.5 
Q 26.421875 59.578125 24.640625 58.375 
Q 22.859375 57.171875 20.625 56 
Q 18.40625 54.828125 15.9375 53.796875 
Q 13.484375 52.78125 11.140625 52.203125 
L 11.140625 60.296875 
Q 13.765625 61.03125 16.71875 62.28125 
Q 19.671875 63.53125 22.53125 65.0625 
Q 25.390625 66.609375 27.921875 68.28125 
Q 30.46875 69.96875 32.328125 71.578125 
L 35.359375 71.578125 
z
" id="SegoeUIEmoji-31"/>
       <path d="M 26.265625 -1.171875 
Q 15.875 -1.171875 10.03125 7.765625 
Q 4.203125 16.703125 4.203125 33.59375 
Q 4.203125 52.15625 10.28125 61.671875 
Q 16.359375 71.1875 27.828125 71.1875 
Q 49.8125 71.1875 49.8125 35.296875 
Q 49.8125 17.53125 43.609375 8.171875 
Q 37.40625 -1.171875 26.265625 -1.171875 
z
M 27.390625 64.40625 
Q 12.40625 64.40625 12.40625 33.984375 
Q 12.40625 5.5625 27.09375 5.5625 
Q 41.609375 5.5625 41.609375 34.46875 
Q 41.609375 64.40625 27.390625 64.40625 
z
" id="SegoeUIEmoji-30"/>
      </defs>
      <g transform="translate(659.547507 642.9842)scale(0.16 -0.16)">
       <use xlink:href="#SegoeUIEmoji-31"/>
       <use x="53.90625" xlink:href="#SegoeUIEmoji-30"/>
      </g>
     </g>
    </g>
    <g id="xtick_9">
     <g id="line2d_9">
      <g>
       <use style="stroke:#000000;stroke-width:0.8;" x="746.659652" xlink:href="#me9641127bf" y="624.1392"/>
      </g>
     </g>
     <g id="text_9">
      <!-- 11 -->
      <g transform="translate(738.034652 642.9842)scale(0.16 -0.16)">
       <use xlink:href="#SegoeUIEmoji-31"/>
       <use x="53.90625" xlink:href="#SegoeUIEmoji-31"/>
      </g>
     </g>
    </g>
    <g id="xtick_10">
     <g id="line2d_10">
      <g>
       <use style="stroke:#000000;stroke-width:0.8;" x="825.146797" xlink:href="#me9641127bf" y="624.1392"/>
      </g>
     </g>
     <g id="text_10">
      <!-- 12 -->
      <defs>
       <path d="M 37.703125 51.65625 
Q 37.703125 54.890625 36.6875 57.28125 
Q 35.6875 59.671875 33.953125 61.25 
Q 32.234375 62.84375 29.890625 63.625 
Q 27.546875 64.40625 24.8125 64.40625 
Q 22.46875 64.40625 20.21875 63.765625 
Q 17.96875 63.140625 15.84375 62.015625 
Q 13.71875 60.890625 11.734375 59.328125 
Q 9.765625 57.765625 8.0625 55.859375 
L 8.0625 64.453125 
Q 11.421875 67.71875 15.59375 69.453125 
Q 19.78125 71.1875 25.78125 71.1875 
Q 30.078125 71.1875 33.734375 69.9375 
Q 37.40625 68.703125 40.09375 66.3125 
Q 42.78125 63.921875 44.3125 60.40625 
Q 45.84375 56.890625 45.84375 52.34375 
Q 45.84375 48.1875 44.890625 44.8125 
Q 43.953125 41.453125 42.015625 38.46875 
Q 40.09375 35.5 37.15625 32.765625 
Q 34.234375 30.03125 30.28125 27.203125 
Q 25.34375 23.6875 22.140625 21.1875 
Q 18.953125 18.703125 17.0625 16.53125 
Q 15.1875 14.359375 14.421875 12.1875 
Q 13.671875 10.015625 13.671875 7.171875 
L 48.53125 7.171875 
L 48.53125 0 
L 5.328125 0 
L 5.328125 3.46875 
Q 5.328125 7.953125 6.296875 11.375 
Q 7.28125 14.796875 9.515625 17.875 
Q 11.765625 20.953125 15.40625 24.015625 
Q 19.046875 27.09375 24.3125 30.953125 
Q 28.125 33.6875 30.6875 36.171875 
Q 33.25 38.671875 34.8125 41.15625 
Q 36.375 43.65625 37.03125 46.21875 
Q 37.703125 48.78125 37.703125 51.65625 
z
" id="SegoeUIEmoji-32"/>
      </defs>
      <g transform="translate(816.521797 642.9842)scale(0.16 -0.16)">
       <use xlink:href="#SegoeUIEmoji-31"/>
       <use x="53.90625" xlink:href="#SegoeUIEmoji-32"/>
      </g>
     </g>
    </g>
    <g id="text_11">
     <!-- Months -->
     <defs>
      <path d="M 80.5625 0 
L 72.40625 0 
L 72.40625 46.96875 
Q 72.40625 52.546875 73.09375 60.59375 
L 72.90625 60.59375 
Q 71.734375 55.859375 70.796875 53.8125 
L 46.875 0 
L 42.875 0 
L 19 53.421875 
Q 17.96875 55.765625 16.890625 60.59375 
L 16.703125 60.59375 
Q 17.09375 56.390625 17.09375 46.875 
L 17.09375 0 
L 9.1875 0 
L 9.1875 70.015625 
L 20.015625 70.015625 
L 41.5 21.1875 
Q 44 15.578125 44.734375 12.796875 
L 45.015625 12.796875 
Q 47.125 18.5625 48.390625 21.390625 
L 70.3125 70.015625 
L 80.5625 70.015625 
z
" id="SegoeUIEmoji-4d"/>
      <path d="M 29 -1.171875 
Q 17.921875 -1.171875 11.296875 5.828125 
Q 4.6875 12.84375 4.6875 24.421875 
Q 4.6875 37.015625 11.5625 44.09375 
Q 18.453125 51.171875 30.171875 51.171875 
Q 41.359375 51.171875 47.625 44.28125 
Q 53.90625 37.40625 53.90625 25.203125 
Q 53.90625 13.234375 47.140625 6.03125 
Q 40.375 -1.171875 29 -1.171875 
z
M 29.59375 44.4375 
Q 21.875 44.4375 17.375 39.1875 
Q 12.890625 33.9375 12.890625 24.703125 
Q 12.890625 15.828125 17.421875 10.6875 
Q 21.96875 5.5625 29.59375 5.5625 
Q 37.359375 5.5625 41.53125 10.59375 
Q 45.703125 15.625 45.703125 24.90625 
Q 45.703125 34.28125 41.53125 39.359375 
Q 37.359375 44.4375 29.59375 44.4375 
z
" id="SegoeUIEmoji-6f"/>
      <path d="M 49.609375 0 
L 41.609375 0 
L 41.609375 28.515625 
Q 41.609375 44.4375 29.984375 44.4375 
Q 23.96875 44.4375 20.03125 39.921875 
Q 16.109375 35.40625 16.109375 28.515625 
L 16.109375 0 
L 8.109375 0 
L 8.109375 50 
L 16.109375 50 
L 16.109375 41.703125 
L 16.3125 41.703125 
Q 21.96875 51.171875 32.71875 51.171875 
Q 40.921875 51.171875 45.265625 45.875 
Q 49.609375 40.578125 49.609375 30.5625 
z
" id="SegoeUIEmoji-6e"/>
      <path d="M 31.296875 0.484375 
Q 28.46875 -1.078125 23.828125 -1.078125 
Q 10.6875 -1.078125 10.6875 13.578125 
L 10.6875 43.171875 
L 2.09375 43.171875 
L 2.09375 50 
L 10.6875 50 
L 10.6875 62.203125 
L 18.703125 64.796875 
L 18.703125 50 
L 31.296875 50 
L 31.296875 43.171875 
L 18.703125 43.171875 
L 18.703125 14.984375 
Q 18.703125 9.96875 20.40625 7.8125 
Q 22.125 5.671875 26.078125 5.671875 
Q 29.109375 5.671875 31.296875 7.328125 
z
" id="SegoeUIEmoji-74"/>
      <path d="M 49.609375 0 
L 41.609375 0 
L 41.609375 28.8125 
Q 41.609375 44.4375 29.984375 44.4375 
Q 24.125 44.4375 20.109375 39.921875 
Q 16.109375 35.40625 16.109375 28.328125 
L 16.109375 0 
L 8.109375 0 
L 8.109375 74.03125 
L 16.109375 74.03125 
L 16.109375 41.703125 
L 16.3125 41.703125 
Q 22.078125 51.171875 32.71875 51.171875 
Q 49.609375 51.171875 49.609375 30.8125 
z
" id="SegoeUIEmoji-68"/>
      <path d="M 5.078125 1.8125 
L 5.078125 10.40625 
Q 11.625 5.5625 19.484375 5.5625 
Q 30.03125 5.5625 30.03125 12.59375 
Q 30.03125 14.59375 29.125 15.984375 
Q 28.21875 17.390625 26.671875 18.453125 
Q 25.140625 19.53125 23.0625 20.375 
Q 21 21.234375 18.609375 22.171875 
Q 15.28125 23.484375 12.765625 24.828125 
Q 10.25 26.171875 8.5625 27.859375 
Q 6.890625 29.546875 6.03125 31.6875 
Q 5.171875 33.84375 5.171875 36.71875 
Q 5.171875 40.234375 6.78125 42.9375 
Q 8.40625 45.65625 11.078125 47.484375 
Q 13.765625 49.3125 17.203125 50.234375 
Q 20.65625 51.171875 24.3125 51.171875 
Q 30.8125 51.171875 35.9375 48.921875 
L 35.9375 40.828125 
Q 30.421875 44.4375 23.25 44.4375 
Q 21 44.4375 19.1875 43.921875 
Q 17.390625 43.40625 16.09375 42.46875 
Q 14.796875 41.546875 14.078125 40.25 
Q 13.375 38.96875 13.375 37.40625 
Q 13.375 35.453125 14.078125 34.125 
Q 14.796875 32.8125 16.15625 31.78125 
Q 17.53125 30.765625 19.484375 29.9375 
Q 21.4375 29.109375 23.921875 28.125 
Q 27.25 26.859375 29.875 25.515625 
Q 32.515625 24.171875 34.375 22.484375 
Q 36.234375 20.796875 37.234375 18.59375 
Q 38.234375 16.40625 38.234375 13.375 
Q 38.234375 9.671875 36.59375 6.9375 
Q 34.96875 4.203125 32.234375 2.390625 
Q 29.5 0.59375 25.921875 -0.28125 
Q 22.359375 -1.171875 18.453125 -1.171875 
Q 10.75 -1.171875 5.078125 1.8125 
z
" id="SegoeUIEmoji-73"/>
     </defs>
     <g transform="translate(444.5495 662.5092)scale(0.16 -0.16)">
      <use xlink:href="#SegoeUIEmoji-4d"/>
      <use x="89.794922" xlink:href="#SegoeUIEmoji-6f"/>
      <use x="148.388672" xlink:href="#SegoeUIEmoji-6e"/>
      <use x="204.980469" xlink:href="#SegoeUIEmoji-74"/>
      <use x="238.867188" xlink:href="#SegoeUIEmoji-68"/>
      <use x="295.458984" xlink:href="#SegoeUIEmoji-73"/>
     </g>
    </g>
   </g>
   <g id="matplotlib.axis_2">
    <g id="ytick_1">
     <g id="line2d_11">
      <path clip-path="url(#pb2f216f637)" d="M 115.02 526.223752 
L 828.144 526.223752 
" style="fill:none;opacity:0.25;stroke:#000080;stroke-linecap:square;stroke-width:0.5;"/>
     </g>
     <g id="line2d_12">
      <defs>
       <path d="M 0 0 
L -3.5 0 
" id="mc900906f43" style="stroke:#000000;stroke-width:0.8;"/>
      </defs>
      <g>
       <use style="stroke:#000000;stroke-width:0.8;" x="115.02" xlink:href="#mc900906f43" y="526.223752"/>
      </g>
     </g>
     <g id="text_12">
      <!-- 50 -->
      <g transform="translate(90.77 532.146252)scale(0.16 -0.16)">
       <use xlink:href="#SegoeUIEmoji-35"/>
       <use x="53.90625" xlink:href="#SegoeUIEmoji-30"/>
      </g>
     </g>
    </g>
    <g id="ytick_2">
     <g id="line2d_13">
      <path clip-path="url(#pb2f216f637)" d="M 115.02 422.263182 
L 828.144 422.263182 
" style="fill:none;opacity:0.25;stroke:#000080;stroke-linecap:square;stroke-width:0.5;"/>
     </g>
     <g id="line2d_14">
      <g>
       <use style="stroke:#000000;stroke-width:0.8;" x="115.02" xlink:href="#mc900906f43" y="422.263182"/>
      </g>
     </g>
     <g id="text_13">
      <!-- 60 -->
      <g transform="translate(90.77 428.185682)scale(0.16 -0.16)">
       <use xlink:href="#SegoeUIEmoji-36"/>
       <use x="53.90625" xlink:href="#SegoeUIEmoji-30"/>
      </g>
     </g>
    </g>
    <g id="ytick_3">
     <g id="line2d_15">
      <path clip-path="url(#pb2f216f637)" d="M 115.02 318.302612 
L 828.144 318.302612 
" style="fill:none;opacity:0.25;stroke:#000080;stroke-linecap:square;stroke-width:0.5;"/>
     </g>
     <g id="line2d_16">
      <g>
       <use style="stroke:#000000;stroke-width:0.8;" x="115.02" xlink:href="#mc900906f43" y="318.302612"/>
      </g>
     </g>
     <g id="text_14">
      <!-- 70 -->
      <g transform="translate(90.77 324.225112)scale(0.16 -0.16)">
       <use xlink:href="#SegoeUIEmoji-37"/>
       <use x="53.90625" xlink:href="#SegoeUIEmoji-30"/>
      </g>
     </g>
    </g>
    <g id="ytick_4">
     <g id="line2d_17">
      <path clip-path="url(#pb2f216f637)" d="M 115.02 214.342042 
L 828.144 214.342042 
" style="fill:none;opacity:0.25;stroke:#000080;stroke-linecap:square;stroke-width:0.5;"/>
     </g>
     <g id="line2d_18">
      <g>
       <use style="stroke:#000000;stroke-width:0.8;" x="115.02" xlink:href="#mc900906f43" y="214.342042"/>
      </g>
     </g>
     <g id="text_15">
      <!-- 80 -->
      <g transform="translate(90.77 220.264542)scale(0.16 -0.16)">
       <use xlink:href="#SegoeUIEmoji-38"/>
       <use x="53.90625" xlink:href="#SegoeUIEmoji-30"/>
      </g>
     </g>
    </g>
    <g id="ytick_5">
     <g id="line2d_19">
      <path clip-path="url(#pb2f216f637)" d="M 115.02 110.381472 
L 828.144 110.381472 
" style="fill:none;opacity:0.25;stroke:#000080;stroke-linecap:square;stroke-width:0.5;"/>
     </g>
     <g id="line2d_20">
      <g>
       <use style="stroke:#000000;stroke-width:0.8;" x="115.02" xlink:href="#mc900906f43" y="110.381472"/>
      </g>
     </g>
     <g id="text_16">
      <!-- 90 -->
      <g transform="translate(90.77 116.303972)scale(0.16 -0.16)">
       <use xlink:href="#SegoeUIEmoji-39"/>
       <use x="53.90625" xlink:href="#SegoeUIEmoji-30"/>
      </g>
     </g>
    </g>
    <g id="text_17">
     <!-- Emotion ratio -->
     <defs>
      <path d="M 46.296875 0 
L 9.1875 0 
L 9.1875 70.015625 
L 44.734375 70.015625 
L 44.734375 62.59375 
L 17.390625 62.59375 
L 17.390625 39.3125 
L 42.671875 39.3125 
L 42.671875 31.9375 
L 17.390625 31.9375 
L 17.390625 7.421875 
L 46.296875 7.421875 
z
" id="SegoeUIEmoji-45"/>
      <path d="M 79.109375 0 
L 71.09375 0 
L 71.09375 28.71875 
Q 71.09375 37.015625 68.53125 40.71875 
Q 65.96875 44.4375 59.90625 44.4375 
Q 54.78125 44.4375 51.1875 39.75 
Q 47.609375 35.0625 47.609375 28.515625 
L 47.609375 0 
L 39.59375 0 
L 39.59375 29.6875 
Q 39.59375 44.4375 28.21875 44.4375 
Q 22.953125 44.4375 19.53125 40.015625 
Q 16.109375 35.59375 16.109375 28.515625 
L 16.109375 0 
L 8.109375 0 
L 8.109375 50 
L 16.109375 50 
L 16.109375 42.09375 
L 16.3125 42.09375 
Q 21.625 51.171875 31.84375 51.171875 
Q 36.96875 51.171875 40.765625 48.3125 
Q 44.578125 45.453125 46 40.828125 
Q 51.5625 51.171875 62.59375 51.171875 
Q 79.109375 51.171875 79.109375 30.8125 
z
" id="SegoeUIEmoji-6d"/>
      <path d="M 12.203125 62.703125 
Q 10.0625 62.703125 8.546875 64.15625 
Q 7.03125 65.625 7.03125 67.875 
Q 7.03125 70.125 8.546875 71.609375 
Q 10.0625 73.09375 12.203125 73.09375 
Q 14.40625 73.09375 15.9375 71.609375 
Q 17.484375 70.125 17.484375 67.875 
Q 17.484375 65.71875 15.9375 64.203125 
Q 14.40625 62.703125 12.203125 62.703125 
z
M 16.109375 0 
L 8.109375 0 
L 8.109375 50 
L 16.109375 50 
z
" id="SegoeUIEmoji-69"/>
      <path id="SegoeUIEmoji-20"/>
      <path d="M 34.1875 41.890625 
Q 32.078125 43.5 28.125 43.5 
Q 23 43.5 19.546875 38.671875 
Q 16.109375 33.84375 16.109375 25.484375 
L 16.109375 0 
L 8.109375 0 
L 8.109375 50 
L 16.109375 50 
L 16.109375 39.703125 
L 16.3125 39.703125 
Q 18.015625 44.96875 21.53125 47.921875 
Q 25.046875 50.875 29.390625 50.875 
Q 32.515625 50.875 34.1875 50.203125 
z
" id="SegoeUIEmoji-72"/>
      <path d="M 43.890625 0 
L 35.890625 0 
L 35.890625 7.8125 
L 35.6875 7.8125 
Q 30.46875 -1.171875 20.3125 -1.171875 
Q 12.84375 -1.171875 8.609375 2.78125 
Q 4.390625 6.734375 4.390625 13.28125 
Q 4.390625 27.296875 20.90625 29.59375 
L 35.890625 31.6875 
Q 35.890625 44.4375 25.59375 44.4375 
Q 16.546875 44.4375 9.28125 38.28125 
L 9.28125 46.484375 
Q 16.65625 51.171875 26.265625 51.171875 
Q 43.890625 51.171875 43.890625 32.515625 
z
M 35.890625 25.296875 
L 23.828125 23.640625 
Q 18.265625 22.859375 15.421875 20.875 
Q 12.59375 18.890625 12.59375 13.875 
Q 12.59375 10.203125 15.203125 7.875 
Q 17.828125 5.5625 22.171875 5.5625 
Q 28.125 5.5625 32 9.734375 
Q 35.890625 13.921875 35.890625 20.3125 
z
" id="SegoeUIEmoji-61"/>
     </defs>
     <g transform="translate(83.09 402.01515)rotate(-90)scale(0.16 -0.16)">
      <use xlink:href="#SegoeUIEmoji-45"/>
      <use x="50.585938" xlink:href="#SegoeUIEmoji-6d"/>
      <use x="136.71875" xlink:href="#SegoeUIEmoji-6f"/>
      <use x="195.3125" xlink:href="#SegoeUIEmoji-74"/>
      <use x="229.199219" xlink:href="#SegoeUIEmoji-69"/>
      <use x="253.417969" xlink:href="#SegoeUIEmoji-6f"/>
      <use x="312.011719" xlink:href="#SegoeUIEmoji-6e"/>
      <use x="368.603516" xlink:href="#SegoeUIEmoji-20"/>
      <use x="395.996094" xlink:href="#SegoeUIEmoji-72"/>
      <use x="430.761719" xlink:href="#SegoeUIEmoji-61"/>
      <use x="481.640625" xlink:href="#SegoeUIEmoji-74"/>
      <use x="515.527344" xlink:href="#SegoeUIEmoji-69"/>
      <use x="539.746094" xlink:href="#SegoeUIEmoji-6f"/>
     </g>
    </g>
   </g>
   <g id="patch_3">
    <path d="M 115.02 624.1392 
L 115.02 84.1536 
" style="fill:none;stroke:#000000;stroke-linecap:square;stroke-linejoin:miter;stroke-width:0.8;"/>
   </g>
   <g id="patch_4">
    <path d="M 828.144 624.1392 
L 828.144 84.1536 
" style="fill:none;stroke:#000000;stroke-linecap:square;stroke-linejoin:miter;stroke-width:0.8;"/>
   </g>
   <g id="patch_5">
    <path d="M 115.02 624.1392 
L 828.144 624.1392 
" style="fill:none;stroke:#000000;stroke-linecap:square;stroke-linejoin:miter;stroke-width:0.8;"/>
   </g>
   <g id="patch_6">
    <path d="M 115.02 84.1536 
L 828.144 84.1536 
" style="fill:none;stroke:#000000;stroke-linecap:square;stroke-linejoin:miter;stroke-width:0.8;"/>
   </g>
   <g id="text_18">
    <!-- Thai happiness index on Twitter in 2016 -->
    <defs>
     <path d="M 50.59375 62.59375 
L 30.375 62.59375 
L 30.375 0 
L 22.171875 0 
L 22.171875 62.59375 
L 2 62.59375 
L 2 70.015625 
L 50.59375 70.015625 
z
" id="SegoeUIEmoji-54"/>
     <path d="M 16.3125 7.234375 
L 16.109375 7.234375 
L 16.109375 -23 
L 8.109375 -23 
L 8.109375 50 
L 16.109375 50 
L 16.109375 41.21875 
L 16.3125 41.21875 
Q 22.21875 51.171875 33.59375 51.171875 
Q 43.265625 51.171875 48.6875 44.453125 
Q 54.109375 37.75 54.109375 26.46875 
Q 54.109375 13.921875 48 6.375 
Q 41.890625 -1.171875 31.296875 -1.171875 
Q 21.578125 -1.171875 16.3125 7.234375 
z
M 16.109375 27.390625 
L 16.109375 20.40625 
Q 16.109375 14.203125 20.140625 9.875 
Q 24.171875 5.5625 30.375 5.5625 
Q 37.640625 5.5625 41.765625 11.125 
Q 45.90625 16.703125 45.90625 26.609375 
Q 45.90625 34.96875 42.046875 39.703125 
Q 38.1875 44.4375 31.59375 44.4375 
Q 24.609375 44.4375 20.359375 39.578125 
Q 16.109375 34.71875 16.109375 27.390625 
z
" id="SegoeUIEmoji-70"/>
     <path d="M 48.296875 23 
L 12.984375 23 
Q 13.1875 14.65625 17.484375 10.109375 
Q 21.78125 5.5625 29.296875 5.5625 
Q 37.75 5.5625 44.828125 11.140625 
L 44.828125 3.609375 
Q 38.234375 -1.171875 27.390625 -1.171875 
Q 16.796875 -1.171875 10.734375 5.640625 
Q 4.6875 12.453125 4.6875 24.8125 
Q 4.6875 36.46875 11.296875 43.8125 
Q 17.921875 51.171875 27.734375 51.171875 
Q 37.546875 51.171875 42.921875 44.828125 
Q 48.296875 38.484375 48.296875 27.203125 
z
M 40.09375 29.78125 
Q 40.046875 36.71875 36.75 40.578125 
Q 33.453125 44.4375 27.59375 44.4375 
Q 21.921875 44.4375 17.96875 40.375 
Q 14.015625 36.328125 13.09375 29.78125 
z
" id="SegoeUIEmoji-65"/>
     <path d="M 50.78125 0 
L 42.78125 0 
L 42.78125 8.5 
L 42.578125 8.5 
Q 37.015625 -1.171875 25.390625 -1.171875 
Q 15.96875 -1.171875 10.328125 5.53125 
Q 4.6875 12.25 4.6875 23.828125 
Q 4.6875 36.234375 10.9375 43.703125 
Q 17.1875 51.171875 27.59375 51.171875 
Q 37.890625 51.171875 42.578125 43.0625 
L 42.78125 43.0625 
L 42.78125 74.03125 
L 50.78125 74.03125 
z
M 42.78125 22.609375 
L 42.78125 29.984375 
Q 42.78125 36.03125 38.765625 40.234375 
Q 34.765625 44.4375 28.609375 44.4375 
Q 21.296875 44.4375 17.09375 39.0625 
Q 12.890625 33.6875 12.890625 24.21875 
Q 12.890625 15.578125 16.921875 10.5625 
Q 20.953125 5.5625 27.734375 5.5625 
Q 34.421875 5.5625 38.59375 10.390625 
Q 42.78125 15.234375 42.78125 22.609375 
z
" id="SegoeUIEmoji-64"/>
     <path d="M 44.625 50 
L 27.828125 24.703125 
L 44.34375 0 
L 35.015625 0 
L 25.203125 16.21875 
Q 24.265625 17.71875 23 20.015625 
L 22.796875 20.015625 
Q 22.5625 19.578125 20.515625 16.21875 
L 10.5 0 
L 1.265625 0 
L 18.3125 24.515625 
L 2 50 
L 11.328125 50 
L 21 32.90625 
Q 22.078125 31 23.09375 29 
L 23.296875 29 
L 35.796875 50 
z
" id="SegoeUIEmoji-78"/>
     <path d="M 71.09375 50 
L 56.109375 0 
L 47.796875 0 
L 37.5 35.796875 
Q 36.921875 37.84375 36.71875 40.4375 
L 36.53125 40.4375 
Q 36.375 38.671875 35.5 35.890625 
L 24.3125 0 
L 16.3125 0 
L 1.171875 50 
L 9.578125 50 
L 19.921875 12.40625 
Q 20.40625 10.6875 20.609375 7.90625 
L 21 7.90625 
Q 21.140625 10.0625 21.875 12.5 
L 33.40625 50 
L 40.71875 50 
L 51.078125 12.3125 
Q 51.5625 10.5 51.8125 7.8125 
L 52.203125 7.8125 
Q 52.296875 9.71875 53.03125 12.3125 
L 63.1875 50 
z
" id="SegoeUIEmoji-77"/>
    </defs>
    <g transform="translate(304.0965 64.1536)scale(0.192 -0.192)">
     <use xlink:href="#SegoeUIEmoji-54"/>
     <use x="52.392578" xlink:href="#SegoeUIEmoji-68"/>
     <use x="108.984375" xlink:href="#SegoeUIEmoji-61"/>
     <use x="159.863281" xlink:href="#SegoeUIEmoji-69"/>
     <use x="184.082031" xlink:href="#SegoeUIEmoji-20"/>
     <use x="211.474609" xlink:href="#SegoeUIEmoji-68"/>
     <use x="268.066406" xlink:href="#SegoeUIEmoji-61"/>
     <use x="318.945312" xlink:href="#SegoeUIEmoji-70"/>
     <use x="377.734375" xlink:href="#SegoeUIEmoji-70"/>
     <use x="436.523438" xlink:href="#SegoeUIEmoji-69"/>
     <use x="460.742188" xlink:href="#SegoeUIEmoji-6e"/>
     <use x="517.333984" xlink:href="#SegoeUIEmoji-65"/>
     <use x="569.628906" xlink:href="#SegoeUIEmoji-73"/>
     <use x="612.060547" xlink:href="#SegoeUIEmoji-73"/>
     <use x="654.492188" xlink:href="#SegoeUIEmoji-20"/>
     <use x="681.884766" xlink:href="#SegoeUIEmoji-69"/>
     <use x="706.103516" xlink:href="#SegoeUIEmoji-6e"/>
     <use x="762.695312" xlink:href="#SegoeUIEmoji-64"/>
     <use x="821.582031" xlink:href="#SegoeUIEmoji-65"/>
     <use x="873.876953" xlink:href="#SegoeUIEmoji-78"/>
     <use x="919.775391" xlink:href="#SegoeUIEmoji-20"/>
     <use x="947.167969" xlink:href="#SegoeUIEmoji-6f"/>
     <use x="1005.761719" xlink:href="#SegoeUIEmoji-6e"/>
     <use x="1062.353516" xlink:href="#SegoeUIEmoji-20"/>
     <use x="1089.746094" xlink:href="#SegoeUIEmoji-54"/>
     <use x="1142.060547" xlink:href="#SegoeUIEmoji-77"/>
     <use x="1214.326172" xlink:href="#SegoeUIEmoji-69"/>
     <use x="1238.544922" xlink:href="#SegoeUIEmoji-74"/>
     <use x="1272.431641" xlink:href="#SegoeUIEmoji-74"/>
     <use x="1306.318359" xlink:href="#SegoeUIEmoji-65"/>
     <use x="1358.613281" xlink:href="#SegoeUIEmoji-72"/>
     <use x="1393.378906" xlink:href="#SegoeUIEmoji-20"/>
     <use x="1420.771484" xlink:href="#SegoeUIEmoji-69"/>
     <use x="1444.990234" xlink:href="#SegoeUIEmoji-6e"/>
     <use x="1501.582031" xlink:href="#SegoeUIEmoji-20"/>
     <use x="1528.974609" xlink:href="#SegoeUIEmoji-32"/>
     <use x="1582.880859" xlink:href="#SegoeUIEmoji-30"/>
     <use x="1636.787109" xlink:href="#SegoeUIEmoji-31"/>
     <use x="1690.693359" xlink:href="#SegoeUIEmoji-36"/>
    </g>
   </g>
   <g id="legend_1">
    <g id="patch_7">
     <path d="M 126.22 144.0886 
L 227.86 144.0886 
Q 231.06 144.0886 231.06 140.8886 
L 231.06 95.3536 
Q 231.06 92.1536 227.86 92.1536 
L 126.22 92.1536 
Q 123.02 92.1536 123.02 95.3536 
L 123.02 140.8886 
Q 123.02 144.0886 126.22 144.0886 
z
" style="fill:#ffffff;opacity:0.8;stroke:#cccccc;stroke-linejoin:miter;"/>
    </g>
    <g id="patch_8">
     <path d="M 129.42 110.3986 
L 161.42 110.3986 
L 161.42 99.1986 
L 129.42 99.1986 
z
" style="fill:#7bc8f6;"/>
    </g>
    <g id="text_19">
     <!-- Happy  -->
     <defs>
      <path d="M 61.8125 0 
L 53.609375 0 
L 53.609375 31.9375 
L 17.390625 31.9375 
L 17.390625 0 
L 9.1875 0 
L 9.1875 70.015625 
L 17.390625 70.015625 
L 17.390625 39.3125 
L 53.609375 39.3125 
L 53.609375 70.015625 
L 61.8125 70.015625 
z
" id="SegoeUIEmoji-48"/>
      <path d="M 47.90625 50 
L 24.90625 -8.015625 
Q 18.75 -23.53125 7.625 -23.53125 
Q 4.5 -23.53125 2.390625 -22.90625 
L 2.390625 -15.71875 
Q 4.984375 -16.609375 7.125 -16.609375 
Q 13.1875 -16.609375 16.21875 -9.375 
L 20.21875 0.09375 
L 0.6875 50 
L 9.578125 50 
L 23.09375 11.53125 
Q 23.34375 10.796875 24.125 7.71875 
L 24.421875 7.71875 
Q 24.65625 8.890625 25.390625 11.421875 
L 39.59375 50 
z
" id="SegoeUIEmoji-79"/>
     </defs>
     <g transform="translate(174.22 110.3986)scale(0.16 -0.16)">
      <use xlink:href="#SegoeUIEmoji-48"/>
      <use x="70.996094" xlink:href="#SegoeUIEmoji-61"/>
      <use x="121.875" xlink:href="#SegoeUIEmoji-70"/>
      <use x="180.664062" xlink:href="#SegoeUIEmoji-70"/>
      <use x="239.453125" xlink:href="#SegoeUIEmoji-79"/>
      <use x="287.841797" xlink:href="#SegoeUIEmoji-20"/>
     </g>
    </g>
    <g id="patch_9">
     <path d="M 129.42 134.0086 
L 161.42 134.0086 
L 161.42 122.8086 
L 129.42 122.8086 
z
" style="fill:#ff796c;"/>
    </g>
    <g id="text_20">
     <!-- Sad -->
     <defs>
      <path d="M 5.90625 2.828125 
L 5.90625 12.5 
Q 7.5625 11.03125 9.875 9.859375 
Q 12.203125 8.6875 14.765625 7.875 
Q 17.328125 7.078125 19.921875 6.640625 
Q 22.515625 6.203125 24.703125 6.203125 
Q 32.28125 6.203125 36.015625 9 
Q 39.75 11.8125 39.75 17.09375 
Q 39.75 19.921875 38.5 22.015625 
Q 37.25 24.125 35.046875 25.859375 
Q 32.859375 27.59375 29.859375 29.171875 
Q 26.859375 30.765625 23.390625 32.515625 
Q 19.734375 34.375 16.546875 36.28125 
Q 13.375 38.1875 11.03125 40.484375 
Q 8.6875 42.78125 7.34375 45.671875 
Q 6 48.578125 6 52.484375 
Q 6 57.28125 8.09375 60.8125 
Q 10.203125 64.359375 13.625 66.65625 
Q 17.046875 68.953125 21.40625 70.0625 
Q 25.78125 71.1875 30.328125 71.1875 
Q 40.671875 71.1875 45.40625 68.703125 
L 45.40625 59.46875 
Q 39.203125 63.765625 29.5 63.765625 
Q 26.8125 63.765625 24.125 63.203125 
Q 21.4375 62.640625 19.328125 61.375 
Q 17.234375 60.109375 15.90625 58.109375 
Q 14.59375 56.109375 14.59375 53.21875 
Q 14.59375 50.53125 15.59375 48.578125 
Q 16.609375 46.625 18.5625 45.015625 
Q 20.515625 43.40625 23.3125 41.890625 
Q 26.125 40.375 29.78125 38.578125 
Q 33.546875 36.71875 36.90625 34.671875 
Q 40.28125 32.625 42.8125 30.125 
Q 45.359375 27.640625 46.84375 24.609375 
Q 48.34375 21.578125 48.34375 17.671875 
Q 48.34375 12.5 46.3125 8.90625 
Q 44.28125 5.328125 40.84375 3.078125 
Q 37.40625 0.828125 32.90625 -0.171875 
Q 28.421875 -1.171875 23.4375 -1.171875 
Q 21.78125 -1.171875 19.328125 -0.90625 
Q 16.890625 -0.640625 14.34375 -0.125 
Q 11.8125 0.390625 9.546875 1.140625 
Q 7.28125 1.90625 5.90625 2.828125 
z
" id="SegoeUIEmoji-53"/>
     </defs>
     <g transform="translate(174.22 134.0086)scale(0.16 -0.16)">
      <use xlink:href="#SegoeUIEmoji-53"/>
      <use x="53.125" xlink:href="#SegoeUIEmoji-61"/>
      <use x="104.003906" xlink:href="#SegoeUIEmoji-64"/>
     </g>
    </g>
   </g>
  </g>
 </g>
 <defs>
  <clipPath id="pb2f216f637">
   <rect height="539.9856" width="713.124" x="115.02" y="84.1536"/>
  </clipPath>
 </defs>
</svg>
