<?xml version="1.0" encoding="utf-8" standalone="no"?>
<!DOCTYPE svg PUBLIC "-//W3C//DTD SVG 1.1//EN"
  "http://www.w3.org/Graphics/SVG/1.1/DTD/svg11.dtd">
<!-- Created with matplotlib (http://matplotlib.org/) -->
<svg height="576pt" version="1.1" viewBox="0 0 864 576" width="864pt" xmlns="http://www.w3.org/2000/svg" xmlns:xlink="http://www.w3.org/1999/xlink">
 <defs>
  <style type="text/css">
*{stroke-linecap:butt;stroke-linejoin:round;}
  </style>
 </defs>
 <g id="figure_1">
  <g id="patch_1">
   <path d="M 0 576 
L 864 576 
L 864 0 
L 0 0 
z
" style="fill:#ffffff;"/>
  </g>
  <g id="axes_1">
   <g id="patch_2">
    <path d="M 108 512.64 
L 777.6 512.64 
L 777.6 69.12 
L 108 69.12 
z
" style="fill:#ffffff;"/>
   </g>
   <g id="patch_3">
    <path clip-path="url(#pf557abe8e4)" d="M 138.436364 512.64 
L 188.128386 512.64 
L 188.128386 90.24 
L 138.436364 90.24 
z
" style="fill:#7bc8f6;"/>
   </g>
   <g id="patch_4">
    <path clip-path="url(#pf557abe8e4)" d="M 200.551391 512.64 
L 250.243414 512.64 
L 250.243414 330.017105 
L 200.551391 330.017105 
z
" style="fill:#7bc8f6;"/>
   </g>
   <g id="patch_5">
    <path clip-path="url(#pf557abe8e4)" d="M 262.666419 512.64 
L 312.358442 512.64 
L 312.358442 452.244133 
L 262.666419 452.244133 
z
" style="fill:#7bc8f6;"/>
   </g>
   <g id="patch_6">
    <path clip-path="url(#pf557abe8e4)" d="M 324.781447 512.64 
L 374.473469 512.64 
L 374.473469 462.819184 
L 324.781447 462.819184 
z
" style="fill:#7bc8f6;"/>
   </g>
   <g id="patch_7">
    <path clip-path="url(#pf557abe8e4)" d="M 386.896475 512.64 
L 436.588497 512.64 
L 436.588497 466.826497 
L 386.896475 466.826497 
z
" style="fill:#7bc8f6;"/>
   </g>
   <g id="patch_8">
    <path clip-path="url(#pf557abe8e4)" d="M 449.011503 512.64 
L 498.703525 512.64 
L 498.703525 467.586745 
L 449.011503 467.586745 
z
" style="fill:#7bc8f6;"/>
   </g>
   <g id="patch_9">
    <path clip-path="url(#pf557abe8e4)" d="M 511.126531 512.64 
L 560.818553 512.64 
L 560.818553 469.721276 
L 511.126531 469.721276 
z
" style="fill:#7bc8f6;"/>
   </g>
   <g id="patch_10">
    <path clip-path="url(#pf557abe8e4)" d="M 573.241558 512.64 
L 622.933581 512.64 
L 622.933581 472.221067 
L 573.241558 472.221067 
z
" style="fill:#7bc8f6;"/>
   </g>
   <g id="patch_11">
    <path clip-path="url(#pf557abe8e4)" d="M 635.356586 512.64 
L 685.048609 512.64 
L 685.048609 475.668262 
L 635.356586 475.668262 
z
" style="fill:#7bc8f6;"/>
   </g>
   <g id="patch_12">
    <path clip-path="url(#pf557abe8e4)" d="M 697.471614 512.64 
L 747.163636 512.64 
L 747.163636 478.791081 
L 697.471614 478.791081 
z
" style="fill:#7bc8f6;"/>
   </g>
   <g id="matplotlib.axis_1">
    <g id="xtick_1">
     <g id="line2d_1">
      <defs>
       <path d="M 0 0 
L 0 3.5 
" id="mf5bb1ea01c" style="stroke:#000000;stroke-width:0.8;"/>
      </defs>
      <g>
       <use style="stroke:#000000;stroke-width:0.8;" x="163.282375" xlink:href="#mf5bb1ea01c" y="512.64"/>
      </g>
     </g>
     <g id="text_1">
      <!-- ðŸ˜‚ -->
      <defs>
       <path d="M 49.421875 80.328125 
Q 48.53125 81.984375 47.234375 83.34375 
Q 45.953125 84.71875 44.34375 85.6875 
Q 50.046875 88.484375 56.171875 89.875 
Q 62.3125 91.265625 68.65625 91.265625 
Q 75 91.265625 81.125 89.875 
Q 87.25 88.484375 92.96875 85.6875 
Q 91.359375 84.71875 90.0625 83.34375 
Q 88.765625 81.984375 87.890625 80.328125 
Q 83.296875 82.28125 78.46875 83.25 
Q 73.640625 84.234375 68.65625 84.234375 
Q 63.671875 84.234375 58.828125 83.25 
Q 54 82.28125 49.421875 80.328125 
z
M 113.421875 68.953125 
Q 119 61.578125 121.90625 52.953125 
Q 124.8125 44.34375 124.8125 35.109375 
Q 124.8125 27.34375 122.796875 20.1875 
Q 120.796875 13.03125 117.140625 6.78125 
Q 113.484375 0.53125 108.34375 -4.59375 
Q 103.21875 -9.71875 96.96875 -13.375 
Q 90.71875 -17.046875 83.546875 -19.046875 
Q 76.375 -21.046875 68.65625 -21.046875 
Q 60.890625 -21.046875 53.734375 -19.046875 
Q 46.578125 -17.046875 40.328125 -13.375 
Q 34.078125 -9.71875 28.953125 -4.59375 
Q 23.828125 0.53125 20.15625 6.78125 
Q 16.5 13.03125 14.5 20.203125 
Q 12.5 27.390625 12.5 35.109375 
Q 12.5 44.34375 15.40625 52.953125 
Q 18.3125 61.578125 23.875 68.953125 
Q 24.5625 67.1875 25.65625 65.671875 
Q 26.765625 64.15625 28.171875 62.9375 
Q 24.8125 58.0625 22.703125 52.609375 
Q 20.609375 47.171875 19.921875 41.3125 
Q 18.0625 39.40625 17.03125 36.90625 
Q 16.015625 34.421875 16.015625 31.734375 
Q 16.015625 28.375 17.578125 25.3125 
Q 19.140625 22.265625 21.828125 20.265625 
Q 24.21875 12.59375 28.828125 6.296875 
Q 33.453125 0 39.625 -4.515625 
Q 45.796875 -9.03125 53.21875 -11.515625 
Q 60.640625 -14.015625 68.65625 -14.015625 
Q 76.65625 -14.015625 84.078125 -11.515625 
Q 91.5 -9.03125 97.671875 -4.515625 
Q 103.859375 0 108.4375 6.296875 
Q 113.03125 12.59375 115.484375 20.265625 
Q 118.109375 22.21875 119.703125 25.234375 
Q 121.296875 28.265625 121.296875 31.59375 
Q 121.296875 37.203125 117.390625 41.265625 
Q 116.65625 47.125 114.578125 52.59375 
Q 112.5 58.0625 109.1875 62.9375 
Q 110.59375 64.109375 111.6875 65.640625 
Q 112.796875 67.1875 113.421875 68.953125 
z
M 89.75 73.296875 
Q 89.75 75.484375 90.5 77.453125 
Q 91.265625 79.4375 92.65625 80.953125 
Q 94.046875 82.46875 95.921875 83.34375 
Q 97.796875 84.234375 100.09375 84.234375 
Q 102.25 84.234375 104.203125 83.421875 
Q 106.15625 82.625 107.609375 81.203125 
Q 109.078125 79.78125 109.9375 77.875 
Q 110.796875 75.984375 110.796875 73.78125 
Q 110.796875 70.65625 109.296875 68.3125 
Q 107.8125 65.96875 105.171875 64.40625 
Q 101.375 62.0625 97.46875 59.9375 
Q 93.5625 57.8125 89.75 55.46875 
z
M 117.78125 31.6875 
Q 117.78125 29.546875 116.9375 27.609375 
Q 116.109375 25.6875 114.6875 24.234375 
Q 113.28125 22.796875 111.375 21.9375 
Q 109.46875 21.09375 107.328125 21.09375 
Q 104.25 21.09375 101.875 22.578125 
Q 99.515625 24.078125 97.953125 26.65625 
Q 97.359375 27.640625 96.875 28.640625 
Q 96.390625 29.640625 95.84375 30.609375 
Q 94.28125 33.546875 92.796875 36.40625 
Q 91.3125 39.265625 89.703125 42.140625 
L 96.734375 42.140625 
Q 96.734375 43.65625 95.78125 44.5 
Q 94.828125 45.359375 93.40625 45.609375 
Q 93.015625 45.703125 92.640625 45.703125 
Q 92.28125 45.703125 91.890625 45.703125 
Q 91.3125 45.703125 90.71875 45.671875 
Q 90.140625 45.65625 89.546875 45.65625 
L 82.671875 45.65625 
Q 81.25 45.65625 80.21875 44.609375 
Q 79.203125 43.5625 79.203125 42.140625 
L 75.6875 42.140625 
Q 75.6875 44.34375 76.515625 46.234375 
Q 77.34375 48.140625 78.75 49.5625 
Q 80.171875 50.984375 82.078125 51.8125 
Q 83.984375 52.640625 86.1875 52.640625 
L 89.703125 52.640625 
Q 91.890625 52.640625 93.8125 51.8125 
Q 95.75 50.984375 97.15625 49.53125 
Q 98.578125 48.09375 99.40625 46.1875 
Q 100.25 44.28125 100.25 42.09375 
Q 101.375 42.09375 102.46875 42.109375 
Q 103.5625 42.140625 104.6875 42.140625 
Q 106.453125 42.140625 108.109375 41.96875 
Q 109.765625 41.796875 111.28125 41.25 
Q 112.796875 40.71875 114.078125 39.671875 
Q 115.375 38.625 116.40625 36.8125 
Q 117.78125 34.375 117.78125 31.6875 
z
M 47.609375 55.46875 
Q 45.75 56.453125 43.9375 57.546875 
Q 42.140625 58.640625 40.28125 59.71875 
Q 38.234375 60.890625 36.203125 62.03125 
Q 34.1875 63.1875 32.125 64.40625 
Q 29.5 66.015625 28.03125 68.328125 
Q 26.5625 70.65625 26.5625 73.828125 
Q 26.5625 75.984375 27.40625 77.875 
Q 28.265625 79.78125 29.734375 81.203125 
Q 31.203125 82.625 33.125 83.421875 
Q 35.0625 84.234375 37.203125 84.234375 
Q 39.5 84.234375 41.40625 83.34375 
Q 43.3125 82.46875 44.671875 80.953125 
Q 46.046875 79.4375 46.796875 77.453125 
Q 47.5625 75.484375 47.5625 73.296875 
Q 47.5625 68.796875 47.578125 64.375 
Q 47.609375 59.96875 47.609375 55.46875 
z
M 19.484375 31.734375 
Q 19.484375 33.984375 20.390625 35.890625 
Q 21.296875 37.796875 22.78125 39.1875 
Q 24.265625 40.578125 26.265625 41.328125 
Q 28.265625 42.09375 30.46875 42.09375 
L 37.0625 42.09375 
Q 37.0625 44.28125 37.890625 46.203125 
Q 38.71875 48.140625 40.125 49.5625 
Q 41.546875 50.984375 43.46875 51.8125 
Q 45.40625 52.640625 47.609375 52.640625 
L 51.125 52.640625 
Q 53.328125 52.640625 55.21875 51.8125 
Q 57.125 50.984375 58.546875 49.5625 
Q 59.96875 48.140625 60.796875 46.234375 
Q 61.625 44.34375 61.625 42.140625 
L 58.109375 42.140625 
Q 58.109375 43.5625 57.046875 44.609375 
Q 56 45.65625 54.59375 45.65625 
L 44.09375 45.65625 
Q 42.671875 45.65625 41.625 44.609375 
Q 40.578125 43.5625 40.578125 42.140625 
L 47.609375 42.140625 
L 39.359375 26.65625 
Q 37.984375 24.125 35.421875 22.578125 
Q 32.859375 21.046875 29.984375 21.046875 
Q 27.828125 21.046875 25.890625 21.921875 
Q 23.96875 22.796875 22.546875 24.265625 
Q 21.140625 25.734375 20.3125 27.65625 
Q 19.484375 29.59375 19.484375 31.734375 
z
M 96.484375 21.046875 
Q 95.796875 15.765625 93.328125 11.296875 
Q 90.875 6.84375 87.140625 3.546875 
Q 83.40625 0.25 78.640625 -1.609375 
Q 73.875 -3.46875 68.609375 -3.46875 
Q 63.328125 -3.46875 58.5625 -1.609375 
Q 53.8125 0.25 50.09375 3.546875 
Q 46.390625 6.84375 43.9375 11.328125 
Q 41.5 15.828125 40.828125 21.046875 
z
M 56.34375 3.328125 
Q 59.125 1.703125 62.28125 0.84375 
Q 65.4375 0 68.65625 0 
Q 71.875 0 75 0.84375 
Q 78.125 1.703125 80.90625 3.328125 
Q 79.984375 4.984375 78.65625 6.328125 
Q 77.34375 7.671875 75.75 8.59375 
Q 74.171875 9.515625 72.359375 10.03125 
Q 70.5625 10.546875 68.65625 10.546875 
Q 66.75 10.546875 64.9375 10.03125 
Q 63.140625 9.515625 61.515625 8.59375 
Q 59.90625 7.671875 58.59375 6.328125 
Q 57.28125 4.984375 56.34375 3.328125 
z
" id="SegoeUIEmoji-1f602"/>
      </defs>
      <g transform="translate(152.954875 531.485)scale(0.16 -0.16)">
       <use xlink:href="#SegoeUIEmoji-1f602"/>
      </g>
     </g>
    </g>
    <g id="xtick_2">
     <g id="line2d_2">
      <g>
       <use style="stroke:#000000;stroke-width:0.8;" x="225.397403" xlink:href="#mf5bb1ea01c" y="512.64"/>
      </g>
     </g>
     <g id="text_2">
      <!-- ðŸ˜­ -->
      <defs>
       <path d="M 124.8125 35.109375 
Q 124.8125 29.59375 123.734375 24.21875 
Q 122.65625 18.84375 120.609375 13.84375 
Q 118.5625 8.84375 115.546875 4.265625 
Q 112.546875 -0.296875 108.6875 -4.25 
Q 109.71875 -5.609375 110.234375 -7.203125 
Q 110.75 -8.796875 110.75 -10.5 
Q 110.75 -12.703125 109.90625 -14.59375 
Q 109.078125 -16.5 107.65625 -17.9375 
Q 106.25 -19.390625 104.34375 -20.21875 
Q 102.4375 -21.046875 100.25 -21.046875 
L 37.0625 -21.046875 
Q 34.859375 -21.046875 32.953125 -20.21875 
Q 31.0625 -19.390625 29.609375 -17.9375 
Q 28.171875 -16.5 27.34375 -14.59375 
Q 26.515625 -12.703125 26.515625 -10.5 
Q 26.515625 -7.03125 28.609375 -4.25 
Q 24.75 -0.34375 21.75 4.25 
Q 18.75 8.84375 16.703125 13.84375 
Q 14.65625 18.84375 13.578125 24.21875 
Q 12.5 29.59375 12.5 35.109375 
Q 12.5 42.828125 14.5 50 
Q 16.5 57.171875 20.15625 63.421875 
Q 23.828125 69.671875 28.953125 74.796875 
Q 34.078125 79.9375 40.328125 83.59375 
Q 46.578125 87.25 53.734375 89.25 
Q 60.890625 91.265625 68.65625 91.265625 
Q 76.375 91.265625 83.546875 89.25 
Q 90.71875 87.25 96.96875 83.59375 
Q 103.21875 79.9375 108.34375 74.796875 
Q 113.484375 69.671875 117.140625 63.421875 
Q 120.796875 57.171875 122.796875 50 
Q 124.8125 42.828125 124.8125 35.109375 
z
M 54.59375 3.515625 
L 54.59375 -6.984375 
L 82.671875 -6.984375 
L 82.671875 3.515625 
z
M 55.03125 7.03125 
L 82.234375 7.03125 
Q 81.640625 9.375 80.34375 11.296875 
Q 79.046875 13.234375 77.234375 14.625 
Q 75.4375 16.015625 73.234375 16.796875 
Q 71.046875 17.578125 68.65625 17.578125 
Q 66.265625 17.578125 64.0625 16.796875 
Q 61.859375 16.015625 60.046875 14.625 
Q 58.25 13.234375 56.921875 11.296875 
Q 55.609375 9.375 55.03125 7.03125 
z
M 96.734375 -5.21875 
Q 101.703125 -1.765625 105.609375 2.703125 
Q 109.515625 7.171875 112.21875 12.34375 
Q 114.9375 17.53125 116.359375 23.28125 
Q 117.78125 29.046875 117.78125 35.109375 
Q 117.78125 41.890625 116.015625 48.15625 
Q 114.265625 54.4375 111.0625 59.90625 
Q 107.859375 65.375 103.390625 69.84375 
Q 98.921875 74.3125 93.453125 77.515625 
Q 87.984375 80.71875 81.703125 82.46875 
Q 75.4375 84.234375 68.65625 84.234375 
Q 61.859375 84.234375 55.578125 82.46875 
Q 49.3125 80.71875 43.84375 77.515625 
Q 38.375 74.3125 33.90625 69.84375 
Q 29.4375 65.375 26.234375 59.90625 
Q 23.046875 54.4375 21.28125 48.15625 
Q 19.53125 41.890625 19.53125 35.109375 
Q 19.53125 29.046875 20.9375 23.28125 
Q 22.359375 17.53125 25.0625 12.34375 
Q 27.78125 7.171875 31.6875 2.703125 
Q 35.59375 -1.765625 40.578125 -5.21875 
L 40.578125 35.109375 
Q 40.578125 36.578125 41.59375 37.59375 
Q 42.625 38.625 44.09375 38.625 
L 47.953125 38.625 
Q 50.203125 38.625 51.515625 38.46875 
Q 52.828125 38.328125 53.515625 37.734375 
Q 54.203125 37.15625 54.390625 36 
Q 54.59375 34.859375 54.59375 32.8125 
L 54.59375 27.828125 
Q 57.8125 29.6875 61.375 30.640625 
Q 64.9375 31.59375 68.65625 31.59375 
Q 72.3125 31.59375 75.875 30.640625 
Q 79.4375 29.6875 82.671875 27.828125 
L 82.671875 35.109375 
Q 82.671875 36.53125 83.71875 37.578125 
Q 84.765625 38.625 86.1875 38.625 
L 93.21875 38.625 
Q 94.671875 38.625 95.703125 37.59375 
Q 96.734375 36.578125 96.734375 35.109375 
z
M 58.15625 65.671875 
Q 58.15625 64.40625 57.234375 63.328125 
Q 55.078125 60.796875 52.34375 58.78125 
Q 49.609375 56.78125 46.53125 55.40625 
Q 43.453125 54.046875 40.125 53.34375 
Q 36.8125 52.640625 33.546875 52.640625 
Q 32.125 52.640625 31.078125 53.6875 
Q 30.03125 54.734375 30.03125 56.15625 
Q 30.03125 57.625 31.046875 58.640625 
Q 32.078125 59.671875 33.546875 59.671875 
Q 39.15625 59.671875 43.671875 61.84375 
Q 48.1875 64.015625 52 67.96875 
Q 53.125 69.1875 54.640625 69.1875 
Q 56.0625 69.1875 57.109375 68.140625 
Q 58.15625 67.09375 58.15625 65.671875 
z
M 82.71875 69.1875 
Q 84.125 69.1875 85.296875 68.015625 
Q 89.203125 64.015625 93.625 61.84375 
Q 98.046875 59.671875 103.765625 59.671875 
Q 105.171875 59.671875 106.21875 58.609375 
Q 107.28125 57.5625 107.28125 56.15625 
Q 107.28125 54.734375 106.21875 53.6875 
Q 105.171875 52.640625 103.765625 52.640625 
Q 100.484375 52.640625 97.15625 53.34375 
Q 93.84375 54.046875 90.765625 55.40625 
Q 87.703125 56.78125 84.9375 58.78125 
Q 82.171875 60.796875 80.078125 63.328125 
Q 79.15625 64.40625 79.15625 65.671875 
Q 79.15625 67.140625 80.203125 68.15625 
Q 81.25 69.1875 82.71875 69.1875 
z
M 89.703125 49.125 
Q 91.890625 49.125 93.796875 48.296875 
Q 95.703125 47.46875 97.140625 46.046875 
Q 98.578125 44.625 99.40625 42.71875 
Q 100.25 40.828125 100.25 38.625 
L 96.734375 38.625 
Q 96.734375 40.09375 95.703125 41.109375 
Q 94.671875 42.140625 93.21875 42.140625 
L 82.671875 42.140625 
Q 81.203125 42.140625 80.203125 41.09375 
Q 79.203125 40.046875 79.203125 38.625 
L 75.6875 38.625 
Q 75.6875 40.828125 76.515625 42.71875 
Q 77.34375 44.625 78.75 46.046875 
Q 80.171875 47.46875 82.078125 48.296875 
Q 83.984375 49.125 86.1875 49.125 
z
M 51.125 49.125 
Q 53.328125 49.125 55.21875 48.296875 
Q 57.125 47.46875 58.546875 46.046875 
Q 59.96875 44.625 60.796875 42.71875 
Q 61.625 40.828125 61.625 38.625 
L 58.109375 38.625 
Q 58.109375 40.09375 57.078125 41.109375 
Q 56.0625 42.140625 54.59375 42.140625 
L 44.09375 42.140625 
Q 42.625 42.140625 41.59375 41.109375 
Q 40.578125 40.09375 40.578125 38.625 
L 37.0625 38.625 
Q 37.0625 40.828125 37.890625 42.71875 
Q 38.71875 44.625 40.15625 46.046875 
Q 41.609375 47.46875 43.5 48.296875 
Q 45.40625 49.125 47.609375 49.125 
z
" id="SegoeUIEmoji-1f62d"/>
      </defs>
      <g transform="translate(215.069903 531.485)scale(0.16 -0.16)">
       <use xlink:href="#SegoeUIEmoji-1f62d"/>
      </g>
     </g>
    </g>
    <g id="xtick_3">
     <g id="line2d_3">
      <g>
       <use style="stroke:#000000;stroke-width:0.8;" x="287.51243" xlink:href="#mf5bb1ea01c" y="512.64"/>
      </g>
     </g>
     <g id="text_3">
      <!-- ðŸ˜ -->
      <defs>
       <path d="M 121.046875 55.375 
Q 122.90625 50.484375 123.859375 45.40625 
Q 124.8125 40.328125 124.8125 35.109375 
Q 124.8125 27.34375 122.796875 20.15625 
Q 120.796875 12.984375 117.140625 6.75 
Q 113.484375 0.53125 108.34375 -4.59375 
Q 103.21875 -9.71875 96.984375 -13.375 
Q 90.765625 -17.046875 83.59375 -19.046875 
Q 76.421875 -21.046875 68.65625 -21.046875 
Q 60.890625 -21.046875 53.703125 -19.046875 
Q 46.53125 -17.046875 40.296875 -13.375 
Q 34.078125 -9.71875 28.953125 -4.59375 
Q 23.828125 0.53125 20.15625 6.75 
Q 16.5 12.984375 14.5 20.15625 
Q 12.5 27.34375 12.5 35.109375 
Q 12.5 40.328125 13.453125 45.40625 
Q 14.40625 50.484375 16.265625 55.375 
Q 16.75 52.9375 17.921875 50.75 
Q 19.09375 48.578125 20.953125 46.921875 
Q 19.53125 41.015625 19.53125 35.109375 
Q 19.53125 28.328125 21.28125 22.046875 
Q 23.046875 15.765625 26.234375 10.296875 
Q 29.4375 4.828125 33.90625 0.328125 
Q 38.375 -4.15625 43.84375 -7.34375 
Q 49.3125 -10.546875 55.578125 -12.296875 
Q 61.859375 -14.0625 68.65625 -14.0625 
Q 75.4375 -14.0625 81.703125 -12.296875 
Q 87.984375 -10.546875 93.453125 -7.34375 
Q 98.921875 -4.15625 103.390625 0.328125 
Q 107.859375 4.828125 111.0625 10.296875 
Q 114.265625 15.765625 116.015625 22.046875 
Q 117.78125 28.328125 117.78125 35.109375 
Q 117.78125 41.015625 116.359375 46.921875 
Q 118.21875 48.578125 119.390625 50.75 
Q 120.5625 52.9375 121.046875 55.375 
z
M 95.609375 64.890625 
Q 96.78125 66.0625 97.875 67.03125 
Q 98.96875 68.015625 100.171875 68.71875 
Q 101.375 69.4375 102.765625 69.828125 
Q 104.15625 70.21875 105.859375 70.21875 
Q 108.34375 70.21875 110.515625 69.265625 
Q 112.703125 68.3125 114.3125 66.703125 
Q 115.921875 65.09375 116.875 62.921875 
Q 117.828125 60.75 117.828125 58.25 
Q 117.828125 55.859375 116.921875 53.6875 
Q 116.015625 51.515625 114.3125 49.8125 
L 95.609375 31.15625 
L 76.953125 49.8125 
Q 75.25 51.515625 74.359375 53.703125 
Q 73.484375 55.90625 73.484375 58.25 
Q 73.484375 60.75 74.40625 62.921875 
Q 75.34375 65.09375 76.953125 66.703125 
Q 78.5625 68.3125 80.734375 69.265625 
Q 82.90625 70.21875 85.40625 70.21875 
Q 87.15625 70.21875 88.515625 69.828125 
Q 89.890625 69.4375 91.078125 68.71875 
Q 92.28125 68.015625 93.359375 67.03125 
Q 94.4375 66.0625 95.609375 64.890625 
z
M 19.53125 58.25 
Q 19.53125 60.75 20.453125 62.921875 
Q 21.390625 65.09375 23 66.703125 
Q 24.609375 68.3125 26.78125 69.265625 
Q 28.953125 70.21875 31.453125 70.21875 
Q 33.203125 70.21875 34.5625 69.828125 
Q 35.9375 69.4375 37.125 68.71875 
Q 38.328125 68.015625 39.40625 67.03125 
Q 40.484375 66.0625 41.65625 64.890625 
Q 42.828125 66.0625 43.890625 67.03125 
Q 44.96875 68.015625 46.1875 68.71875 
Q 47.40625 69.4375 48.765625 69.828125 
Q 50.140625 70.21875 51.90625 70.21875 
Q 54.390625 70.21875 56.5625 69.265625 
Q 58.734375 68.3125 60.34375 66.703125 
Q 61.96875 65.09375 62.890625 62.921875 
Q 63.8125 60.75 63.8125 58.25 
Q 63.8125 55.8125 62.9375 53.65625 
Q 62.0625 51.515625 60.359375 49.8125 
L 41.65625 31.15625 
L 23 49.8125 
Q 21.34375 51.46875 20.4375 53.6875 
Q 19.53125 55.90625 19.53125 58.25 
z
M 68.65625 -7.03125 
Q 63.28125 -7.03125 58.203125 -5.203125 
Q 53.125 -3.375 48.96875 -0.09375 
Q 44.828125 3.171875 41.890625 7.65625 
Q 38.96875 12.15625 37.890625 17.53125 
L 99.421875 17.53125 
Q 98.296875 12.203125 95.359375 7.6875 
Q 92.4375 3.171875 88.3125 -0.09375 
Q 84.1875 -3.375 79.125 -5.203125 
Q 74.078125 -7.03125 68.65625 -7.03125 
z
M 37.015625 72.65625 
Q 34.421875 73.734375 31.453125 73.734375 
Q 29.34375 73.734375 27.390625 73.140625 
Q 31.390625 77.484375 36.125 80.859375 
Q 40.875 84.234375 46.140625 86.546875 
Q 51.421875 88.875 57.078125 90.0625 
Q 62.75 91.265625 68.65625 91.265625 
Q 74.5625 91.265625 80.25 90.03125 
Q 85.9375 88.8125 91.203125 86.5 
Q 96.484375 84.1875 101.21875 80.8125 
Q 105.953125 77.4375 109.96875 73.140625 
Q 107.953125 73.734375 105.859375 73.734375 
Q 102.875 73.734375 100.296875 72.65625 
Q 93.5625 78.265625 85.5 81.25 
Q 77.4375 84.234375 68.65625 84.234375 
Q 59.859375 84.234375 51.796875 81.25 
Q 43.75 78.265625 37.015625 72.65625 
z
M 68.65625 3.375 
Q 65.71875 3.375 63.328125 1.921875 
Q 60.9375 0.484375 59.515625 -2 
Q 61.71875 -2.734375 64.015625 -3.125 
Q 66.3125 -3.515625 68.65625 -3.515625 
Q 71 -3.515625 73.296875 -3.125 
Q 75.59375 -2.734375 77.78125 -2 
Q 76.375 0.484375 73.96875 1.921875 
Q 71.578125 3.375 68.65625 3.375 
z
" id="SegoeUIEmoji-1f60d"/>
      </defs>
      <g transform="translate(277.18493 531.485)scale(0.16 -0.16)">
       <use xlink:href="#SegoeUIEmoji-1f60d"/>
      </g>
     </g>
    </g>
    <g id="xtick_4">
     <g id="line2d_4">
      <g>
       <use style="stroke:#000000;stroke-width:0.8;" x="349.627458" xlink:href="#mf5bb1ea01c" y="512.64"/>
      </g>
     </g>
     <g id="text_4">
      <!-- ðŸ’• -->
      <defs>
       <path d="M 100.390625 77.203125 
Q 105.421875 77.203125 109.890625 75.296875 
Q 114.359375 73.390625 117.65625 70.09375 
Q 120.953125 66.796875 122.875 62.34375 
Q 124.8125 57.90625 124.8125 52.828125 
Q 124.8125 47.796875 122.96875 43.53125 
Q 121.140625 39.265625 117.671875 35.59375 
Q 114.84375 32.5625 111.890625 29.6875 
Q 108.9375 26.8125 106 23.875 
Q 100.140625 18.015625 94.359375 12.203125 
Q 88.578125 6.390625 82.671875 0.640625 
L 75.6875 7.625 
L 54.59375 -13.421875 
Q 48.828125 -7.515625 43.015625 -1.734375 
Q 37.203125 4.046875 31.34375 9.90625 
Q 28.421875 12.84375 25.46875 15.671875 
Q 22.515625 18.5 19.625 21.53125 
Q 16.21875 25.140625 14.359375 29.4375 
Q 12.5 33.734375 12.5 38.765625 
Q 12.5 43.796875 14.40625 48.234375 
Q 16.3125 52.6875 19.609375 55.984375 
Q 22.90625 59.28125 27.3125 61.203125 
Q 31.734375 63.140625 36.765625 63.140625 
Q 39.59375 63.140625 42.578125 62.453125 
Q 43.953125 65.828125 46.265625 68.53125 
Q 48.578125 71.234375 51.53125 73.15625 
Q 54.5 75.09375 57.90625 76.140625 
Q 61.328125 77.203125 64.9375 77.203125 
Q 67.328125 77.203125 69.796875 76.6875 
Q 72.265625 76.171875 74.578125 75.1875 
Q 76.90625 74.21875 78.984375 72.796875 
Q 81.0625 71.390625 82.671875 69.578125 
Q 86.328125 73.25 90.75 75.21875 
Q 95.171875 77.203125 100.390625 77.203125 
z
M 36.859375 56.15625 
Q 33.25 56.15625 30.09375 54.78125 
Q 26.953125 53.421875 24.609375 51.046875 
Q 22.265625 48.6875 20.890625 45.5 
Q 19.53125 42.328125 19.53125 38.765625 
Q 19.53125 35.25 20.828125 32.125 
Q 22.125 29 24.609375 26.515625 
L 54.59375 -3.515625 
L 84.625 26.515625 
Q 87.109375 29 88.40625 32.125 
Q 89.703125 35.25 89.703125 38.765625 
Q 89.703125 42.390625 88.328125 45.5625 
Q 86.96875 48.734375 84.625 51.078125 
Q 82.28125 53.421875 79.09375 54.78125 
Q 75.921875 56.15625 72.3125 56.15625 
Q 69.140625 56.15625 66.75 55.265625 
Q 64.359375 54.390625 62.359375 52.921875 
Q 60.359375 51.46875 58.5 49.5625 
Q 56.640625 47.65625 54.59375 45.65625 
Q 52.546875 47.703125 50.703125 49.609375 
Q 48.875 51.515625 46.875 52.96875 
Q 44.875 54.4375 42.484375 55.296875 
Q 40.09375 56.15625 36.859375 56.15625 
z
M 78.171875 15.09375 
L 82.671875 10.546875 
L 112.703125 40.53125 
Q 115.1875 43.015625 116.484375 46.15625 
Q 117.78125 49.3125 117.78125 52.828125 
Q 117.78125 56.390625 116.40625 59.5625 
Q 115.046875 62.75 112.703125 65.09375 
Q 110.359375 67.4375 107.171875 68.796875 
Q 104 70.171875 100.4375 70.171875 
Q 97.265625 70.171875 94.84375 69.28125 
Q 92.4375 68.40625 90.40625 66.96875 
Q 88.375 65.53125 86.546875 63.625 
Q 84.71875 61.71875 82.671875 59.671875 
L 81.203125 61.1875 
Q 79.4375 62.984375 77.734375 64.625 
Q 76.03125 66.265625 74.125 67.5 
Q 72.21875 68.75 69.96875 69.453125 
Q 67.71875 70.171875 64.84375 70.171875 
Q 61.03125 70.171875 57.828125 68.671875 
Q 54.640625 67.1875 52.09375 64.40625 
Q 51.46875 63.71875 50.75 62.734375 
Q 50.046875 61.765625 49.453125 60.671875 
Q 48.875 59.578125 48.453125 58.453125 
Q 48.046875 57.328125 48 56.453125 
Q 49.90625 55.328125 51.46875 53.734375 
Q 53.03125 52.15625 54.59375 50.59375 
Q 56.59375 52.640625 58.46875 54.3125 
Q 60.359375 56 62.421875 57.171875 
Q 64.5 58.34375 66.890625 59 
Q 69.28125 59.671875 72.3125 59.671875 
Q 76.65625 59.671875 80.46875 58.03125 
Q 84.28125 56.390625 87.109375 53.5625 
Q 89.9375 50.734375 91.578125 46.921875 
Q 93.21875 43.109375 93.21875 38.765625 
Q 93.21875 34.578125 91.625 30.765625 
Q 90.046875 26.953125 87.109375 24.03125 
z
" id="SegoeUIEmoji-1f495"/>
      </defs>
      <g transform="translate(339.299958 531.485)scale(0.16 -0.16)">
       <use xlink:href="#SegoeUIEmoji-1f495"/>
      </g>
     </g>
    </g>
    <g id="xtick_5">
     <g id="line2d_5">
      <g>
       <use style="stroke:#000000;stroke-width:0.8;" x="411.742486" xlink:href="#mf5bb1ea01c" y="512.64"/>
      </g>
     </g>
     <g id="text_5">
      <!-- ðŸ™„ -->
      <defs>
       <path d="M 49.359375 24.5625 
Q 45.359375 24.5625 41.84375 26.078125 
Q 38.328125 27.59375 35.6875 30.21875 
Q 33.0625 32.859375 31.546875 36.375 
Q 30.03125 39.890625 30.03125 43.890625 
Q 30.03125 47.90625 31.546875 51.421875 
Q 33.0625 54.9375 35.6875 57.546875 
Q 38.328125 60.15625 41.84375 61.671875 
Q 45.359375 63.1875 49.359375 63.1875 
Q 53.375 63.1875 56.890625 61.671875 
Q 60.40625 60.15625 63.015625 57.546875 
Q 65.625 54.9375 67.140625 51.421875 
Q 68.65625 47.90625 68.65625 43.890625 
Q 68.65625 39.890625 67.140625 36.375 
Q 65.625 32.859375 63.015625 30.21875 
Q 60.40625 27.59375 56.890625 26.078125 
Q 53.375 24.5625 49.359375 24.5625 
z
M 87.9375 63.1875 
Q 91.9375 63.1875 95.453125 61.671875 
Q 98.96875 60.15625 101.609375 57.546875 
Q 104.25 54.9375 105.765625 51.421875 
Q 107.28125 47.90625 107.28125 43.890625 
Q 107.28125 39.890625 105.765625 36.375 
Q 104.25 32.859375 101.609375 30.21875 
Q 98.96875 27.59375 95.453125 26.078125 
Q 91.9375 24.5625 87.9375 24.5625 
Q 83.9375 24.5625 80.421875 26.078125 
Q 76.90625 27.59375 74.296875 30.21875 
Q 71.6875 32.859375 70.171875 36.375 
Q 68.65625 39.890625 68.65625 43.890625 
Q 68.65625 47.90625 70.171875 51.421875 
Q 71.6875 54.9375 74.296875 57.546875 
Q 76.90625 60.15625 80.421875 61.671875 
Q 83.9375 63.1875 87.9375 63.1875 
z
M 65.140625 43.453125 
Q 65.140625 47.125 63.8125 50.25 
Q 62.5 53.375 59.71875 55.8125 
Q 59.71875 54.4375 59.328125 53.21875 
Q 58.9375 52 58.15625 51.09375 
Q 57.375 50.203125 56.25 49.65625 
Q 55.125 49.125 53.65625 49.125 
Q 52.390625 49.125 51.296875 49.609375 
Q 50.203125 50.09375 49.390625 50.921875 
Q 48.578125 51.765625 48.09375 52.859375 
Q 47.609375 53.953125 47.609375 55.21875 
Q 47.609375 57.859375 49.5625 59.671875 
Q 46.390625 59.671875 43.484375 58.5 
Q 40.578125 57.328125 38.375 55.25 
Q 36.1875 53.171875 34.859375 50.359375 
Q 33.546875 47.5625 33.546875 44.28125 
Q 33.546875 40.921875 34.734375 37.96875 
Q 35.9375 35.015625 38.0625 32.8125 
Q 40.1875 30.609375 43.0625 29.34375 
Q 45.953125 28.078125 49.359375 28.078125 
Q 52.484375 28.078125 55.34375 29.296875 
Q 58.203125 30.515625 60.375 32.59375 
Q 62.546875 34.671875 63.84375 37.46875 
Q 65.140625 40.28125 65.140625 43.453125 
z
M 103.765625 43.453125 
Q 103.765625 47.125 102.421875 50.25 
Q 101.078125 53.375 98.296875 55.8125 
Q 98.296875 55.671875 98.3125 55.515625 
Q 98.34375 55.375 98.34375 55.21875 
Q 98.34375 53.953125 97.875 52.859375 
Q 97.40625 51.765625 96.578125 50.921875 
Q 95.75 50.09375 94.65625 49.609375 
Q 93.5625 49.125 92.28125 49.125 
Q 91.015625 49.125 89.90625 49.609375 
Q 88.8125 50.09375 87.984375 50.921875 
Q 87.15625 51.765625 86.671875 52.859375 
Q 86.1875 53.953125 86.1875 55.21875 
Q 86.1875 56.5 86.671875 57.640625 
Q 87.15625 58.796875 88.140625 59.625 
Q 84.96875 59.515625 82.078125 58.34375 
Q 79.203125 57.171875 77 55.125 
Q 74.8125 53.078125 73.484375 50.296875 
Q 72.171875 47.515625 72.171875 44.28125 
Q 72.171875 40.96875 73.359375 38.015625 
Q 74.5625 35.0625 76.6875 32.859375 
Q 78.8125 30.671875 81.6875 29.375 
Q 84.578125 28.078125 87.9375 28.078125 
Q 91.0625 28.078125 93.921875 29.265625 
Q 96.78125 30.46875 98.96875 32.5625 
Q 101.171875 34.671875 102.46875 37.46875 
Q 103.765625 40.28125 103.765625 43.453125 
z
M 79.203125 10.546875 
Q 80.609375 10.546875 81.640625 9.5 
Q 82.671875 8.453125 82.671875 7.03125 
Q 82.671875 5.609375 81.640625 4.5625 
Q 80.609375 3.515625 79.203125 3.515625 
L 58.109375 3.515625 
Q 56.6875 3.515625 55.640625 4.5625 
Q 54.59375 5.609375 54.59375 7.03125 
Q 54.59375 8.453125 55.640625 9.5 
Q 56.6875 10.546875 58.109375 10.546875 
z
M 68.65625 91.265625 
Q 76.421875 91.265625 83.59375 89.25 
Q 90.765625 87.25 96.984375 83.59375 
Q 103.21875 79.9375 108.34375 74.796875 
Q 113.484375 69.671875 117.140625 63.453125 
Q 120.796875 57.234375 122.796875 50.046875 
Q 124.8125 42.875 124.8125 35.109375 
Q 124.8125 27.34375 122.796875 20.15625 
Q 120.796875 12.984375 117.140625 6.75 
Q 113.484375 0.53125 108.34375 -4.59375 
Q 103.21875 -9.71875 96.984375 -13.375 
Q 90.765625 -17.046875 83.59375 -19.046875 
Q 76.421875 -21.046875 68.65625 -21.046875 
Q 60.890625 -21.046875 53.703125 -19.046875 
Q 46.53125 -17.046875 40.296875 -13.375 
Q 34.078125 -9.71875 28.953125 -4.59375 
Q 23.828125 0.53125 20.15625 6.75 
Q 16.5 12.984375 14.5 20.15625 
Q 12.5 27.34375 12.5 35.109375 
Q 12.5 42.875 14.5 50.046875 
Q 16.5 57.234375 20.15625 63.453125 
Q 23.828125 69.671875 28.953125 74.796875 
Q 34.078125 79.9375 40.296875 83.59375 
Q 46.53125 87.25 53.703125 89.25 
Q 60.890625 91.265625 68.65625 91.265625 
z
M 68.65625 -14.015625 
Q 75.4375 -14.015625 81.703125 -12.25 
Q 87.984375 -10.5 93.453125 -7.296875 
Q 98.921875 -4.109375 103.390625 0.359375 
Q 107.859375 4.828125 111.0625 10.296875 
Q 114.265625 15.765625 116.015625 22.046875 
Q 117.78125 28.328125 117.78125 35.109375 
Q 117.78125 41.890625 116.015625 48.15625 
Q 114.265625 54.4375 111.0625 59.90625 
Q 107.859375 65.375 103.390625 69.84375 
Q 98.921875 74.3125 93.453125 77.515625 
Q 87.984375 80.71875 81.703125 82.46875 
Q 75.4375 84.234375 68.65625 84.234375 
Q 61.859375 84.234375 55.578125 82.46875 
Q 49.3125 80.71875 43.84375 77.515625 
Q 38.375 74.3125 33.90625 69.84375 
Q 29.4375 65.375 26.234375 59.90625 
Q 23.046875 54.4375 21.28125 48.15625 
Q 19.53125 41.890625 19.53125 35.109375 
Q 19.53125 28.328125 21.28125 22.046875 
Q 23.046875 15.765625 26.234375 10.296875 
Q 29.4375 4.828125 33.90625 0.359375 
Q 38.375 -4.109375 43.84375 -7.296875 
Q 49.3125 -10.5 55.578125 -12.25 
Q 61.859375 -14.015625 68.65625 -14.015625 
z
" id="SegoeUIEmoji-1f644"/>
      </defs>
      <g transform="translate(401.414986 531.485)scale(0.16 -0.16)">
       <use xlink:href="#SegoeUIEmoji-1f644"/>
      </g>
     </g>
    </g>
    <g id="xtick_6">
     <g id="line2d_6">
      <g>
       <use style="stroke:#000000;stroke-width:0.8;" x="473.857514" xlink:href="#mf5bb1ea01c" y="512.64"/>
      </g>
     </g>
     <g id="text_6">
      <!-- â¤ -->
      <defs>
       <path d="M 92.96875 84.234375 
Q 97.359375 84.234375 101.40625 83.078125 
Q 105.46875 81.9375 109 79.859375 
Q 112.546875 77.78125 115.453125 74.875 
Q 118.359375 71.96875 120.4375 68.421875 
Q 122.515625 64.890625 123.65625 60.828125 
Q 124.8125 56.78125 124.8125 52.390625 
Q 124.8125 45.90625 122.4375 40.1875 
Q 120.0625 34.46875 115.484375 29.890625 
L 68.65625 -16.9375 
L 21.828125 29.890625 
Q 17.234375 34.46875 14.859375 40.1875 
Q 12.5 45.90625 12.5 52.390625 
Q 12.5 56.78125 13.640625 60.859375 
Q 14.796875 64.9375 16.84375 68.453125 
Q 18.890625 71.96875 21.8125 74.890625 
Q 24.75 77.828125 28.265625 79.875 
Q 31.78125 81.9375 35.859375 83.078125 
Q 39.9375 84.234375 44.34375 84.234375 
Q 48.09375 84.234375 51.40625 83.46875 
Q 54.734375 82.71875 57.6875 81.296875 
Q 60.640625 79.890625 63.34375 77.8125 
Q 66.0625 75.734375 68.65625 73.09375 
Q 71.234375 75.734375 73.9375 77.8125 
Q 76.65625 79.890625 79.609375 81.328125 
Q 82.5625 82.765625 85.875 83.5 
Q 89.203125 84.234375 92.96875 84.234375 
z
M 68.65625 -7.03125 
L 110.5 34.859375 
Q 114.015625 38.375 115.890625 42.890625 
Q 117.78125 47.40625 117.78125 52.390625 
Q 117.78125 57.515625 115.828125 62.03125 
Q 113.875 66.546875 110.5 69.921875 
Q 107.125 73.296875 102.609375 75.25 
Q 98.09375 77.203125 92.96875 77.203125 
Q 88.96875 77.203125 85.84375 76.21875 
Q 82.71875 75.25 80.078125 73.5625 
Q 77.4375 71.875 75.0625 69.59375 
Q 72.703125 67.328125 70.21875 64.796875 
L 68.65625 63.1875 
L 67.234375 64.65625 
Q 64.75 67.234375 62.359375 69.5 
Q 59.96875 71.78125 57.296875 73.484375 
Q 54.640625 75.203125 51.484375 76.203125 
Q 48.34375 77.203125 44.34375 77.203125 
Q 39.203125 77.203125 34.6875 75.25 
Q 30.171875 73.296875 26.796875 69.921875 
Q 23.4375 66.546875 21.484375 62.03125 
Q 19.53125 57.515625 19.53125 52.390625 
Q 19.53125 47.40625 21.40625 42.890625 
Q 23.296875 38.375 26.8125 34.859375 
z
" id="SegoeUIEmoji-2764"/>
      </defs>
      <g transform="translate(462.872514 532.1475)scale(0.16 -0.16)">
       <use xlink:href="#SegoeUIEmoji-2764"/>
      </g>
     </g>
    </g>
    <g id="xtick_7">
     <g id="line2d_7">
      <g>
       <use style="stroke:#000000;stroke-width:0.8;" x="535.972542" xlink:href="#mf5bb1ea01c" y="512.64"/>
      </g>
     </g>
     <g id="text_7">
      <!-- ðŸ˜Š -->
      <defs>
       <path d="M 87.9375 47.40625 
Q 86.078125 47.40625 84.484375 46.71875 
Q 82.90625 46.046875 81.734375 44.84375 
Q 80.5625 43.65625 79.875 42.046875 
Q 79.203125 40.4375 79.203125 38.625 
L 75.6875 38.625 
L 75.6875 40.375 
Q 75.6875 42.921875 76.640625 45.15625 
Q 77.59375 47.40625 79.25 49.0625 
Q 80.90625 50.734375 83.125 51.6875 
Q 85.359375 52.640625 87.9375 52.640625 
Q 90.484375 52.640625 92.71875 51.6875 
Q 94.96875 50.734375 96.625 49.0625 
Q 98.296875 47.40625 99.265625 45.15625 
Q 100.25 42.921875 100.25 40.375 
L 100.25 38.625 
L 96.734375 38.625 
Q 96.734375 40.4375 96.046875 42.046875 
Q 95.359375 43.65625 94.15625 44.84375 
Q 92.96875 46.046875 91.359375 46.71875 
Q 89.75 47.40625 87.9375 47.40625 
z
M 49.359375 47.40625 
Q 47.515625 47.40625 45.921875 46.71875 
Q 44.34375 46.046875 43.140625 44.84375 
Q 41.9375 43.65625 41.25 42.046875 
Q 40.578125 40.4375 40.578125 38.625 
L 37.0625 38.625 
L 37.0625 40.375 
Q 37.0625 42.921875 38.03125 45.15625 
Q 39.015625 47.40625 40.671875 49.0625 
Q 42.328125 50.734375 44.578125 51.6875 
Q 46.828125 52.640625 49.359375 52.640625 
Q 51.90625 52.640625 54.140625 51.6875 
Q 56.390625 50.734375 58.046875 49.0625 
Q 59.71875 47.40625 60.671875 45.15625 
Q 61.625 42.921875 61.625 40.375 
L 61.625 38.625 
L 58.109375 38.625 
Q 58.109375 40.4375 57.421875 42.046875 
Q 56.734375 43.65625 55.5625 44.84375 
Q 54.390625 46.046875 52.78125 46.71875 
Q 51.171875 47.40625 49.359375 47.40625 
z
M 54.203125 21.625 
Q 52.9375 23.484375 51.484375 24.734375 
Q 50.046875 25.984375 47.609375 25.984375 
Q 46.625 25.984375 45.71875 25.703125 
Q 44.828125 25.4375 44 24.953125 
Q 42.390625 23.96875 41.484375 22.40625 
Q 40.578125 20.84375 40.578125 19 
Q 40.578125 17.671875 41.0625 16.5 
Q 41.546875 15.328125 42.28125 14.203125 
Q 40.4375 14.5 38.8125 15.453125 
Q 37.203125 16.40625 36.03125 17.796875 
Q 34.859375 19.1875 34.203125 20.921875 
Q 33.546875 22.65625 33.546875 24.5625 
Q 33.546875 26.765625 34.375 28.65625 
Q 35.203125 30.5625 36.640625 32 
Q 38.09375 33.453125 39.984375 34.28125 
Q 41.890625 35.109375 44.09375 35.109375 
Q 46.296875 35.109375 48.1875 34.28125 
Q 50.09375 33.453125 51.515625 32 
Q 52.9375 30.5625 53.765625 28.65625 
Q 54.59375 26.765625 54.59375 24.5625 
Q 54.59375 23.828125 54.515625 23.0625 
Q 54.4375 22.3125 54.203125 21.625 
z
M 93.21875 35.109375 
Q 95.40625 35.109375 97.3125 34.28125 
Q 99.21875 33.453125 100.65625 32 
Q 102.09375 30.5625 102.921875 28.65625 
Q 103.765625 26.765625 103.765625 24.5625 
Q 103.765625 22.65625 103.09375 20.890625 
Q 102.4375 19.140625 101.265625 17.75 
Q 100.09375 16.359375 98.484375 15.421875 
Q 96.875 14.5 94.96875 14.203125 
Q 95.75 15.328125 96.21875 16.375 
Q 96.6875 17.4375 96.6875 18.84375 
Q 96.6875 20.3125 96.140625 21.625 
Q 95.609375 22.953125 94.65625 23.90625 
Q 93.703125 24.859375 92.40625 25.421875 
Q 91.109375 25.984375 89.65625 25.984375 
Q 88.375 25.984375 87.453125 25.65625 
Q 86.53125 25.34375 85.765625 24.78125 
Q 85.015625 24.21875 84.375 23.4375 
Q 83.734375 22.65625 83.109375 21.6875 
Q 82.671875 23.046875 82.671875 24.5625 
Q 82.671875 26.765625 83.5 28.65625 
Q 84.328125 30.5625 85.765625 32 
Q 87.203125 33.453125 89.109375 34.28125 
Q 91.015625 35.109375 93.21875 35.109375 
z
M 89.65625 22.46875 
Q 91.15625 22.46875 92.15625 21.453125 
Q 93.171875 20.453125 93.171875 18.953125 
Q 93.171875 18.359375 92.921875 17.71875 
Q 92.671875 17.09375 92.296875 16.484375 
Q 91.9375 15.875 91.515625 15.3125 
Q 91.109375 14.75 90.765625 14.3125 
Q 86.671875 9.125 80.953125 6.3125 
Q 75.25 3.515625 68.65625 3.515625 
Q 62.015625 3.515625 56.34375 6.3125 
Q 50.6875 9.125 46.53125 14.3125 
Q 46.1875 14.75 45.75 15.3125 
Q 45.3125 15.875 44.9375 16.484375 
Q 44.578125 17.09375 44.328125 17.71875 
Q 44.09375 18.359375 44.09375 18.953125 
Q 44.09375 20.359375 45.140625 21.40625 
Q 46.1875 22.46875 47.609375 22.46875 
Q 48.640625 22.46875 49.3125 22 
Q 50 21.53125 50.59375 20.75 
Q 51.21875 19.921875 51.78125 19.140625 
Q 52.34375 18.359375 53.03125 17.578125 
Q 59.234375 10.546875 68.65625 10.546875 
Q 77.9375 10.546875 84.234375 17.578125 
Q 84.90625 18.359375 85.46875 19.140625 
Q 86.03125 19.921875 86.671875 20.75 
Q 87.25 21.53125 87.9375 22 
Q 88.625 22.46875 89.65625 22.46875 
z
M 68.65625 91.265625 
Q 76.421875 91.265625 83.59375 89.25 
Q 90.765625 87.25 96.984375 83.59375 
Q 103.21875 79.9375 108.34375 74.796875 
Q 113.484375 69.671875 117.140625 63.453125 
Q 120.796875 57.234375 122.796875 50.046875 
Q 124.8125 42.875 124.8125 35.109375 
Q 124.8125 27.34375 122.796875 20.15625 
Q 120.796875 12.984375 117.140625 6.75 
Q 113.484375 0.53125 108.34375 -4.59375 
Q 103.21875 -9.71875 96.984375 -13.375 
Q 90.765625 -17.046875 83.59375 -19.046875 
Q 76.421875 -21.046875 68.65625 -21.046875 
Q 60.890625 -21.046875 53.703125 -19.046875 
Q 46.53125 -17.046875 40.296875 -13.375 
Q 34.078125 -9.71875 28.953125 -4.59375 
Q 23.828125 0.53125 20.15625 6.75 
Q 16.5 12.984375 14.5 20.15625 
Q 12.5 27.34375 12.5 35.109375 
Q 12.5 42.875 14.5 50.046875 
Q 16.5 57.234375 20.15625 63.453125 
Q 23.828125 69.671875 28.953125 74.796875 
Q 34.078125 79.9375 40.296875 83.59375 
Q 46.53125 87.25 53.703125 89.25 
Q 60.890625 91.265625 68.65625 91.265625 
z
M 68.65625 -14.015625 
Q 75.4375 -14.015625 81.703125 -12.25 
Q 87.984375 -10.5 93.453125 -7.296875 
Q 98.921875 -4.109375 103.390625 0.359375 
Q 107.859375 4.828125 111.0625 10.296875 
Q 114.265625 15.765625 116.015625 22.046875 
Q 117.78125 28.328125 117.78125 35.109375 
Q 117.78125 41.890625 116.015625 48.15625 
Q 114.265625 54.4375 111.0625 59.90625 
Q 107.859375 65.375 103.390625 69.84375 
Q 98.921875 74.3125 93.453125 77.515625 
Q 87.984375 80.71875 81.703125 82.46875 
Q 75.4375 84.234375 68.65625 84.234375 
Q 61.859375 84.234375 55.578125 82.46875 
Q 49.3125 80.71875 43.84375 77.515625 
Q 38.375 74.3125 33.90625 69.84375 
Q 29.4375 65.375 26.234375 59.90625 
Q 23.046875 54.4375 21.28125 48.15625 
Q 19.53125 41.890625 19.53125 35.109375 
Q 19.53125 28.328125 21.28125 22.046875 
Q 23.046875 15.765625 26.234375 10.296875 
Q 29.4375 4.828125 33.90625 0.359375 
Q 38.375 -4.109375 43.84375 -7.296875 
Q 49.3125 -10.5 55.578125 -12.25 
Q 61.859375 -14.015625 68.65625 -14.015625 
z
" id="SegoeUIEmoji-1f60a"/>
      </defs>
      <g transform="translate(525.645042 531.485)scale(0.16 -0.16)">
       <use xlink:href="#SegoeUIEmoji-1f60a"/>
      </g>
     </g>
    </g>
    <g id="xtick_8">
     <g id="line2d_8">
      <g>
       <use style="stroke:#000000;stroke-width:0.8;" x="598.08757" xlink:href="#mf5bb1ea01c" y="512.64"/>
      </g>
     </g>
     <g id="text_8">
      <!-- ðŸ˜¢ -->
      <defs>
       <path d="M 68.65625 91.265625 
Q 76.421875 91.265625 83.59375 89.25 
Q 90.765625 87.25 96.984375 83.59375 
Q 103.21875 79.9375 108.34375 74.796875 
Q 113.484375 69.671875 117.140625 63.453125 
Q 120.796875 57.234375 122.796875 50.046875 
Q 124.8125 42.875 124.8125 35.109375 
Q 124.8125 27.34375 122.796875 20.15625 
Q 120.796875 12.984375 117.140625 6.75 
Q 113.484375 0.53125 108.34375 -4.59375 
Q 103.21875 -9.71875 96.984375 -13.375 
Q 90.765625 -17.046875 83.59375 -19.046875 
Q 76.421875 -21.046875 68.65625 -21.046875 
Q 61.28125 -21.046875 54.265625 -19.21875 
Q 47.265625 -17.390625 40.875 -13.71875 
Q 42.390625 -14.015625 43.953125 -14.015625 
Q 46.296875 -14.015625 48.40625 -13.359375 
Q 50.53125 -12.703125 52.390625 -11.28125 
Q 56.34375 -12.703125 60.421875 -13.359375 
Q 64.5 -14.015625 68.65625 -14.015625 
Q 75.4375 -14.015625 81.703125 -12.25 
Q 87.984375 -10.5 93.453125 -7.296875 
Q 98.921875 -4.109375 103.390625 0.359375 
Q 107.859375 4.828125 111.0625 10.296875 
Q 114.265625 15.765625 116.015625 22.046875 
Q 117.78125 28.328125 117.78125 35.109375 
Q 117.78125 41.890625 116.015625 48.15625 
Q 114.265625 54.4375 111.0625 59.90625 
Q 107.859375 65.375 103.390625 69.84375 
Q 98.921875 74.3125 93.453125 77.515625 
Q 87.984375 80.71875 81.703125 82.46875 
Q 75.4375 84.234375 68.65625 84.234375 
Q 61.859375 84.234375 55.578125 82.46875 
Q 49.3125 80.71875 43.84375 77.515625 
Q 38.375 74.3125 33.90625 69.84375 
Q 29.4375 65.375 26.234375 59.90625 
Q 23.046875 54.4375 21.28125 48.15625 
Q 19.53125 41.890625 19.53125 35.109375 
Q 19.53125 26.46875 22.359375 18.53125 
Q 25.203125 10.59375 30.671875 3.90625 
Q 30.421875 2.9375 30.21875 1.921875 
Q 30.03125 0.921875 30.03125 -0.046875 
Q 30.03125 -2.09375 30.515625 -3.96875 
Q 31 -5.859375 32.125 -7.5625 
Q 27.4375 -3.5625 23.796875 1.296875 
Q 20.171875 6.15625 17.65625 11.625 
Q 15.140625 17.09375 13.8125 23.015625 
Q 12.5 28.953125 12.5 35.109375 
Q 12.5 42.875 14.5 50.046875 
Q 16.5 57.234375 20.15625 63.453125 
Q 23.828125 69.671875 28.953125 74.796875 
Q 34.078125 79.9375 40.296875 83.59375 
Q 46.53125 87.25 53.703125 89.25 
Q 60.890625 91.265625 68.65625 91.265625 
z
M 54.390625 -0.25 
Q 54.390625 -2.390625 53.5625 -4.265625 
Q 52.734375 -6.15625 51.3125 -7.546875 
Q 49.90625 -8.9375 48 -9.71875 
Q 46.09375 -10.5 43.953125 -10.5 
Q 41.75 -10.5 39.84375 -9.6875 
Q 37.9375 -8.890625 36.546875 -7.5 
Q 35.15625 -6.109375 34.34375 -4.203125 
Q 33.546875 -2.296875 33.546875 -0.09375 
Q 33.546875 1.3125 34 2.703125 
Q 34.46875 4.109375 35.15625 5.375 
L 43.953125 20.703125 
L 52.296875 6.25 
Q 53.21875 4.6875 53.796875 3.140625 
Q 54.390625 1.609375 54.390625 -0.25 
z
M 51.265625 15.09375 
Q 55.03125 18.015625 59.46875 19.53125 
Q 63.921875 21.046875 68.65625 21.046875 
Q 72.171875 21.046875 75.734375 20.09375 
Q 79.296875 19.140625 82.484375 17.375 
Q 85.6875 15.625 88.328125 13.109375 
Q 90.96875 10.59375 92.671875 7.46875 
Q 92.921875 6.984375 93.046875 6.59375 
Q 93.171875 6.203125 93.171875 5.671875 
Q 93.171875 4.25 92.140625 3.171875 
Q 91.109375 2.09375 89.65625 2.09375 
Q 88.53125 2.09375 87.921875 2.53125 
Q 87.3125 2.984375 86.671875 3.8125 
Q 86.078125 4.59375 85.59375 5.375 
Q 85.109375 6.15625 84.421875 6.890625 
Q 78.078125 14.0625 68.65625 14.0625 
Q 64.84375 14.0625 61.28125 12.71875 
Q 57.71875 11.375 54.828125 8.890625 
z
M 103.765625 43.171875 
Q 100.59375 43.171875 97.21875 43.875 
Q 93.84375 44.578125 90.6875 45.9375 
Q 87.546875 47.3125 84.78125 49.28125 
Q 82.03125 51.265625 80.078125 53.859375 
Q 79.6875 54.390625 79.421875 54.921875 
Q 79.15625 55.46875 79.15625 56.15625 
Q 79.15625 57.625 80.21875 58.640625 
Q 81.296875 59.671875 82.71875 59.671875 
Q 83.59375 59.671875 84.125 59.34375 
Q 84.671875 59.03125 85.296875 58.5 
Q 87.5 56.546875 89.5 54.984375 
Q 91.5 53.421875 93.640625 52.34375 
Q 95.796875 51.265625 98.234375 50.703125 
Q 100.6875 50.140625 103.765625 50.140625 
Q 105.171875 50.140625 106.21875 49.09375 
Q 107.28125 48.046875 107.28125 46.625 
Q 107.28125 45.21875 106.21875 44.1875 
Q 105.171875 43.171875 103.765625 43.171875 
z
M 54.59375 59.671875 
Q 56 59.671875 57.078125 58.640625 
Q 58.15625 57.625 58.15625 56.15625 
Q 58.15625 55.46875 57.890625 54.921875 
Q 57.625 54.390625 57.234375 53.859375 
Q 55.28125 51.265625 52.515625 49.28125 
Q 49.75 47.3125 46.578125 45.9375 
Q 43.40625 44.578125 40.03125 43.875 
Q 36.671875 43.171875 33.546875 43.171875 
Q 32.125 43.171875 31.078125 44.1875 
Q 30.03125 45.21875 30.03125 46.625 
Q 30.03125 48.09375 31.046875 49.109375 
Q 32.078125 50.140625 33.546875 50.140625 
Q 36.625 50.140625 39.0625 50.703125 
Q 41.5 51.265625 43.640625 52.34375 
Q 45.796875 53.421875 47.796875 54.984375 
Q 49.8125 56.546875 52 58.5 
Q 52.640625 59.03125 53.171875 59.34375 
Q 53.71875 59.671875 54.59375 59.671875 
z
M 75.6875 37.890625 
L 75.6875 39.65625 
L 79.203125 39.65625 
Q 79.203125 37.796875 79.875 36.203125 
Q 80.5625 34.625 81.734375 33.421875 
Q 82.90625 32.234375 84.484375 31.546875 
Q 86.078125 30.859375 87.9375 30.859375 
Q 89.75 30.859375 91.359375 31.546875 
Q 92.96875 32.234375 94.15625 33.421875 
Q 95.359375 34.625 96.046875 36.203125 
Q 96.734375 37.796875 96.734375 39.65625 
L 100.25 39.65625 
L 100.25 37.890625 
Q 100.25 35.359375 99.265625 33.109375 
Q 98.296875 30.859375 96.625 29.203125 
Q 94.96875 27.546875 92.71875 26.5625 
Q 90.484375 25.59375 87.9375 25.59375 
Q 85.40625 25.59375 83.15625 26.5625 
Q 80.90625 27.546875 79.25 29.203125 
Q 77.59375 30.859375 76.640625 33.109375 
Q 75.6875 35.359375 75.6875 37.890625 
z
M 49.359375 30.859375 
Q 51.171875 30.859375 52.78125 31.546875 
Q 54.390625 32.234375 55.5625 33.421875 
Q 56.734375 34.625 57.421875 36.203125 
Q 58.109375 37.796875 58.109375 39.65625 
L 61.625 39.65625 
L 61.625 37.890625 
Q 61.625 35.359375 60.671875 33.109375 
Q 59.71875 30.859375 58.046875 29.203125 
Q 56.390625 27.546875 54.140625 26.5625 
Q 51.90625 25.59375 49.359375 25.59375 
Q 46.828125 25.59375 44.578125 26.5625 
Q 42.328125 27.546875 40.671875 29.203125 
Q 39.015625 30.859375 38.03125 33.109375 
Q 37.0625 35.359375 37.0625 37.890625 
L 37.0625 39.65625 
L 40.578125 39.65625 
Q 40.578125 37.796875 41.25 36.203125 
Q 41.9375 34.625 43.140625 33.421875 
Q 44.34375 32.234375 45.921875 31.546875 
Q 47.515625 30.859375 49.359375 30.859375 
z
" id="SegoeUIEmoji-1f622"/>
      </defs>
      <g transform="translate(587.76007 531.485)scale(0.16 -0.16)">
       <use xlink:href="#SegoeUIEmoji-1f622"/>
      </g>
     </g>
    </g>
    <g id="xtick_9">
     <g id="line2d_9">
      <g>
       <use style="stroke:#000000;stroke-width:0.8;" x="660.202597" xlink:href="#mf5bb1ea01c" y="512.64"/>
      </g>
     </g>
     <g id="text_9">
      <!-- ðŸ˜³ -->
      <defs>
       <path d="M 108.984375 36.859375 
Q 108.984375 33.5 107.71875 30.4375 
Q 106.453125 27.390625 104.25 24.90625 
Q 105.671875 23.4375 106.46875 21.53125 
Q 107.28125 19.625 107.28125 17.578125 
Q 107.28125 15.375 106.4375 13.46875 
Q 105.609375 11.578125 104.171875 10.125 
Q 102.734375 8.6875 100.828125 7.859375 
Q 98.921875 7.03125 96.734375 7.03125 
Q 94.53125 7.03125 92.625 7.859375 
Q 90.71875 8.6875 89.28125 10.125 
Q 87.84375 11.578125 87.015625 13.46875 
Q 86.1875 15.375 86.1875 17.578125 
Q 86.1875 18.890625 86.53125 20.0625 
Q 83.734375 20.90625 81.421875 22.53125 
Q 79.109375 24.171875 77.4375 26.359375 
Q 75.78125 28.5625 74.875 31.25 
Q 73.96875 33.9375 73.96875 36.859375 
Q 73.96875 40.484375 75.328125 43.671875 
Q 76.703125 46.875 79.078125 49.234375 
Q 81.453125 51.609375 84.640625 52.96875 
Q 87.84375 54.34375 91.453125 54.34375 
Q 95.0625 54.34375 98.265625 52.96875 
Q 101.46875 51.609375 103.828125 49.234375 
Q 106.203125 46.875 107.59375 43.671875 
Q 108.984375 40.484375 108.984375 36.859375 
z
M 63.328125 36.859375 
Q 63.328125 33.9375 62.421875 31.25 
Q 61.53125 28.5625 59.859375 26.359375 
Q 58.203125 24.171875 55.875 22.53125 
Q 53.5625 20.90625 50.78125 20.0625 
Q 50.921875 19.4375 51.015625 18.828125 
Q 51.125 18.21875 51.125 17.578125 
Q 51.125 15.375 50.296875 13.46875 
Q 49.46875 11.578125 48.015625 10.125 
Q 46.578125 8.6875 44.671875 7.859375 
Q 42.78125 7.03125 40.578125 7.03125 
Q 38.375 7.03125 36.46875 7.859375 
Q 34.578125 8.6875 33.125 10.125 
Q 31.6875 11.578125 30.859375 13.46875 
Q 30.03125 15.375 30.03125 17.578125 
Q 30.03125 19.625 30.828125 21.53125 
Q 31.640625 23.4375 33.0625 24.90625 
Q 30.859375 27.390625 29.59375 30.4375 
Q 28.328125 33.5 28.328125 36.859375 
Q 28.328125 40.484375 29.71875 43.671875 
Q 31.109375 46.875 33.46875 49.234375 
Q 35.84375 51.609375 39.03125 52.96875 
Q 42.234375 54.34375 45.84375 54.34375 
Q 49.46875 54.34375 52.65625 52.96875 
Q 55.859375 51.609375 58.21875 49.234375 
Q 60.59375 46.875 61.953125 43.671875 
Q 63.328125 40.484375 63.328125 36.859375 
z
M 91.453125 22.75 
Q 94.390625 22.75 96.953125 23.875 
Q 99.515625 25 101.421875 26.90625 
Q 103.328125 28.8125 104.4375 31.375 
Q 105.5625 33.9375 105.5625 36.859375 
Q 105.5625 39.796875 104.4375 42.359375 
Q 103.328125 44.921875 101.421875 46.828125 
Q 99.515625 48.734375 96.953125 49.828125 
Q 94.390625 50.921875 91.453125 50.921875 
Q 88.53125 50.921875 85.96875 49.828125 
Q 83.40625 48.734375 81.5 46.828125 
Q 79.59375 44.921875 78.484375 42.359375 
Q 77.390625 39.796875 77.390625 36.859375 
Q 77.390625 33.984375 78.515625 31.421875 
Q 79.640625 28.859375 81.546875 26.921875 
Q 83.453125 25 86.015625 23.875 
Q 88.578125 22.75 91.453125 22.75 
z
M 45.84375 22.75 
Q 48.734375 22.75 51.296875 23.875 
Q 53.859375 25 55.765625 26.921875 
Q 57.671875 28.859375 58.78125 31.421875 
Q 59.90625 33.984375 59.90625 36.859375 
Q 59.90625 39.796875 58.8125 42.359375 
Q 57.71875 44.921875 55.8125 46.828125 
Q 53.90625 48.734375 51.34375 49.828125 
Q 48.78125 50.921875 45.84375 50.921875 
Q 42.921875 50.921875 40.359375 49.828125 
Q 37.796875 48.734375 35.890625 46.828125 
Q 33.984375 44.921875 32.859375 42.359375 
Q 31.734375 39.796875 31.734375 36.859375 
Q 31.734375 33.9375 32.859375 31.375 
Q 33.984375 28.8125 35.890625 26.90625 
Q 37.796875 25 40.359375 23.875 
Q 42.921875 22.75 45.84375 22.75 
z
M 103.765625 53.65625 
Q 102.828125 53.65625 102.3125 53.96875 
Q 101.8125 54.296875 101.125 54.890625 
Q 98.875 56.84375 96.875 58.375 
Q 94.875 59.90625 92.75 60.984375 
Q 90.625 62.0625 88.203125 62.625 
Q 85.796875 63.1875 82.671875 63.1875 
Q 81.25 63.1875 80.21875 64.234375 
Q 79.203125 65.28125 79.203125 66.703125 
Q 79.203125 68.109375 80.21875 69.15625 
Q 81.25 70.21875 82.671875 70.21875 
Q 85.6875 70.21875 89.078125 69.484375 
Q 92.484375 68.75 95.71875 67.375 
Q 98.96875 66.015625 101.75 64.015625 
Q 104.546875 62.015625 106.390625 59.515625 
Q 106.78125 58.984375 107.03125 58.421875 
Q 107.28125 57.859375 107.28125 57.171875 
Q 107.28125 55.765625 106.21875 54.703125 
Q 105.171875 53.65625 103.765625 53.65625 
z
M 33.546875 53.65625 
Q 32.125 53.65625 31.078125 54.703125 
Q 30.03125 55.765625 30.03125 57.171875 
Q 30.03125 57.859375 30.265625 58.421875 
Q 30.515625 58.984375 30.90625 59.515625 
Q 32.71875 62.015625 35.515625 63.984375 
Q 38.328125 65.96875 41.546875 67.359375 
Q 44.78125 68.75 48.171875 69.484375 
Q 51.5625 70.21875 54.59375 70.21875 
Q 56.0625 70.21875 57.078125 69.1875 
Q 58.109375 68.171875 58.109375 66.703125 
Q 58.109375 65.234375 57.078125 64.203125 
Q 56.0625 63.1875 54.59375 63.1875 
Q 51.46875 63.1875 49.046875 62.625 
Q 46.625 62.0625 44.5 60.984375 
Q 42.390625 59.90625 40.40625 58.375 
Q 38.421875 56.84375 36.1875 54.890625 
Q 35.5 54.296875 34.984375 53.96875 
Q 34.46875 53.65625 33.546875 53.65625 
z
M 79.203125 10.546875 
Q 80.609375 10.546875 81.640625 9.5 
Q 82.671875 8.453125 82.671875 7.03125 
Q 82.671875 5.609375 81.640625 4.5625 
Q 80.609375 3.515625 79.203125 3.515625 
L 58.109375 3.515625 
Q 56.6875 3.515625 55.640625 4.5625 
Q 54.59375 5.609375 54.59375 7.03125 
Q 54.59375 8.453125 55.640625 9.5 
Q 56.6875 10.546875 58.109375 10.546875 
z
M 91.453125 43.890625 
Q 92.921875 43.890625 94.1875 43.328125 
Q 95.453125 42.78125 96.40625 41.828125 
Q 97.359375 40.875 97.921875 39.59375 
Q 98.484375 38.328125 98.484375 36.859375 
Q 98.484375 35.40625 97.921875 34.125 
Q 97.359375 32.859375 96.40625 31.90625 
Q 95.453125 30.953125 94.1875 30.390625 
Q 92.921875 29.828125 91.453125 29.828125 
Q 89.984375 29.828125 88.71875 30.390625 
Q 87.453125 30.953125 86.5 31.90625 
Q 85.546875 32.859375 84.984375 34.125 
Q 84.421875 35.40625 84.421875 36.859375 
Q 84.421875 38.328125 84.984375 39.59375 
Q 85.546875 40.875 86.5 41.828125 
Q 87.453125 42.78125 88.71875 43.328125 
Q 89.984375 43.890625 91.453125 43.890625 
z
M 45.84375 43.890625 
Q 47.3125 43.890625 48.578125 43.328125 
Q 49.859375 42.78125 50.8125 41.828125 
Q 51.765625 40.875 52.3125 39.59375 
Q 52.875 38.328125 52.875 36.859375 
Q 52.875 35.40625 52.3125 34.125 
Q 51.765625 32.859375 50.8125 31.90625 
Q 49.859375 30.953125 48.578125 30.390625 
Q 47.3125 29.828125 45.84375 29.828125 
Q 44.390625 29.828125 43.109375 30.390625 
Q 41.84375 30.953125 40.890625 31.90625 
Q 39.9375 32.859375 39.375 34.125 
Q 38.8125 35.40625 38.8125 36.859375 
Q 38.8125 38.328125 39.375 39.59375 
Q 39.9375 40.875 40.890625 41.828125 
Q 41.84375 42.78125 43.109375 43.328125 
Q 44.390625 43.890625 45.84375 43.890625 
z
M 68.65625 91.265625 
Q 76.421875 91.265625 83.59375 89.25 
Q 90.765625 87.25 96.984375 83.59375 
Q 103.21875 79.9375 108.34375 74.796875 
Q 113.484375 69.671875 117.140625 63.453125 
Q 120.796875 57.234375 122.796875 50.046875 
Q 124.8125 42.875 124.8125 35.109375 
Q 124.8125 27.34375 122.796875 20.15625 
Q 120.796875 12.984375 117.140625 6.75 
Q 113.484375 0.53125 108.34375 -4.59375 
Q 103.21875 -9.71875 96.984375 -13.375 
Q 90.765625 -17.046875 83.59375 -19.046875 
Q 76.421875 -21.046875 68.65625 -21.046875 
Q 60.890625 -21.046875 53.703125 -19.046875 
Q 46.53125 -17.046875 40.296875 -13.375 
Q 34.078125 -9.71875 28.953125 -4.59375 
Q 23.828125 0.53125 20.15625 6.75 
Q 16.5 12.984375 14.5 20.15625 
Q 12.5 27.34375 12.5 35.109375 
Q 12.5 42.875 14.5 50.046875 
Q 16.5 57.234375 20.15625 63.453125 
Q 23.828125 69.671875 28.953125 74.796875 
Q 34.078125 79.9375 40.296875 83.59375 
Q 46.53125 87.25 53.703125 89.25 
Q 60.890625 91.265625 68.65625 91.265625 
z
M 68.65625 -14.015625 
Q 75.4375 -14.015625 81.703125 -12.25 
Q 87.984375 -10.5 93.453125 -7.296875 
Q 98.921875 -4.109375 103.390625 0.359375 
Q 107.859375 4.828125 111.0625 10.296875 
Q 114.265625 15.765625 116.015625 22.046875 
Q 117.78125 28.328125 117.78125 35.109375 
Q 117.78125 41.890625 116.015625 48.15625 
Q 114.265625 54.4375 111.0625 59.90625 
Q 107.859375 65.375 103.390625 69.84375 
Q 98.921875 74.3125 93.453125 77.515625 
Q 87.984375 80.71875 81.703125 82.46875 
Q 75.4375 84.234375 68.65625 84.234375 
Q 61.859375 84.234375 55.578125 82.46875 
Q 49.3125 80.71875 43.84375 77.515625 
Q 38.375 74.3125 33.90625 69.84375 
Q 29.4375 65.375 26.234375 59.90625 
Q 23.046875 54.4375 21.28125 48.15625 
Q 19.53125 41.890625 19.53125 35.109375 
Q 19.53125 28.328125 21.28125 22.046875 
Q 23.046875 15.765625 26.234375 10.296875 
Q 29.4375 4.828125 33.90625 0.359375 
Q 38.375 -4.109375 43.84375 -7.296875 
Q 49.3125 -10.5 55.578125 -12.25 
Q 61.859375 -14.015625 68.65625 -14.015625 
z
" id="SegoeUIEmoji-1f633"/>
      </defs>
      <g transform="translate(649.875097 531.485)scale(0.16 -0.16)">
       <use xlink:href="#SegoeUIEmoji-1f633"/>
      </g>
     </g>
    </g>
    <g id="xtick_10">
     <g id="line2d_10">
      <g>
       <use style="stroke:#000000;stroke-width:0.8;" x="722.317625" xlink:href="#mf5bb1ea01c" y="512.64"/>
      </g>
     </g>
     <g id="text_10">
      <!-- ðŸ˜ -->
      <defs>
       <path d="M 37.0625 28.078125 
L 37.0625 31.59375 
L 100.25 31.59375 
L 100.25 28.078125 
Q 100.25 23.734375 99.125 19.671875 
Q 98 15.625 95.921875 12.125 
Q 93.84375 8.640625 90.96875 5.75 
Q 88.09375 2.875 84.59375 0.796875 
Q 81.109375 -1.265625 77.046875 -2.390625 
Q 73 -3.515625 68.65625 -3.515625 
Q 64.3125 -3.515625 60.25 -2.390625 
Q 56.203125 -1.265625 52.703125 0.796875 
Q 49.21875 2.875 46.328125 5.75 
Q 43.453125 8.640625 41.375 12.125 
Q 39.3125 15.625 38.1875 19.671875 
Q 37.0625 23.734375 37.0625 28.078125 
z
M 49.359375 50.875 
Q 47.515625 50.875 45.921875 50.1875 
Q 44.34375 49.515625 43.140625 48.34375 
Q 41.9375 47.171875 41.25 45.5625 
Q 40.578125 43.953125 40.578125 42.140625 
L 37.0625 42.140625 
L 37.0625 43.890625 
Q 37.0625 46.4375 38.03125 48.671875 
Q 39.015625 50.921875 40.671875 52.578125 
Q 42.328125 54.25 44.578125 55.203125 
Q 46.828125 56.15625 49.359375 56.15625 
Q 51.90625 56.15625 54.140625 55.203125 
Q 56.390625 54.25 58.046875 52.578125 
Q 59.71875 50.921875 60.671875 48.671875 
Q 61.625 46.4375 61.625 43.890625 
L 61.625 42.140625 
L 58.109375 42.140625 
Q 58.109375 43.953125 57.421875 45.53125 
Q 56.734375 47.125 55.53125 48.3125 
Q 54.34375 49.515625 52.75 50.1875 
Q 51.171875 50.875 49.359375 50.875 
z
M 87.9375 50.875 
Q 86.140625 50.875 84.546875 50.1875 
Q 82.953125 49.515625 81.75 48.3125 
Q 80.5625 47.125 79.875 45.53125 
Q 79.203125 43.953125 79.203125 42.140625 
L 75.6875 42.140625 
L 75.6875 43.890625 
Q 75.6875 46.4375 76.640625 48.671875 
Q 77.59375 50.921875 79.25 52.578125 
Q 80.90625 54.25 83.125 55.203125 
Q 85.359375 56.15625 87.9375 56.15625 
Q 90.484375 56.15625 92.71875 55.203125 
Q 94.96875 54.25 96.625 52.578125 
Q 98.296875 50.921875 99.265625 48.671875 
Q 100.25 46.4375 100.25 43.890625 
L 100.25 42.140625 
L 96.734375 42.140625 
Q 96.734375 43.953125 96.046875 45.5625 
Q 95.359375 47.171875 94.15625 48.34375 
Q 92.96875 49.515625 91.359375 50.1875 
Q 89.75 50.875 87.9375 50.875 
z
M 65.140625 14.0625 
L 65.140625 0.25 
Q 66.015625 0.140625 66.890625 0.0625 
Q 67.78125 0 68.65625 0 
Q 69.53125 0 70.40625 0.0625 
Q 71.296875 0.140625 72.171875 0.25 
L 72.171875 14.0625 
z
M 54.59375 14.0625 
L 54.59375 3.8125 
Q 57.90625 1.90625 61.625 0.921875 
L 61.625 14.0625 
z
M 75.6875 14.0625 
L 75.6875 0.921875 
Q 79.296875 1.859375 82.671875 3.8125 
L 82.671875 14.0625 
z
M 86.1875 28.078125 
L 86.1875 17.578125 
L 93.21875 17.578125 
L 93.21875 28.078125 
z
M 65.140625 28.078125 
L 65.140625 17.578125 
L 72.171875 17.578125 
L 72.171875 28.078125 
z
M 54.59375 28.078125 
L 54.59375 17.578125 
L 61.625 17.578125 
L 61.625 28.078125 
z
M 44.09375 28.078125 
L 44.09375 17.578125 
L 51.125 17.578125 
L 51.125 28.078125 
z
M 75.6875 28.078125 
L 75.6875 17.578125 
L 82.671875 17.578125 
L 82.671875 28.078125 
z
M 86.1875 14.0625 
L 86.1875 6.203125 
Q 90.328125 9.46875 92.921875 14.0625 
z
M 51.125 6.203125 
L 51.125 14.0625 
L 44.390625 14.0625 
Q 46.96875 9.46875 51.125 6.203125 
z
M 68.65625 91.265625 
Q 76.421875 91.265625 83.59375 89.25 
Q 90.765625 87.25 96.984375 83.59375 
Q 103.21875 79.9375 108.34375 74.796875 
Q 113.484375 69.671875 117.140625 63.453125 
Q 120.796875 57.234375 122.796875 50.046875 
Q 124.8125 42.875 124.8125 35.109375 
Q 124.8125 27.34375 122.796875 20.15625 
Q 120.796875 12.984375 117.140625 6.75 
Q 113.484375 0.53125 108.34375 -4.59375 
Q 103.21875 -9.71875 96.984375 -13.375 
Q 90.765625 -17.046875 83.59375 -19.046875 
Q 76.421875 -21.046875 68.65625 -21.046875 
Q 60.890625 -21.046875 53.703125 -19.046875 
Q 46.53125 -17.046875 40.296875 -13.375 
Q 34.078125 -9.71875 28.953125 -4.59375 
Q 23.828125 0.53125 20.15625 6.75 
Q 16.5 12.984375 14.5 20.15625 
Q 12.5 27.34375 12.5 35.109375 
Q 12.5 42.875 14.5 50.046875 
Q 16.5 57.234375 20.15625 63.453125 
Q 23.828125 69.671875 28.953125 74.796875 
Q 34.078125 79.9375 40.296875 83.59375 
Q 46.53125 87.25 53.703125 89.25 
Q 60.890625 91.265625 68.65625 91.265625 
z
M 68.65625 -14.015625 
Q 75.4375 -14.015625 81.703125 -12.25 
Q 87.984375 -10.5 93.453125 -7.296875 
Q 98.921875 -4.109375 103.390625 0.359375 
Q 107.859375 4.828125 111.0625 10.296875 
Q 114.265625 15.765625 116.015625 22.046875 
Q 117.78125 28.328125 117.78125 35.109375 
Q 117.78125 41.890625 116.015625 48.15625 
Q 114.265625 54.4375 111.0625 59.90625 
Q 107.859375 65.375 103.390625 69.84375 
Q 98.921875 74.3125 93.453125 77.515625 
Q 87.984375 80.71875 81.703125 82.46875 
Q 75.4375 84.234375 68.65625 84.234375 
Q 61.859375 84.234375 55.578125 82.46875 
Q 49.3125 80.71875 43.84375 77.515625 
Q 38.375 74.3125 33.90625 69.84375 
Q 29.4375 65.375 26.234375 59.90625 
Q 23.046875 54.4375 21.28125 48.15625 
Q 19.53125 41.890625 19.53125 35.109375 
Q 19.53125 28.328125 21.28125 22.046875 
Q 23.046875 15.765625 26.234375 10.296875 
Q 29.4375 4.828125 33.90625 0.359375 
Q 38.375 -4.109375 43.84375 -7.296875 
Q 49.3125 -10.5 55.578125 -12.25 
Q 61.859375 -14.015625 68.65625 -14.015625 
z
" id="SegoeUIEmoji-1f601"/>
      </defs>
      <g transform="translate(711.990125 531.485)scale(0.16 -0.16)">
       <use xlink:href="#SegoeUIEmoji-1f601"/>
      </g>
     </g>
    </g>
    <g id="text_11">
     <!-- Emoji -->
     <defs>
      <path d="M 46.296875 0 
L 9.1875 0 
L 9.1875 70.015625 
L 44.734375 70.015625 
L 44.734375 62.59375 
L 17.390625 62.59375 
L 17.390625 39.3125 
L 42.671875 39.3125 
L 42.671875 31.9375 
L 17.390625 31.9375 
L 17.390625 7.421875 
L 46.296875 7.421875 
z
" id="SegoeUIEmoji-45"/>
      <path d="M 79.109375 0 
L 71.09375 0 
L 71.09375 28.71875 
Q 71.09375 37.015625 68.53125 40.71875 
Q 65.96875 44.4375 59.90625 44.4375 
Q 54.78125 44.4375 51.1875 39.75 
Q 47.609375 35.0625 47.609375 28.515625 
L 47.609375 0 
L 39.59375 0 
L 39.59375 29.6875 
Q 39.59375 44.4375 28.21875 44.4375 
Q 22.953125 44.4375 19.53125 40.015625 
Q 16.109375 35.59375 16.109375 28.515625 
L 16.109375 0 
L 8.109375 0 
L 8.109375 50 
L 16.109375 50 
L 16.109375 42.09375 
L 16.3125 42.09375 
Q 21.625 51.171875 31.84375 51.171875 
Q 36.96875 51.171875 40.765625 48.3125 
Q 44.578125 45.453125 46 40.828125 
Q 51.5625 51.171875 62.59375 51.171875 
Q 79.109375 51.171875 79.109375 30.8125 
z
" id="SegoeUIEmoji-6d"/>
      <path d="M 29 -1.171875 
Q 17.921875 -1.171875 11.296875 5.828125 
Q 4.6875 12.84375 4.6875 24.421875 
Q 4.6875 37.015625 11.5625 44.09375 
Q 18.453125 51.171875 30.171875 51.171875 
Q 41.359375 51.171875 47.625 44.28125 
Q 53.90625 37.40625 53.90625 25.203125 
Q 53.90625 13.234375 47.140625 6.03125 
Q 40.375 -1.171875 29 -1.171875 
z
M 29.59375 44.4375 
Q 21.875 44.4375 17.375 39.1875 
Q 12.890625 33.9375 12.890625 24.703125 
Q 12.890625 15.828125 17.421875 10.6875 
Q 21.96875 5.5625 29.59375 5.5625 
Q 37.359375 5.5625 41.53125 10.59375 
Q 45.703125 15.625 45.703125 24.90625 
Q 45.703125 34.28125 41.53125 39.359375 
Q 37.359375 44.4375 29.59375 44.4375 
z
" id="SegoeUIEmoji-6f"/>
      <path d="M 16.109375 2.09375 
Q 16.109375 -10.203125 11.15625 -16.859375 
Q 6.203125 -23.53125 -3.03125 -23.53125 
Q -6.453125 -23.53125 -9.671875 -21.96875 
L -9.671875 -14.5 
Q -6.0625 -16.703125 -2.828125 -16.703125 
Q 8.109375 -16.703125 8.109375 0.78125 
L 8.109375 50 
L 16.109375 50 
z
M 12.203125 62.703125 
Q 10.0625 62.703125 8.546875 64.15625 
Q 7.03125 65.625 7.03125 67.875 
Q 7.03125 70.125 8.546875 71.609375 
Q 10.0625 73.09375 12.203125 73.09375 
Q 14.40625 73.09375 15.9375 71.609375 
Q 17.484375 70.125 17.484375 67.875 
Q 17.484375 65.71875 15.9375 64.203125 
Q 14.40625 62.703125 12.203125 62.703125 
z
" id="SegoeUIEmoji-6a"/>
      <path d="M 12.203125 62.703125 
Q 10.0625 62.703125 8.546875 64.15625 
Q 7.03125 65.625 7.03125 67.875 
Q 7.03125 70.125 8.546875 71.609375 
Q 10.0625 73.09375 12.203125 73.09375 
Q 14.40625 73.09375 15.9375 71.609375 
Q 17.484375 70.125 17.484375 67.875 
Q 17.484375 65.71875 15.9375 64.203125 
Q 14.40625 62.703125 12.203125 62.703125 
z
M 16.109375 0 
L 8.109375 0 
L 8.109375 50 
L 16.109375 50 
z
" id="SegoeUIEmoji-69"/>
     </defs>
     <g transform="translate(423.29875 551.5875)scale(0.16 -0.16)">
      <use xlink:href="#SegoeUIEmoji-45"/>
      <use x="50.585938" xlink:href="#SegoeUIEmoji-6d"/>
      <use x="136.71875" xlink:href="#SegoeUIEmoji-6f"/>
      <use x="195.3125" xlink:href="#SegoeUIEmoji-6a"/>
      <use x="219.53125" xlink:href="#SegoeUIEmoji-69"/>
     </g>
    </g>
   </g>
   <g id="matplotlib.axis_2">
    <g id="ytick_1">
     <g id="line2d_11">
      <path clip-path="url(#pf557abe8e4)" d="M 108 512.64 
L 777.6 512.64 
" style="fill:none;opacity:0.25;stroke:#000080;stroke-linecap:square;stroke-width:0.5;"/>
     </g>
     <g id="line2d_12">
      <defs>
       <path d="M 0 0 
L -3.5 0 
" id="m8795c9e9bf" style="stroke:#000000;stroke-width:0.8;"/>
      </defs>
      <g>
       <use style="stroke:#000000;stroke-width:0.8;" x="108" xlink:href="#m8795c9e9bf" y="512.64"/>
      </g>
     </g>
     <g id="text_12">
      <!-- 0.0 -->
      <defs>
       <path d="M 26.265625 -1.171875 
Q 15.875 -1.171875 10.03125 7.765625 
Q 4.203125 16.703125 4.203125 33.59375 
Q 4.203125 52.15625 10.28125 61.671875 
Q 16.359375 71.1875 27.828125 71.1875 
Q 49.8125 71.1875 49.8125 35.296875 
Q 49.8125 17.53125 43.609375 8.171875 
Q 37.40625 -1.171875 26.265625 -1.171875 
z
M 27.390625 64.40625 
Q 12.40625 64.40625 12.40625 33.984375 
Q 12.40625 5.5625 27.09375 5.5625 
Q 41.609375 5.5625 41.609375 34.46875 
Q 41.609375 64.40625 27.390625 64.40625 
z
" id="SegoeUIEmoji-30"/>
       <path d="M 10.890625 -1.078125 
Q 8.640625 -1.078125 7.046875 0.53125 
Q 5.46875 2.15625 5.46875 4.390625 
Q 5.46875 6.640625 7.046875 8.265625 
Q 8.640625 9.90625 10.890625 9.90625 
Q 13.1875 9.90625 14.796875 8.265625 
Q 16.40625 6.640625 16.40625 4.390625 
Q 16.40625 2.15625 14.796875 0.53125 
Q 13.1875 -1.078125 10.890625 -1.078125 
z
" id="SegoeUIEmoji-2e"/>
      </defs>
      <g transform="translate(80.28 518.5625)scale(0.16 -0.16)">
       <use xlink:href="#SegoeUIEmoji-30"/>
       <use x="53.90625" xlink:href="#SegoeUIEmoji-2e"/>
       <use x="75.585938" xlink:href="#SegoeUIEmoji-30"/>
      </g>
     </g>
    </g>
    <g id="ytick_2">
     <g id="line2d_13">
      <path clip-path="url(#pf557abe8e4)" d="M 108 453.39371 
L 777.6 453.39371 
" style="fill:none;opacity:0.25;stroke:#000080;stroke-linecap:square;stroke-width:0.5;"/>
     </g>
     <g id="line2d_14">
      <g>
       <use style="stroke:#000000;stroke-width:0.8;" x="108" xlink:href="#m8795c9e9bf" y="453.39371"/>
      </g>
     </g>
     <g id="text_13">
      <!-- 20.0 -->
      <defs>
       <path d="M 37.703125 51.65625 
Q 37.703125 54.890625 36.6875 57.28125 
Q 35.6875 59.671875 33.953125 61.25 
Q 32.234375 62.84375 29.890625 63.625 
Q 27.546875 64.40625 24.8125 64.40625 
Q 22.46875 64.40625 20.21875 63.765625 
Q 17.96875 63.140625 15.84375 62.015625 
Q 13.71875 60.890625 11.734375 59.328125 
Q 9.765625 57.765625 8.0625 55.859375 
L 8.0625 64.453125 
Q 11.421875 67.71875 15.59375 69.453125 
Q 19.78125 71.1875 25.78125 71.1875 
Q 30.078125 71.1875 33.734375 69.9375 
Q 37.40625 68.703125 40.09375 66.3125 
Q 42.78125 63.921875 44.3125 60.40625 
Q 45.84375 56.890625 45.84375 52.34375 
Q 45.84375 48.1875 44.890625 44.8125 
Q 43.953125 41.453125 42.015625 38.46875 
Q 40.09375 35.5 37.15625 32.765625 
Q 34.234375 30.03125 30.28125 27.203125 
Q 25.34375 23.6875 22.140625 21.1875 
Q 18.953125 18.703125 17.0625 16.53125 
Q 15.1875 14.359375 14.421875 12.1875 
Q 13.671875 10.015625 13.671875 7.171875 
L 48.53125 7.171875 
L 48.53125 0 
L 5.328125 0 
L 5.328125 3.46875 
Q 5.328125 7.953125 6.296875 11.375 
Q 7.28125 14.796875 9.515625 17.875 
Q 11.765625 20.953125 15.40625 24.015625 
Q 19.046875 27.09375 24.3125 30.953125 
Q 28.125 33.6875 30.6875 36.171875 
Q 33.25 38.671875 34.8125 41.15625 
Q 36.375 43.65625 37.03125 46.21875 
Q 37.703125 48.78125 37.703125 51.65625 
z
" id="SegoeUIEmoji-32"/>
      </defs>
      <g transform="translate(71.655 459.31621)scale(0.16 -0.16)">
       <use xlink:href="#SegoeUIEmoji-32"/>
       <use x="53.90625" xlink:href="#SegoeUIEmoji-30"/>
       <use x="107.8125" xlink:href="#SegoeUIEmoji-2e"/>
       <use x="129.492188" xlink:href="#SegoeUIEmoji-30"/>
      </g>
     </g>
    </g>
    <g id="ytick_3">
     <g id="line2d_15">
      <path clip-path="url(#pf557abe8e4)" d="M 108 394.147419 
L 777.6 394.147419 
" style="fill:none;opacity:0.25;stroke:#000080;stroke-linecap:square;stroke-width:0.5;"/>
     </g>
     <g id="line2d_16">
      <g>
       <use style="stroke:#000000;stroke-width:0.8;" x="108" xlink:href="#m8795c9e9bf" y="394.147419"/>
      </g>
     </g>
     <g id="text_14">
      <!-- 40.0 -->
      <defs>
       <path d="M 41.5 70.015625 
L 41.5 23.78125 
L 50.484375 23.78125 
L 50.484375 16.453125 
L 41.5 16.453125 
L 41.5 0 
L 33.59375 0 
L 33.59375 16.453125 
L 0.6875 16.453125 
L 0.6875 23.390625 
Q 5.28125 28.5625 9.96875 34.4375 
Q 14.65625 40.328125 18.921875 46.375 
Q 23.1875 52.4375 26.828125 58.46875 
Q 30.46875 64.5 32.953125 70.015625 
z
M 9.71875 23.78125 
L 33.59375 23.78125 
L 33.59375 58.0625 
Q 29.9375 51.65625 26.65625 46.625 
Q 23.390625 41.609375 20.4375 37.5 
Q 17.484375 33.40625 14.796875 30.078125 
Q 12.109375 26.765625 9.71875 23.78125 
z
" id="SegoeUIEmoji-34"/>
      </defs>
      <g transform="translate(71.655 400.069919)scale(0.16 -0.16)">
       <use xlink:href="#SegoeUIEmoji-34"/>
       <use x="53.90625" xlink:href="#SegoeUIEmoji-30"/>
       <use x="107.8125" xlink:href="#SegoeUIEmoji-2e"/>
       <use x="129.492188" xlink:href="#SegoeUIEmoji-30"/>
      </g>
     </g>
    </g>
    <g id="ytick_4">
     <g id="line2d_17">
      <path clip-path="url(#pf557abe8e4)" d="M 108 334.901129 
L 777.6 334.901129 
" style="fill:none;opacity:0.25;stroke:#000080;stroke-linecap:square;stroke-width:0.5;"/>
     </g>
     <g id="line2d_18">
      <g>
       <use style="stroke:#000000;stroke-width:0.8;" x="108" xlink:href="#m8795c9e9bf" y="334.901129"/>
      </g>
     </g>
     <g id="text_15">
      <!-- 60.0 -->
      <defs>
       <path d="M 45.609375 69.1875 
L 45.609375 61.625 
Q 40.1875 64.40625 34.1875 64.40625 
Q 24.859375 64.40625 19.265625 56.09375 
Q 13.671875 47.796875 13.671875 33.890625 
L 13.875 33.890625 
Q 18.75 43.796875 29.890625 43.796875 
Q 39.0625 43.796875 44.484375 37.90625 
Q 49.90625 32.03125 49.90625 22.171875 
Q 49.90625 11.859375 43.703125 5.34375 
Q 37.5 -1.171875 27.9375 -1.171875 
Q 17.390625 -1.171875 11.375 7.21875 
Q 5.375 15.625 5.375 30.8125 
Q 5.375 49.21875 13.234375 60.203125 
Q 21.09375 71.1875 33.984375 71.1875 
Q 41.3125 71.1875 45.609375 69.1875 
z
M 28.125 37.015625 
Q 21.921875 37.015625 18.0625 32.8125 
Q 14.203125 28.609375 14.203125 22.90625 
Q 14.203125 15.71875 18.03125 10.640625 
Q 21.875 5.5625 28.21875 5.5625 
Q 34.28125 5.5625 37.984375 9.984375 
Q 41.703125 14.40625 41.703125 21.1875 
Q 41.703125 28.609375 38.140625 32.8125 
Q 34.578125 37.015625 28.125 37.015625 
z
" id="SegoeUIEmoji-36"/>
      </defs>
      <g transform="translate(71.655 340.823629)scale(0.16 -0.16)">
       <use xlink:href="#SegoeUIEmoji-36"/>
       <use x="53.90625" xlink:href="#SegoeUIEmoji-30"/>
       <use x="107.8125" xlink:href="#SegoeUIEmoji-2e"/>
       <use x="129.492188" xlink:href="#SegoeUIEmoji-30"/>
      </g>
     </g>
    </g>
    <g id="ytick_5">
     <g id="line2d_19">
      <path clip-path="url(#pf557abe8e4)" d="M 108 275.654838 
L 777.6 275.654838 
" style="fill:none;opacity:0.25;stroke:#000080;stroke-linecap:square;stroke-width:0.5;"/>
     </g>
     <g id="line2d_20">
      <g>
       <use style="stroke:#000000;stroke-width:0.8;" x="108" xlink:href="#m8795c9e9bf" y="275.654838"/>
      </g>
     </g>
     <g id="text_16">
      <!-- 80.0 -->
      <defs>
       <path d="M 20.015625 36.71875 
L 20.015625 36.921875 
Q 7.421875 42.78125 7.421875 53.90625 
Q 7.421875 61.46875 13.1875 66.328125 
Q 18.953125 71.1875 28.03125 71.1875 
Q 36.234375 71.1875 41.5 66.640625 
Q 46.78125 62.109375 46.78125 54.984375 
Q 46.78125 43.359375 33.796875 36.921875 
L 33.796875 36.71875 
Q 49.125 31.25 49.125 17.78125 
Q 49.125 9.078125 42.875 3.953125 
Q 36.625 -1.171875 25.484375 -1.171875 
Q 16.5 -1.171875 10.6875 3.90625 
Q 4.890625 8.984375 4.890625 17.09375 
Q 4.890625 30.5625 20.015625 36.71875 
z
M 38.578125 54 
Q 38.578125 58.84375 35.546875 61.625 
Q 32.515625 64.40625 27.296875 64.40625 
Q 22.40625 64.40625 19.015625 61.5 
Q 15.625 58.59375 15.625 54.109375 
Q 15.625 44.96875 27 40.328125 
Q 38.578125 45.125 38.578125 54 
z
M 26.46875 32.90625 
Q 13.09375 27.59375 13.09375 17.484375 
Q 13.09375 12.25 16.96875 8.90625 
Q 20.84375 5.5625 27.203125 5.5625 
Q 33.25 5.5625 37.078125 8.859375 
Q 40.921875 12.15625 40.921875 17.1875 
Q 40.921875 27.734375 26.46875 32.90625 
z
" id="SegoeUIEmoji-38"/>
      </defs>
      <g transform="translate(71.655 281.577338)scale(0.16 -0.16)">
       <use xlink:href="#SegoeUIEmoji-38"/>
       <use x="53.90625" xlink:href="#SegoeUIEmoji-30"/>
       <use x="107.8125" xlink:href="#SegoeUIEmoji-2e"/>
       <use x="129.492188" xlink:href="#SegoeUIEmoji-30"/>
      </g>
     </g>
    </g>
    <g id="ytick_6">
     <g id="line2d_21">
      <path clip-path="url(#pf557abe8e4)" d="M 108 216.408548 
L 777.6 216.408548 
" style="fill:none;opacity:0.25;stroke:#000080;stroke-linecap:square;stroke-width:0.5;"/>
     </g>
     <g id="line2d_22">
      <g>
       <use style="stroke:#000000;stroke-width:0.8;" x="108" xlink:href="#m8795c9e9bf" y="216.408548"/>
      </g>
     </g>
     <g id="text_17">
      <!-- 100.0 -->
      <defs>
       <path d="M 35.359375 0 
L 27.34375 0 
L 27.34375 60.5 
Q 26.421875 59.578125 24.640625 58.375 
Q 22.859375 57.171875 20.625 56 
Q 18.40625 54.828125 15.9375 53.796875 
Q 13.484375 52.78125 11.140625 52.203125 
L 11.140625 60.296875 
Q 13.765625 61.03125 16.71875 62.28125 
Q 19.671875 63.53125 22.53125 65.0625 
Q 25.390625 66.609375 27.921875 68.28125 
Q 30.46875 69.96875 32.328125 71.578125 
L 35.359375 71.578125 
z
" id="SegoeUIEmoji-31"/>
      </defs>
      <g transform="translate(63.03 222.331048)scale(0.16 -0.16)">
       <use xlink:href="#SegoeUIEmoji-31"/>
       <use x="53.90625" xlink:href="#SegoeUIEmoji-30"/>
       <use x="107.8125" xlink:href="#SegoeUIEmoji-30"/>
       <use x="161.71875" xlink:href="#SegoeUIEmoji-2e"/>
       <use x="183.398438" xlink:href="#SegoeUIEmoji-30"/>
      </g>
     </g>
    </g>
    <g id="ytick_7">
     <g id="line2d_23">
      <path clip-path="url(#pf557abe8e4)" d="M 108 157.162258 
L 777.6 157.162258 
" style="fill:none;opacity:0.25;stroke:#000080;stroke-linecap:square;stroke-width:0.5;"/>
     </g>
     <g id="line2d_24">
      <g>
       <use style="stroke:#000000;stroke-width:0.8;" x="108" xlink:href="#m8795c9e9bf" y="157.162258"/>
      </g>
     </g>
     <g id="text_18">
      <!-- 120.0 -->
      <g transform="translate(63.03 163.084758)scale(0.16 -0.16)">
       <use xlink:href="#SegoeUIEmoji-31"/>
       <use x="53.90625" xlink:href="#SegoeUIEmoji-32"/>
       <use x="107.8125" xlink:href="#SegoeUIEmoji-30"/>
       <use x="161.71875" xlink:href="#SegoeUIEmoji-2e"/>
       <use x="183.398438" xlink:href="#SegoeUIEmoji-30"/>
      </g>
     </g>
    </g>
    <g id="ytick_8">
     <g id="line2d_25">
      <path clip-path="url(#pf557abe8e4)" d="M 108 97.915967 
L 777.6 97.915967 
" style="fill:none;opacity:0.25;stroke:#000080;stroke-linecap:square;stroke-width:0.5;"/>
     </g>
     <g id="line2d_26">
      <g>
       <use style="stroke:#000000;stroke-width:0.8;" x="108" xlink:href="#m8795c9e9bf" y="97.915967"/>
      </g>
     </g>
     <g id="text_19">
      <!-- 140.0 -->
      <g transform="translate(63.03 103.838467)scale(0.16 -0.16)">
       <use xlink:href="#SegoeUIEmoji-31"/>
       <use x="53.90625" xlink:href="#SegoeUIEmoji-34"/>
       <use x="107.8125" xlink:href="#SegoeUIEmoji-30"/>
       <use x="161.71875" xlink:href="#SegoeUIEmoji-2e"/>
       <use x="183.398438" xlink:href="#SegoeUIEmoji-30"/>
      </g>
     </g>
    </g>
    <g id="text_20">
     <!-- Frequency (Million Times) -->
     <defs>
      <path d="M 44.734375 62.59375 
L 17.390625 62.59375 
L 17.390625 38.375 
L 42.671875 38.375 
L 42.671875 31 
L 17.390625 31 
L 17.390625 0 
L 9.1875 0 
L 9.1875 70.015625 
L 44.734375 70.015625 
z
" id="SegoeUIEmoji-46"/>
      <path d="M 34.1875 41.890625 
Q 32.078125 43.5 28.125 43.5 
Q 23 43.5 19.546875 38.671875 
Q 16.109375 33.84375 16.109375 25.484375 
L 16.109375 0 
L 8.109375 0 
L 8.109375 50 
L 16.109375 50 
L 16.109375 39.703125 
L 16.3125 39.703125 
Q 18.015625 44.96875 21.53125 47.921875 
Q 25.046875 50.875 29.390625 50.875 
Q 32.515625 50.875 34.1875 50.203125 
z
" id="SegoeUIEmoji-72"/>
      <path d="M 48.296875 23 
L 12.984375 23 
Q 13.1875 14.65625 17.484375 10.109375 
Q 21.78125 5.5625 29.296875 5.5625 
Q 37.75 5.5625 44.828125 11.140625 
L 44.828125 3.609375 
Q 38.234375 -1.171875 27.390625 -1.171875 
Q 16.796875 -1.171875 10.734375 5.640625 
Q 4.6875 12.453125 4.6875 24.8125 
Q 4.6875 36.46875 11.296875 43.8125 
Q 17.921875 51.171875 27.734375 51.171875 
Q 37.546875 51.171875 42.921875 44.828125 
Q 48.296875 38.484375 48.296875 27.203125 
z
M 40.09375 29.78125 
Q 40.046875 36.71875 36.75 40.578125 
Q 33.453125 44.4375 27.59375 44.4375 
Q 21.921875 44.4375 17.96875 40.375 
Q 14.015625 36.328125 13.09375 29.78125 
z
" id="SegoeUIEmoji-65"/>
      <path d="M 50.78125 -23 
L 42.78125 -23 
L 42.78125 8.59375 
L 42.578125 8.59375 
Q 37.359375 -1.171875 25.484375 -1.171875 
Q 16.0625 -1.171875 10.375 5.53125 
Q 4.6875 12.25 4.6875 23.828125 
Q 4.6875 36.28125 10.9375 43.71875 
Q 17.1875 51.171875 27.734375 51.171875 
Q 37.984375 51.171875 42.578125 43.0625 
L 42.78125 43.0625 
L 42.78125 50 
L 50.78125 50 
z
M 42.78125 22.515625 
L 42.78125 29.78125 
Q 42.78125 35.9375 38.75 40.1875 
Q 34.71875 44.4375 28.515625 44.4375 
Q 21.296875 44.4375 17.09375 39.078125 
Q 12.890625 33.734375 12.890625 24.03125 
Q 12.890625 15.375 16.9375 10.46875 
Q 21 5.5625 27.390625 5.5625 
Q 34.421875 5.5625 38.59375 10.375 
Q 42.78125 15.1875 42.78125 22.515625 
z
" id="SegoeUIEmoji-71"/>
      <path d="M 48.53125 0 
L 40.53125 0 
L 40.53125 7.90625 
L 40.328125 7.90625 
Q 35.359375 -1.171875 24.90625 -1.171875 
Q 7.03125 -1.171875 7.03125 20.125 
L 7.03125 50 
L 14.984375 50 
L 14.984375 21.390625 
Q 14.984375 5.5625 27.09375 5.5625 
Q 32.953125 5.5625 36.734375 9.875 
Q 40.53125 14.203125 40.53125 21.1875 
L 40.53125 50 
L 48.53125 50 
z
" id="SegoeUIEmoji-75"/>
      <path d="M 49.609375 0 
L 41.609375 0 
L 41.609375 28.515625 
Q 41.609375 44.4375 29.984375 44.4375 
Q 23.96875 44.4375 20.03125 39.921875 
Q 16.109375 35.40625 16.109375 28.515625 
L 16.109375 0 
L 8.109375 0 
L 8.109375 50 
L 16.109375 50 
L 16.109375 41.703125 
L 16.3125 41.703125 
Q 21.96875 51.171875 32.71875 51.171875 
Q 40.921875 51.171875 45.265625 45.875 
Q 49.609375 40.578125 49.609375 30.5625 
z
" id="SegoeUIEmoji-6e"/>
      <path d="M 42.1875 2.296875 
Q 36.421875 -1.171875 28.515625 -1.171875 
Q 17.828125 -1.171875 11.25 5.78125 
Q 4.6875 12.75 4.6875 23.828125 
Q 4.6875 36.1875 11.765625 43.671875 
Q 18.84375 51.171875 30.671875 51.171875 
Q 37.25 51.171875 42.28125 48.734375 
L 42.28125 40.53125 
Q 36.71875 44.4375 30.375 44.4375 
Q 22.703125 44.4375 17.796875 38.9375 
Q 12.890625 33.453125 12.890625 24.515625 
Q 12.890625 15.71875 17.5 10.640625 
Q 22.125 5.5625 29.890625 5.5625 
Q 36.421875 5.5625 42.1875 9.90625 
z
" id="SegoeUIEmoji-63"/>
      <path d="M 47.90625 50 
L 24.90625 -8.015625 
Q 18.75 -23.53125 7.625 -23.53125 
Q 4.5 -23.53125 2.390625 -22.90625 
L 2.390625 -15.71875 
Q 4.984375 -16.609375 7.125 -16.609375 
Q 13.1875 -16.609375 16.21875 -9.375 
L 20.21875 0.09375 
L 0.6875 50 
L 9.578125 50 
L 23.09375 11.53125 
Q 23.34375 10.796875 24.125 7.71875 
L 24.421875 7.71875 
Q 24.65625 8.890625 25.390625 11.421875 
L 39.59375 50 
z
" id="SegoeUIEmoji-79"/>
      <path id="SegoeUIEmoji-20"/>
      <path d="M 29.109375 -15.921875 
L 21.96875 -15.921875 
Q 6.84375 1.375 6.84375 26.703125 
Q 6.84375 52.15625 21.96875 70.015625 
L 29.203125 70.015625 
Q 13.875 51.46875 13.875 26.8125 
Q 13.875 2.34375 29.109375 -15.921875 
z
" id="SegoeUIEmoji-28"/>
      <path d="M 80.5625 0 
L 72.40625 0 
L 72.40625 46.96875 
Q 72.40625 52.546875 73.09375 60.59375 
L 72.90625 60.59375 
Q 71.734375 55.859375 70.796875 53.8125 
L 46.875 0 
L 42.875 0 
L 19 53.421875 
Q 17.96875 55.765625 16.890625 60.59375 
L 16.703125 60.59375 
Q 17.09375 56.390625 17.09375 46.875 
L 17.09375 0 
L 9.1875 0 
L 9.1875 70.015625 
L 20.015625 70.015625 
L 41.5 21.1875 
Q 44 15.578125 44.734375 12.796875 
L 45.015625 12.796875 
Q 47.125 18.5625 48.390625 21.390625 
L 70.3125 70.015625 
L 80.5625 70.015625 
z
" id="SegoeUIEmoji-4d"/>
      <path d="M 16.109375 0 
L 8.109375 0 
L 8.109375 74.03125 
L 16.109375 74.03125 
z
" id="SegoeUIEmoji-6c"/>
      <path d="M 50.59375 62.59375 
L 30.375 62.59375 
L 30.375 0 
L 22.171875 0 
L 22.171875 62.59375 
L 2 62.59375 
L 2 70.015625 
L 50.59375 70.015625 
z
" id="SegoeUIEmoji-54"/>
      <path d="M 5.078125 1.8125 
L 5.078125 10.40625 
Q 11.625 5.5625 19.484375 5.5625 
Q 30.03125 5.5625 30.03125 12.59375 
Q 30.03125 14.59375 29.125 15.984375 
Q 28.21875 17.390625 26.671875 18.453125 
Q 25.140625 19.53125 23.0625 20.375 
Q 21 21.234375 18.609375 22.171875 
Q 15.28125 23.484375 12.765625 24.828125 
Q 10.25 26.171875 8.5625 27.859375 
Q 6.890625 29.546875 6.03125 31.6875 
Q 5.171875 33.84375 5.171875 36.71875 
Q 5.171875 40.234375 6.78125 42.9375 
Q 8.40625 45.65625 11.078125 47.484375 
Q 13.765625 49.3125 17.203125 50.234375 
Q 20.65625 51.171875 24.3125 51.171875 
Q 30.8125 51.171875 35.9375 48.921875 
L 35.9375 40.828125 
Q 30.421875 44.4375 23.25 44.4375 
Q 21 44.4375 19.1875 43.921875 
Q 17.390625 43.40625 16.09375 42.46875 
Q 14.796875 41.546875 14.078125 40.25 
Q 13.375 38.96875 13.375 37.40625 
Q 13.375 35.453125 14.078125 34.125 
Q 14.796875 32.8125 16.15625 31.78125 
Q 17.53125 30.765625 19.484375 29.9375 
Q 21.4375 29.109375 23.921875 28.125 
Q 27.25 26.859375 29.875 25.515625 
Q 32.515625 24.171875 34.375 22.484375 
Q 36.234375 20.796875 37.234375 18.59375 
Q 38.234375 16.40625 38.234375 13.375 
Q 38.234375 9.671875 36.59375 6.9375 
Q 34.96875 4.203125 32.234375 2.390625 
Q 29.5 0.59375 25.921875 -0.28125 
Q 22.359375 -1.171875 18.453125 -1.171875 
Q 10.75 -1.171875 5.078125 1.8125 
z
" id="SegoeUIEmoji-73"/>
      <path d="M 8.296875 -15.921875 
L 1.171875 -15.921875 
Q 16.40625 2.34375 16.40625 26.8125 
Q 16.40625 51.46875 1.078125 70.015625 
L 8.296875 70.015625 
Q 23.53125 52.15625 23.53125 26.703125 
Q 23.53125 1.375 8.296875 -15.921875 
z
" id="SegoeUIEmoji-29"/>
     </defs>
     <g transform="translate(55.265 381.22375)rotate(-90)scale(0.16 -0.16)">
      <use xlink:href="#SegoeUIEmoji-46"/>
      <use x="48.828125" xlink:href="#SegoeUIEmoji-72"/>
      <use x="83.578125" xlink:href="#SegoeUIEmoji-65"/>
      <use x="135.873047" xlink:href="#SegoeUIEmoji-71"/>
      <use x="194.759766" xlink:href="#SegoeUIEmoji-75"/>
      <use x="251.351562" xlink:href="#SegoeUIEmoji-65"/>
      <use x="303.646484" xlink:href="#SegoeUIEmoji-6e"/>
      <use x="360.238281" xlink:href="#SegoeUIEmoji-63"/>
      <use x="406.429688" xlink:href="#SegoeUIEmoji-79"/>
      <use x="454.818359" xlink:href="#SegoeUIEmoji-20"/>
      <use x="482.210938" xlink:href="#SegoeUIEmoji-28"/>
      <use x="512.386719" xlink:href="#SegoeUIEmoji-4d"/>
      <use x="602.181641" xlink:href="#SegoeUIEmoji-69"/>
      <use x="626.400391" xlink:href="#SegoeUIEmoji-6c"/>
      <use x="650.619141" xlink:href="#SegoeUIEmoji-6c"/>
      <use x="674.837891" xlink:href="#SegoeUIEmoji-69"/>
      <use x="699.056641" xlink:href="#SegoeUIEmoji-6f"/>
      <use x="757.650391" xlink:href="#SegoeUIEmoji-6e"/>
      <use x="814.242188" xlink:href="#SegoeUIEmoji-20"/>
      <use x="841.634766" xlink:href="#SegoeUIEmoji-54"/>
      <use x="894.027344" xlink:href="#SegoeUIEmoji-69"/>
      <use x="918.246094" xlink:href="#SegoeUIEmoji-6d"/>
      <use x="1004.378906" xlink:href="#SegoeUIEmoji-65"/>
      <use x="1056.673828" xlink:href="#SegoeUIEmoji-73"/>
      <use x="1099.105469" xlink:href="#SegoeUIEmoji-29"/>
     </g>
    </g>
   </g>
   <g id="patch_13">
    <path d="M 108 512.64 
L 108 69.12 
" style="fill:none;stroke:#000000;stroke-linecap:square;stroke-linejoin:miter;stroke-width:0.8;"/>
   </g>
   <g id="patch_14">
    <path d="M 777.6 512.64 
L 777.6 69.12 
" style="fill:none;stroke:#000000;stroke-linecap:square;stroke-linejoin:miter;stroke-width:0.8;"/>
   </g>
   <g id="patch_15">
    <path d="M 108 512.64 
L 777.6 512.64 
" style="fill:none;stroke:#000000;stroke-linecap:square;stroke-linejoin:miter;stroke-width:0.8;"/>
   </g>
   <g id="patch_16">
    <path d="M 108 69.12 
L 777.6 69.12 
" style="fill:none;stroke:#000000;stroke-linecap:square;stroke-linejoin:miter;stroke-width:0.8;"/>
   </g>
   <g id="text_21">
    <!-- Thai top 10 emoji usage on Twitter (February 2017) -->
    <defs>
     <path d="M 49.609375 0 
L 41.609375 0 
L 41.609375 28.8125 
Q 41.609375 44.4375 29.984375 44.4375 
Q 24.125 44.4375 20.109375 39.921875 
Q 16.109375 35.40625 16.109375 28.328125 
L 16.109375 0 
L 8.109375 0 
L 8.109375 74.03125 
L 16.109375 74.03125 
L 16.109375 41.703125 
L 16.3125 41.703125 
Q 22.078125 51.171875 32.71875 51.171875 
Q 49.609375 51.171875 49.609375 30.8125 
z
" id="SegoeUIEmoji-68"/>
     <path d="M 43.890625 0 
L 35.890625 0 
L 35.890625 7.8125 
L 35.6875 7.8125 
Q 30.46875 -1.171875 20.3125 -1.171875 
Q 12.84375 -1.171875 8.609375 2.78125 
Q 4.390625 6.734375 4.390625 13.28125 
Q 4.390625 27.296875 20.90625 29.59375 
L 35.890625 31.6875 
Q 35.890625 44.4375 25.59375 44.4375 
Q 16.546875 44.4375 9.28125 38.28125 
L 9.28125 46.484375 
Q 16.65625 51.171875 26.265625 51.171875 
Q 43.890625 51.171875 43.890625 32.515625 
z
M 35.890625 25.296875 
L 23.828125 23.640625 
Q 18.265625 22.859375 15.421875 20.875 
Q 12.59375 18.890625 12.59375 13.875 
Q 12.59375 10.203125 15.203125 7.875 
Q 17.828125 5.5625 22.171875 5.5625 
Q 28.125 5.5625 32 9.734375 
Q 35.890625 13.921875 35.890625 20.3125 
z
" id="SegoeUIEmoji-61"/>
     <path d="M 31.296875 0.484375 
Q 28.46875 -1.078125 23.828125 -1.078125 
Q 10.6875 -1.078125 10.6875 13.578125 
L 10.6875 43.171875 
L 2.09375 43.171875 
L 2.09375 50 
L 10.6875 50 
L 10.6875 62.203125 
L 18.703125 64.796875 
L 18.703125 50 
L 31.296875 50 
L 31.296875 43.171875 
L 18.703125 43.171875 
L 18.703125 14.984375 
Q 18.703125 9.96875 20.40625 7.8125 
Q 22.125 5.671875 26.078125 5.671875 
Q 29.109375 5.671875 31.296875 7.328125 
z
" id="SegoeUIEmoji-74"/>
     <path d="M 16.3125 7.234375 
L 16.109375 7.234375 
L 16.109375 -23 
L 8.109375 -23 
L 8.109375 50 
L 16.109375 50 
L 16.109375 41.21875 
L 16.3125 41.21875 
Q 22.21875 51.171875 33.59375 51.171875 
Q 43.265625 51.171875 48.6875 44.453125 
Q 54.109375 37.75 54.109375 26.46875 
Q 54.109375 13.921875 48 6.375 
Q 41.890625 -1.171875 31.296875 -1.171875 
Q 21.578125 -1.171875 16.3125 7.234375 
z
M 16.109375 27.390625 
L 16.109375 20.40625 
Q 16.109375 14.203125 20.140625 9.875 
Q 24.171875 5.5625 30.375 5.5625 
Q 37.640625 5.5625 41.765625 11.125 
Q 45.90625 16.703125 45.90625 26.609375 
Q 45.90625 34.96875 42.046875 39.703125 
Q 38.1875 44.4375 31.59375 44.4375 
Q 24.609375 44.4375 20.359375 39.578125 
Q 16.109375 34.71875 16.109375 27.390625 
z
" id="SegoeUIEmoji-70"/>
     <path d="M 50.78125 4 
Q 50.78125 -23.53125 24.421875 -23.53125 
Q 15.140625 -23.53125 8.203125 -20.015625 
L 8.203125 -12.015625 
Q 16.65625 -16.703125 24.3125 -16.703125 
Q 42.78125 -16.703125 42.78125 2.9375 
L 42.78125 8.40625 
L 42.578125 8.40625 
Q 36.859375 -1.171875 25.390625 -1.171875 
Q 16.0625 -1.171875 10.375 5.484375 
Q 4.6875 12.15625 4.6875 23.390625 
Q 4.6875 36.140625 10.8125 43.65625 
Q 16.9375 51.171875 27.59375 51.171875 
Q 37.703125 51.171875 42.578125 43.0625 
L 42.78125 43.0625 
L 42.78125 50 
L 50.78125 50 
z
M 42.78125 22.609375 
L 42.78125 29.984375 
Q 42.78125 35.9375 38.75 40.1875 
Q 34.71875 44.4375 28.71875 44.4375 
Q 21.296875 44.4375 17.09375 39.03125 
Q 12.890625 33.640625 12.890625 23.921875 
Q 12.890625 15.578125 16.921875 10.5625 
Q 20.953125 5.5625 27.59375 5.5625 
Q 34.328125 5.5625 38.546875 10.34375 
Q 42.78125 15.140625 42.78125 22.609375 
z
" id="SegoeUIEmoji-67"/>
     <path d="M 71.09375 50 
L 56.109375 0 
L 47.796875 0 
L 37.5 35.796875 
Q 36.921875 37.84375 36.71875 40.4375 
L 36.53125 40.4375 
Q 36.375 38.671875 35.5 35.890625 
L 24.3125 0 
L 16.3125 0 
L 1.171875 50 
L 9.578125 50 
L 19.921875 12.40625 
Q 20.40625 10.6875 20.609375 7.90625 
L 21 7.90625 
Q 21.140625 10.0625 21.875 12.5 
L 33.40625 50 
L 40.71875 50 
L 51.078125 12.3125 
Q 51.5625 10.5 51.8125 7.8125 
L 52.203125 7.8125 
Q 52.296875 9.71875 53.03125 12.3125 
L 63.1875 50 
z
" id="SegoeUIEmoji-77"/>
     <path d="M 16.3125 7.234375 
L 16.109375 7.234375 
L 16.109375 0 
L 8.109375 0 
L 8.109375 74.03125 
L 16.109375 74.03125 
L 16.109375 41.21875 
L 16.3125 41.21875 
Q 22.21875 51.171875 33.59375 51.171875 
Q 43.21875 51.171875 48.65625 44.453125 
Q 54.109375 37.75 54.109375 26.46875 
Q 54.109375 13.921875 48 6.375 
Q 41.890625 -1.171875 31.296875 -1.171875 
Q 21.390625 -1.171875 16.3125 7.234375 
z
M 16.109375 27.390625 
L 16.109375 20.40625 
Q 16.109375 14.203125 20.140625 9.875 
Q 24.171875 5.5625 30.375 5.5625 
Q 37.640625 5.5625 41.765625 11.125 
Q 45.90625 16.703125 45.90625 26.609375 
Q 45.90625 34.96875 42.046875 39.703125 
Q 38.1875 44.4375 31.59375 44.4375 
Q 24.609375 44.4375 20.359375 39.578125 
Q 16.109375 34.71875 16.109375 27.390625 
z
" id="SegoeUIEmoji-62"/>
     <path d="M 49.3125 67.484375 
L 21.578125 0 
L 13.28125 0 
L 39.5 62.796875 
L 4.203125 62.796875 
L 4.203125 70.015625 
L 49.3125 70.015625 
z
" id="SegoeUIEmoji-37"/>
    </defs>
    <g transform="translate(226.893 49.12)scale(0.192 -0.192)">
     <use xlink:href="#SegoeUIEmoji-54"/>
     <use x="52.392578" xlink:href="#SegoeUIEmoji-68"/>
     <use x="108.984375" xlink:href="#SegoeUIEmoji-61"/>
     <use x="159.863281" xlink:href="#SegoeUIEmoji-69"/>
     <use x="184.082031" xlink:href="#SegoeUIEmoji-20"/>
     <use x="211.474609" xlink:href="#SegoeUIEmoji-74"/>
     <use x="245.361328" xlink:href="#SegoeUIEmoji-6f"/>
     <use x="303.955078" xlink:href="#SegoeUIEmoji-70"/>
     <use x="362.744141" xlink:href="#SegoeUIEmoji-20"/>
     <use x="390.136719" xlink:href="#SegoeUIEmoji-31"/>
     <use x="444.042969" xlink:href="#SegoeUIEmoji-30"/>
     <use x="497.949219" xlink:href="#SegoeUIEmoji-20"/>
     <use x="525.341797" xlink:href="#SegoeUIEmoji-65"/>
     <use x="577.636719" xlink:href="#SegoeUIEmoji-6d"/>
     <use x="663.769531" xlink:href="#SegoeUIEmoji-6f"/>
     <use x="722.363281" xlink:href="#SegoeUIEmoji-6a"/>
     <use x="746.582031" xlink:href="#SegoeUIEmoji-69"/>
     <use x="770.800781" xlink:href="#SegoeUIEmoji-20"/>
     <use x="798.193359" xlink:href="#SegoeUIEmoji-75"/>
     <use x="854.785156" xlink:href="#SegoeUIEmoji-73"/>
     <use x="897.216797" xlink:href="#SegoeUIEmoji-61"/>
     <use x="948.095703" xlink:href="#SegoeUIEmoji-67"/>
     <use x="1006.982422" xlink:href="#SegoeUIEmoji-65"/>
     <use x="1059.277344" xlink:href="#SegoeUIEmoji-20"/>
     <use x="1086.669922" xlink:href="#SegoeUIEmoji-6f"/>
     <use x="1145.263672" xlink:href="#SegoeUIEmoji-6e"/>
     <use x="1201.855469" xlink:href="#SegoeUIEmoji-20"/>
     <use x="1229.248047" xlink:href="#SegoeUIEmoji-54"/>
     <use x="1281.5625" xlink:href="#SegoeUIEmoji-77"/>
     <use x="1353.828125" xlink:href="#SegoeUIEmoji-69"/>
     <use x="1378.046875" xlink:href="#SegoeUIEmoji-74"/>
     <use x="1411.933594" xlink:href="#SegoeUIEmoji-74"/>
     <use x="1445.820312" xlink:href="#SegoeUIEmoji-65"/>
     <use x="1498.115234" xlink:href="#SegoeUIEmoji-72"/>
     <use x="1532.880859" xlink:href="#SegoeUIEmoji-20"/>
     <use x="1560.273438" xlink:href="#SegoeUIEmoji-28"/>
     <use x="1590.449219" xlink:href="#SegoeUIEmoji-46"/>
     <use x="1639.277344" xlink:href="#SegoeUIEmoji-65"/>
     <use x="1691.572266" xlink:href="#SegoeUIEmoji-62"/>
     <use x="1750.361328" xlink:href="#SegoeUIEmoji-72"/>
     <use x="1785.126953" xlink:href="#SegoeUIEmoji-75"/>
     <use x="1841.71875" xlink:href="#SegoeUIEmoji-61"/>
     <use x="1892.597656" xlink:href="#SegoeUIEmoji-72"/>
     <use x="1927.425781" xlink:href="#SegoeUIEmoji-79"/>
     <use x="1975.814453" xlink:href="#SegoeUIEmoji-20"/>
     <use x="2003.207031" xlink:href="#SegoeUIEmoji-32"/>
     <use x="2057.113281" xlink:href="#SegoeUIEmoji-30"/>
     <use x="2111.019531" xlink:href="#SegoeUIEmoji-31"/>
     <use x="2164.925781" xlink:href="#SegoeUIEmoji-37"/>
     <use x="2218.832031" xlink:href="#SegoeUIEmoji-29"/>
    </g>
   </g>
  </g>
 </g>
 <defs>
  <clipPath id="pf557abe8e4">
   <rect height="443.52" width="669.6" x="108" y="69.12"/>
  </clipPath>
 </defs>
</svg>
