<?xml version="1.0" encoding="utf-8" standalone="no"?>
<!DOCTYPE svg PUBLIC "-//W3C//DTD SVG 1.1//EN"
  "http://www.w3.org/Graphics/SVG/1.1/DTD/svg11.dtd">
<!-- Created with matplotlib (http://matplotlib.org/) -->
<svg height="701.28pt" version="1.1" viewBox="0 0 920.16 701.28" width="920.16pt" xmlns="http://www.w3.org/2000/svg" xmlns:xlink="http://www.w3.org/1999/xlink">
 <defs>
  <style type="text/css">
*{stroke-linecap:butt;stroke-linejoin:round;}
  </style>
 </defs>
 <g id="figure_1">
  <g id="patch_1">
   <path d="M 0 701.28 
L 920.16 701.28 
L 920.16 0 
L 0 0 
z
" style="fill:#ffffff;"/>
  </g>
  <g id="axes_1">
   <g id="patch_2">
    <path d="M 115.02 624.1392 
L 828.144 624.1392 
L 828.144 84.1536 
L 115.02 84.1536 
z
" style="fill:#ffffff;"/>
   </g>
   <g id="patch_3">
    <path clip-path="url(#p2c2945c519)" d="M 147.434727 624.1392 
L 200.356731 624.1392 
L 200.356731 109.8672 
L 147.434727 109.8672 
z
" style="fill:#7bc8f6;"/>
   </g>
   <g id="patch_4">
    <path clip-path="url(#p2c2945c519)" d="M 213.587232 624.1392 
L 266.509236 624.1392 
L 266.509236 359.760435 
L 213.587232 359.760435 
z
" style="fill:#7bc8f6;"/>
   </g>
   <g id="patch_5">
    <path clip-path="url(#p2c2945c519)" d="M 279.739737 624.1392 
L 332.66174 624.1392 
L 332.66174 442.178107 
L 279.739737 442.178107 
z
" style="fill:#7bc8f6;"/>
   </g>
   <g id="patch_6">
    <path clip-path="url(#p2c2945c519)" d="M 345.892241 624.1392 
L 398.814245 624.1392 
L 398.814245 443.355502 
L 345.892241 443.355502 
z
" style="fill:#7bc8f6;"/>
   </g>
   <g id="patch_7">
    <path clip-path="url(#p2c2945c519)" d="M 412.044746 624.1392 
L 464.96675 624.1392 
L 464.96675 474.395924 
L 412.044746 474.395924 
z
" style="fill:#7bc8f6;"/>
   </g>
   <g id="patch_8">
    <path clip-path="url(#p2c2945c519)" d="M 478.19725 624.1392 
L 531.119254 624.1392 
L 531.119254 483.422621 
L 478.19725 483.422621 
z
" style="fill:#7bc8f6;"/>
   </g>
   <g id="patch_9">
    <path clip-path="url(#p2c2945c519)" d="M 544.349755 624.1392 
L 597.271759 624.1392 
L 597.271759 489.77342 
L 544.349755 489.77342 
z
" style="fill:#7bc8f6;"/>
   </g>
   <g id="patch_10">
    <path clip-path="url(#p2c2945c519)" d="M 610.50226 624.1392 
L 663.424263 624.1392 
L 663.424263 495.589039 
L 610.50226 495.589039 
z
" style="fill:#7bc8f6;"/>
   </g>
   <g id="patch_11">
    <path clip-path="url(#p2c2945c519)" d="M 676.654764 624.1392 
L 729.576768 624.1392 
L 729.576768 508.75446 
L 676.654764 508.75446 
z
" style="fill:#7bc8f6;"/>
   </g>
   <g id="patch_12">
    <path clip-path="url(#p2c2945c519)" d="M 742.807269 624.1392 
L 795.729273 624.1392 
L 795.729273 513.142933 
L 742.807269 513.142933 
z
" style="fill:#7bc8f6;"/>
   </g>
   <g id="matplotlib.axis_1">
    <g id="xtick_1">
     <g id="line2d_1">
      <defs>
       <path d="M 0 0 
L 0 3.5 
" id="md634186dab" style="stroke:#000000;stroke-width:0.8;"/>
      </defs>
      <g>
       <use style="stroke:#000000;stroke-width:0.8;" x="173.895729" xlink:href="#md634186dab" y="624.1392"/>
      </g>
     </g>
     <g id="text_1">
      <!-- ðŸ˜‚ -->
      <defs>
       <path d="M 124.8125 35.109375 
Q 124.8125 32.234375 124.515625 29.390625 
Q 124.21875 26.5625 123.6875 23.78125 
Q 124.8125 20.703125 124.8125 17.578125 
Q 124.8125 14.84375 123.96875 12.25 
Q 123.140625 9.671875 121.625 7.5 
Q 120.125 5.328125 118 3.65625 
Q 115.875 2 113.28125 1.078125 
Q 109.28125 -4.15625 104.265625 -8.25 
Q 99.265625 -12.359375 93.546875 -15.1875 
Q 87.84375 -18.015625 81.546875 -19.53125 
Q 75.25 -21.046875 68.65625 -21.046875 
Q 62.0625 -21.046875 55.765625 -19.546875 
Q 49.46875 -18.0625 43.75 -15.203125 
Q 38.03125 -12.359375 33.03125 -8.25 
Q 28.03125 -4.15625 24.03125 1.078125 
Q 21.4375 2 19.3125 3.65625 
Q 17.1875 5.328125 15.671875 7.5 
Q 14.15625 9.671875 13.328125 12.25 
Q 12.5 14.84375 12.5 17.578125 
Q 12.5 20.703125 13.625 23.78125 
Q 13.09375 26.5625 12.796875 29.390625 
Q 12.5 32.234375 12.5 35.109375 
Q 12.5 42.828125 14.5 50 
Q 16.5 57.171875 20.15625 63.421875 
Q 23.828125 69.671875 28.953125 74.796875 
Q 34.078125 79.9375 40.328125 83.59375 
Q 46.578125 87.25 53.734375 89.25 
Q 60.890625 91.265625 68.65625 91.265625 
Q 76.375 91.265625 83.546875 89.25 
Q 90.71875 87.25 96.96875 83.59375 
Q 103.21875 79.9375 108.34375 74.796875 
Q 113.484375 69.671875 117.140625 63.421875 
Q 120.796875 57.171875 122.796875 50 
Q 124.8125 42.828125 124.8125 35.109375 
z
M 68.65625 -3.515625 
Q 62.84375 -3.515625 57.734375 -1.296875 
Q 52.640625 0.921875 48.828125 4.734375 
Q 45.015625 8.546875 42.796875 13.640625 
Q 40.578125 18.75 40.578125 24.5625 
L 40.578125 17.578125 
Q 40.578125 15.375 39.75 13.46875 
Q 38.921875 11.578125 37.46875 10.125 
Q 36.03125 8.6875 34.125 7.859375 
Q 32.234375 7.03125 30.03125 7.03125 
Q 29.109375 7.03125 28.21875 7.171875 
Q 31.640625 2.203125 36.125 -1.734375 
Q 40.625 -5.671875 45.828125 -8.40625 
Q 51.03125 -11.140625 56.8125 -12.578125 
Q 62.59375 -14.015625 68.65625 -14.015625 
Q 74.703125 -14.015625 80.484375 -12.578125 
Q 86.28125 -11.140625 91.484375 -8.40625 
Q 96.6875 -5.671875 101.140625 -1.734375 
Q 105.609375 2.203125 109.078125 7.171875 
Q 108.203125 7.03125 107.28125 7.03125 
Q 105.078125 7.03125 103.140625 7.859375 
Q 101.21875 8.6875 99.796875 10.109375 
Q 98.390625 11.53125 97.5625 13.453125 
Q 96.734375 15.375 96.734375 17.578125 
L 96.734375 35.109375 
L 112.15625 26.90625 
Q 113.421875 26.21875 114.46875 25.21875 
Q 115.53125 24.21875 116.265625 23 
Q 117.78125 28.859375 117.78125 35.109375 
Q 117.78125 41.890625 116.015625 48.15625 
Q 114.265625 54.4375 111.0625 59.90625 
Q 107.859375 65.375 103.390625 69.84375 
Q 98.921875 74.3125 93.453125 77.515625 
Q 87.984375 80.71875 81.703125 82.46875 
Q 75.4375 84.234375 68.65625 84.234375 
Q 61.859375 84.234375 55.578125 82.46875 
Q 49.3125 80.71875 43.84375 77.53125 
Q 38.375 74.359375 33.90625 69.859375 
Q 29.4375 65.375 26.234375 59.9375 
Q 23.046875 54.5 21.28125 48.21875 
Q 19.53125 41.9375 19.53125 35.15625 
Q 19.53125 32.078125 19.890625 29.03125 
Q 20.265625 25.984375 21.046875 23 
Q 21.78125 24.21875 22.828125 25.21875 
Q 23.875 26.21875 25.140625 26.90625 
L 40.578125 35.109375 
L 37.0625 35.109375 
Q 37.0625 37.3125 37.890625 39.203125 
Q 38.71875 41.109375 40.15625 42.546875 
Q 41.609375 44 43.5 44.828125 
Q 45.40625 45.65625 47.609375 45.65625 
L 51.125 45.65625 
Q 53.328125 45.65625 55.21875 44.828125 
Q 57.125 44 58.546875 42.546875 
Q 59.96875 41.109375 60.796875 39.203125 
Q 61.625 37.3125 61.625 35.109375 
L 58.109375 35.109375 
Q 58.109375 36.578125 57.078125 37.59375 
Q 56.0625 38.625 54.59375 38.625 
L 44.09375 38.625 
Q 42.625 38.625 41.59375 37.59375 
Q 40.578125 36.578125 40.578125 35.109375 
L 40.578125 24.5625 
L 96.734375 24.5625 
Q 96.734375 18.75 94.5 13.640625 
Q 92.28125 8.546875 88.46875 4.734375 
Q 84.671875 0.921875 79.546875 -1.296875 
Q 74.421875 -3.515625 68.65625 -3.515625 
z
M 44.34375 21.046875 
Q 44.875 17.28125 46.4375 14.0625 
L 90.828125 14.0625 
Q 92.484375 17.4375 92.96875 21.046875 
z
M 75.6875 59.671875 
Q 75.6875 61.140625 76.703125 62.15625 
Q 77.734375 63.1875 79.203125 63.1875 
Q 82.46875 63.1875 85.78125 62.46875 
Q 89.109375 61.765625 92.203125 60.390625 
Q 95.3125 59.03125 98.015625 57.03125 
Q 100.734375 55.03125 102.875 52.484375 
Q 103.765625 51.375 103.765625 50.203125 
Q 103.765625 49.46875 103.46875 48.828125 
Q 103.171875 48.1875 102.6875 47.703125 
Q 102.203125 47.21875 101.5625 46.921875 
Q 100.921875 46.625 100.25 46.625 
Q 99.421875 46.625 98.78125 46.9375 
Q 98.140625 47.265625 97.609375 47.859375 
Q 93.75 51.8125 89.28125 53.984375 
Q 84.8125 56.15625 79.203125 56.15625 
Q 77.734375 56.15625 76.703125 57.171875 
Q 75.6875 58.203125 75.6875 59.671875 
z
M 58.109375 63.1875 
Q 59.578125 63.1875 60.59375 62.15625 
Q 61.625 61.140625 61.625 59.671875 
Q 61.625 58.203125 60.59375 57.171875 
Q 59.578125 56.15625 58.109375 56.15625 
Q 52.484375 56.15625 48.015625 53.984375 
Q 43.5625 51.8125 39.703125 47.859375 
Q 39.15625 47.265625 38.515625 46.9375 
Q 37.890625 46.625 37.0625 46.625 
Q 36.375 46.625 35.734375 46.921875 
Q 35.109375 47.21875 34.609375 47.703125 
Q 34.125 48.1875 33.828125 48.828125 
Q 33.546875 49.46875 33.546875 50.203125 
Q 33.546875 51.375 34.421875 52.484375 
Q 36.53125 55.03125 39.265625 57.03125 
Q 42 59.03125 45.09375 60.390625 
Q 48.1875 61.765625 51.484375 62.46875 
Q 54.78125 63.1875 58.109375 63.1875 
z
M 89.703125 45.65625 
Q 91.890625 45.65625 93.796875 44.828125 
Q 95.703125 44 97.140625 42.546875 
Q 98.578125 41.109375 99.40625 39.203125 
Q 100.25 37.3125 100.25 35.109375 
L 96.734375 35.109375 
Q 96.734375 36.578125 95.703125 37.59375 
Q 94.671875 38.625 93.21875 38.625 
L 82.671875 38.625 
Q 81.203125 38.625 80.203125 37.578125 
Q 79.203125 36.53125 79.203125 35.109375 
L 75.6875 35.109375 
Q 75.6875 37.3125 76.515625 39.203125 
Q 77.34375 41.109375 78.75 42.546875 
Q 80.171875 44 82.078125 44.828125 
Q 83.984375 45.65625 86.1875 45.65625 
z
M 68.65625 0 
Q 71.34375 0 73.96875 0.578125 
Q 76.609375 1.171875 79.046875 2.34375 
Q 77.046875 4.59375 74.359375 5.8125 
Q 71.6875 7.03125 68.703125 7.03125 
Q 65.671875 7.03125 62.953125 5.8125 
Q 60.25 4.59375 58.203125 2.34375 
Q 60.6875 1.171875 63.296875 0.578125 
Q 65.921875 0 68.65625 0 
z
" id="SegoeUIEmoji-1f602"/>
      </defs>
      <g transform="translate(163.568229 642.9842)scale(0.16 -0.16)">
       <use xlink:href="#SegoeUIEmoji-1f602"/>
      </g>
     </g>
    </g>
    <g id="xtick_2">
     <g id="line2d_2">
      <g>
       <use style="stroke:#000000;stroke-width:0.8;" x="240.048234" xlink:href="#md634186dab" y="624.1392"/>
      </g>
     </g>
     <g id="text_2">
      <!-- ðŸ˜­ -->
      <defs>
       <path d="M 124.8125 35.109375 
Q 124.8125 29.59375 123.734375 24.21875 
Q 122.65625 18.84375 120.578125 13.84375 
Q 118.5 8.84375 115.5 4.265625 
Q 112.5 -0.296875 108.6875 -4.25 
Q 109.71875 -5.609375 110.234375 -7.203125 
Q 110.75 -8.796875 110.75 -10.5 
Q 110.75 -12.703125 109.90625 -14.59375 
Q 109.078125 -16.5 107.65625 -17.9375 
Q 106.25 -19.390625 104.34375 -20.21875 
Q 102.4375 -21.046875 100.25 -21.046875 
L 37.0625 -21.046875 
Q 34.859375 -21.046875 32.953125 -20.21875 
Q 31.0625 -19.390625 29.609375 -17.9375 
Q 28.171875 -16.5 27.34375 -14.59375 
Q 26.515625 -12.703125 26.515625 -10.5 
Q 26.515625 -7.03125 28.609375 -4.25 
Q 24.703125 -0.34375 21.703125 4.25 
Q 18.703125 8.84375 16.640625 13.84375 
Q 14.59375 18.84375 13.546875 24.21875 
Q 12.5 29.59375 12.5 35.109375 
Q 12.5 42.828125 14.5 50 
Q 16.5 57.171875 20.15625 63.421875 
Q 23.828125 69.671875 28.953125 74.796875 
Q 34.078125 79.9375 40.328125 83.59375 
Q 46.578125 87.25 53.734375 89.25 
Q 60.890625 91.265625 68.65625 91.265625 
Q 76.375 91.265625 83.546875 89.25 
Q 90.71875 87.25 96.96875 83.59375 
Q 103.21875 79.9375 108.34375 74.796875 
Q 113.484375 69.671875 117.140625 63.421875 
Q 120.796875 57.171875 122.796875 50 
Q 124.8125 42.828125 124.8125 35.109375 
z
M 96.734375 -5.21875 
Q 101.703125 -1.8125 105.609375 2.671875 
Q 109.515625 7.171875 112.21875 12.375 
Q 114.9375 17.578125 116.359375 23.34375 
Q 117.78125 29.109375 117.78125 35.109375 
Q 117.78125 41.890625 116.015625 48.15625 
Q 114.265625 54.4375 111.0625 59.90625 
Q 107.859375 65.375 103.390625 69.84375 
Q 98.921875 74.3125 93.453125 77.515625 
Q 87.984375 80.71875 81.703125 82.46875 
Q 75.4375 84.234375 68.65625 84.234375 
Q 61.859375 84.234375 55.578125 82.46875 
Q 49.3125 80.71875 43.84375 77.515625 
Q 38.375 74.3125 33.90625 69.84375 
Q 29.4375 65.375 26.234375 59.90625 
Q 23.046875 54.4375 21.28125 48.15625 
Q 19.53125 41.890625 19.53125 35.109375 
Q 19.53125 29.109375 20.9375 23.34375 
Q 22.359375 17.578125 25.0625 12.375 
Q 27.78125 7.171875 31.6875 2.671875 
Q 35.59375 -1.8125 40.578125 -5.21875 
L 40.578125 38.625 
L 37.0625 38.625 
Q 37.0625 40.828125 37.890625 42.71875 
Q 38.71875 44.625 40.15625 46.046875 
Q 41.609375 47.46875 43.5 48.296875 
Q 45.40625 49.125 47.609375 49.125 
L 51.125 49.125 
Q 53.328125 49.125 55.21875 48.296875 
Q 57.125 47.46875 58.546875 46.046875 
Q 59.96875 44.625 60.796875 42.71875 
Q 61.625 40.828125 61.625 38.625 
L 58.109375 38.625 
Q 58.109375 40.09375 57.078125 41.109375 
Q 56.0625 42.140625 54.59375 42.140625 
L 54.59375 18.171875 
Q 54.6875 21 55.828125 23.4375 
Q 56.984375 25.875 58.90625 27.6875 
Q 60.84375 29.5 63.359375 30.546875 
Q 65.875 31.59375 68.65625 31.59375 
Q 71.53125 31.59375 74.09375 30.484375 
Q 76.65625 29.390625 78.5625 27.484375 
Q 80.46875 25.59375 81.5625 23.015625 
Q 82.671875 20.453125 82.671875 17.578125 
L 82.671875 42.140625 
Q 81.203125 42.140625 80.203125 41.109375 
Q 79.203125 40.09375 79.203125 38.625 
L 75.6875 38.625 
Q 75.6875 40.828125 76.515625 42.71875 
Q 77.34375 44.625 78.75 46.046875 
Q 80.171875 47.46875 82.078125 48.296875 
Q 83.984375 49.125 86.1875 49.125 
L 89.703125 49.125 
Q 91.890625 49.125 93.796875 48.296875 
Q 95.703125 47.46875 97.140625 46.046875 
Q 98.578125 44.625 99.40625 42.71875 
Q 100.25 40.828125 100.25 38.625 
L 96.734375 38.625 
z
M 68.65625 0 
Q 65.828125 0 63.3125 1.046875 
Q 60.796875 2.09375 58.890625 3.90625 
Q 56.984375 5.71875 55.828125 8.171875 
Q 54.6875 10.640625 54.59375 13.484375 
L 54.59375 -6.984375 
L 82.671875 -6.984375 
L 82.671875 13.484375 
Q 82.5625 10.640625 81.421875 8.171875 
Q 80.28125 5.71875 78.375 3.90625 
Q 76.46875 2.09375 73.96875 1.046875 
Q 71.484375 0 68.65625 0 
z
M 107.28125 56.15625 
Q 107.28125 54.734375 106.21875 53.6875 
Q 105.171875 52.640625 103.765625 52.640625 
Q 100.484375 52.640625 97.15625 53.34375 
Q 93.84375 54.046875 90.734375 55.40625 
Q 87.640625 56.78125 84.90625 58.78125 
Q 82.171875 60.796875 80.078125 63.328125 
Q 79.15625 64.40625 79.15625 65.71875 
Q 79.15625 67.140625 80.203125 68.15625 
Q 81.25 69.1875 82.671875 69.1875 
Q 83.5 69.1875 84.125 68.875 
Q 84.765625 68.5625 85.296875 68.015625 
Q 87.25 66.015625 89.296875 64.453125 
Q 91.359375 62.890625 93.59375 61.8125 
Q 95.84375 60.75 98.359375 60.203125 
Q 100.875 59.671875 103.765625 59.671875 
Q 105.171875 59.671875 106.21875 58.609375 
Q 107.28125 57.5625 107.28125 56.15625 
z
M 58.15625 65.71875 
Q 58.15625 64.40625 57.234375 63.328125 
Q 55.125 60.796875 52.390625 58.78125 
Q 49.65625 56.78125 46.546875 55.40625 
Q 43.453125 54.046875 40.125 53.34375 
Q 36.8125 52.640625 33.546875 52.640625 
Q 32.125 52.640625 31.078125 53.6875 
Q 30.03125 54.734375 30.03125 56.15625 
Q 30.03125 57.625 31.046875 58.640625 
Q 32.078125 59.671875 33.546875 59.671875 
Q 39.15625 59.671875 43.671875 61.84375 
Q 48.1875 64.015625 52 67.96875 
Q 52.546875 68.5625 53.171875 68.875 
Q 53.8125 69.1875 54.640625 69.1875 
Q 56.0625 69.1875 57.109375 68.15625 
Q 58.15625 67.140625 58.15625 65.71875 
z
M 78.5625 21.046875 
Q 78.03125 22.65625 77.03125 23.953125 
Q 76.03125 25.25 74.734375 26.140625 
Q 73.4375 27.046875 71.875 27.5625 
Q 70.3125 28.078125 68.65625 28.078125 
Q 66.9375 28.078125 65.40625 27.5625 
Q 63.875 27.046875 62.578125 26.140625 
Q 61.28125 25.25 60.28125 23.953125 
Q 59.28125 22.65625 58.734375 21.046875 
z
" id="SegoeUIEmoji-1f62d"/>
      </defs>
      <g transform="translate(229.720734 642.9842)scale(0.16 -0.16)">
       <use xlink:href="#SegoeUIEmoji-1f62d"/>
      </g>
     </g>
    </g>
    <g id="xtick_3">
     <g id="line2d_3">
      <g>
       <use style="stroke:#000000;stroke-width:0.8;" x="306.200738" xlink:href="#md634186dab" y="624.1392"/>
      </g>
     </g>
     <g id="text_3">
      <!-- ðŸ˜Š -->
      <defs>
       <path d="M 87.9375 47.40625 
Q 86.078125 47.40625 84.484375 46.71875 
Q 82.90625 46.046875 81.734375 44.84375 
Q 80.5625 43.65625 79.875 42.046875 
Q 79.203125 40.4375 79.203125 38.625 
L 75.6875 38.625 
L 75.6875 40.375 
Q 75.6875 42.921875 76.640625 45.15625 
Q 77.59375 47.40625 79.25 49.0625 
Q 80.90625 50.734375 83.125 51.6875 
Q 85.359375 52.640625 87.9375 52.640625 
Q 90.484375 52.640625 92.71875 51.6875 
Q 94.96875 50.734375 96.625 49.0625 
Q 98.296875 47.40625 99.265625 45.15625 
Q 100.25 42.921875 100.25 40.375 
L 100.25 38.625 
L 96.734375 38.625 
Q 96.734375 40.4375 96.046875 42.046875 
Q 95.359375 43.65625 94.15625 44.84375 
Q 92.96875 46.046875 91.359375 46.71875 
Q 89.75 47.40625 87.9375 47.40625 
z
M 49.359375 47.40625 
Q 47.515625 47.40625 45.921875 46.71875 
Q 44.34375 46.046875 43.140625 44.84375 
Q 41.9375 43.65625 41.25 42.046875 
Q 40.578125 40.4375 40.578125 38.625 
L 37.0625 38.625 
L 37.0625 40.375 
Q 37.0625 42.921875 38.03125 45.15625 
Q 39.015625 47.40625 40.671875 49.0625 
Q 42.328125 50.734375 44.578125 51.6875 
Q 46.828125 52.640625 49.359375 52.640625 
Q 51.90625 52.640625 54.140625 51.6875 
Q 56.390625 50.734375 58.046875 49.0625 
Q 59.71875 47.40625 60.671875 45.15625 
Q 61.625 42.921875 61.625 40.375 
L 61.625 38.625 
L 58.109375 38.625 
Q 58.109375 40.4375 57.421875 42.046875 
Q 56.734375 43.65625 55.5625 44.84375 
Q 54.390625 46.046875 52.78125 46.71875 
Q 51.171875 47.40625 49.359375 47.40625 
z
M 54.203125 21.625 
Q 52.9375 23.484375 51.484375 24.734375 
Q 50.046875 25.984375 47.609375 25.984375 
Q 46.625 25.984375 45.71875 25.703125 
Q 44.828125 25.4375 44 24.953125 
Q 42.390625 23.96875 41.484375 22.40625 
Q 40.578125 20.84375 40.578125 19 
Q 40.578125 17.671875 41.0625 16.5 
Q 41.546875 15.328125 42.28125 14.203125 
Q 40.4375 14.5 38.8125 15.453125 
Q 37.203125 16.40625 36.03125 17.796875 
Q 34.859375 19.1875 34.203125 20.921875 
Q 33.546875 22.65625 33.546875 24.5625 
Q 33.546875 26.765625 34.375 28.65625 
Q 35.203125 30.5625 36.640625 32 
Q 38.09375 33.453125 39.984375 34.28125 
Q 41.890625 35.109375 44.09375 35.109375 
Q 46.296875 35.109375 48.1875 34.28125 
Q 50.09375 33.453125 51.515625 32 
Q 52.9375 30.5625 53.765625 28.65625 
Q 54.59375 26.765625 54.59375 24.5625 
Q 54.59375 23.828125 54.515625 23.0625 
Q 54.4375 22.3125 54.203125 21.625 
z
M 93.21875 35.109375 
Q 95.40625 35.109375 97.3125 34.28125 
Q 99.21875 33.453125 100.65625 32 
Q 102.09375 30.5625 102.921875 28.65625 
Q 103.765625 26.765625 103.765625 24.5625 
Q 103.765625 22.65625 103.09375 20.890625 
Q 102.4375 19.140625 101.265625 17.75 
Q 100.09375 16.359375 98.484375 15.421875 
Q 96.875 14.5 94.96875 14.203125 
Q 95.75 15.328125 96.21875 16.375 
Q 96.6875 17.4375 96.6875 18.84375 
Q 96.6875 20.3125 96.140625 21.625 
Q 95.609375 22.953125 94.65625 23.90625 
Q 93.703125 24.859375 92.40625 25.421875 
Q 91.109375 25.984375 89.65625 25.984375 
Q 88.375 25.984375 87.453125 25.65625 
Q 86.53125 25.34375 85.765625 24.78125 
Q 85.015625 24.21875 84.375 23.4375 
Q 83.734375 22.65625 83.109375 21.6875 
Q 82.671875 23.046875 82.671875 24.5625 
Q 82.671875 26.765625 83.5 28.65625 
Q 84.328125 30.5625 85.765625 32 
Q 87.203125 33.453125 89.109375 34.28125 
Q 91.015625 35.109375 93.21875 35.109375 
z
M 89.65625 22.46875 
Q 91.15625 22.46875 92.15625 21.453125 
Q 93.171875 20.453125 93.171875 18.953125 
Q 93.171875 18.359375 92.921875 17.71875 
Q 92.671875 17.09375 92.296875 16.484375 
Q 91.9375 15.875 91.515625 15.3125 
Q 91.109375 14.75 90.765625 14.3125 
Q 86.671875 9.125 80.953125 6.3125 
Q 75.25 3.515625 68.65625 3.515625 
Q 62.015625 3.515625 56.34375 6.3125 
Q 50.6875 9.125 46.53125 14.3125 
Q 46.1875 14.75 45.75 15.3125 
Q 45.3125 15.875 44.9375 16.484375 
Q 44.578125 17.09375 44.328125 17.71875 
Q 44.09375 18.359375 44.09375 18.953125 
Q 44.09375 20.359375 45.140625 21.40625 
Q 46.1875 22.46875 47.609375 22.46875 
Q 48.640625 22.46875 49.3125 22 
Q 50 21.53125 50.59375 20.75 
Q 51.21875 19.921875 51.78125 19.140625 
Q 52.34375 18.359375 53.03125 17.578125 
Q 59.234375 10.546875 68.65625 10.546875 
Q 77.9375 10.546875 84.234375 17.578125 
Q 84.90625 18.359375 85.46875 19.140625 
Q 86.03125 19.921875 86.671875 20.75 
Q 87.25 21.53125 87.9375 22 
Q 88.625 22.46875 89.65625 22.46875 
z
M 68.65625 91.265625 
Q 76.421875 91.265625 83.59375 89.25 
Q 90.765625 87.25 96.984375 83.59375 
Q 103.21875 79.9375 108.34375 74.796875 
Q 113.484375 69.671875 117.140625 63.453125 
Q 120.796875 57.234375 122.796875 50.046875 
Q 124.8125 42.875 124.8125 35.109375 
Q 124.8125 27.34375 122.796875 20.15625 
Q 120.796875 12.984375 117.140625 6.75 
Q 113.484375 0.53125 108.34375 -4.59375 
Q 103.21875 -9.71875 96.984375 -13.375 
Q 90.765625 -17.046875 83.59375 -19.046875 
Q 76.421875 -21.046875 68.65625 -21.046875 
Q 60.890625 -21.046875 53.703125 -19.046875 
Q 46.53125 -17.046875 40.296875 -13.375 
Q 34.078125 -9.71875 28.953125 -4.59375 
Q 23.828125 0.53125 20.15625 6.75 
Q 16.5 12.984375 14.5 20.15625 
Q 12.5 27.34375 12.5 35.109375 
Q 12.5 42.875 14.5 50.046875 
Q 16.5 57.234375 20.15625 63.453125 
Q 23.828125 69.671875 28.953125 74.796875 
Q 34.078125 79.9375 40.296875 83.59375 
Q 46.53125 87.25 53.703125 89.25 
Q 60.890625 91.265625 68.65625 91.265625 
z
M 68.65625 -14.015625 
Q 75.4375 -14.015625 81.703125 -12.25 
Q 87.984375 -10.5 93.453125 -7.296875 
Q 98.921875 -4.109375 103.390625 0.359375 
Q 107.859375 4.828125 111.0625 10.296875 
Q 114.265625 15.765625 116.015625 22.046875 
Q 117.78125 28.328125 117.78125 35.109375 
Q 117.78125 41.890625 116.015625 48.15625 
Q 114.265625 54.4375 111.0625 59.90625 
Q 107.859375 65.375 103.390625 69.84375 
Q 98.921875 74.3125 93.453125 77.515625 
Q 87.984375 80.71875 81.703125 82.46875 
Q 75.4375 84.234375 68.65625 84.234375 
Q 61.859375 84.234375 55.578125 82.46875 
Q 49.3125 80.71875 43.84375 77.515625 
Q 38.375 74.3125 33.90625 69.84375 
Q 29.4375 65.375 26.234375 59.90625 
Q 23.046875 54.4375 21.28125 48.15625 
Q 19.53125 41.890625 19.53125 35.109375 
Q 19.53125 28.328125 21.28125 22.046875 
Q 23.046875 15.765625 26.234375 10.296875 
Q 29.4375 4.828125 33.90625 0.359375 
Q 38.375 -4.109375 43.84375 -7.296875 
Q 49.3125 -10.5 55.578125 -12.25 
Q 61.859375 -14.015625 68.65625 -14.015625 
z
" id="SegoeUIEmoji-1f60a"/>
      </defs>
      <g transform="translate(295.873238 642.9842)scale(0.16 -0.16)">
       <use xlink:href="#SegoeUIEmoji-1f60a"/>
      </g>
     </g>
    </g>
    <g id="xtick_4">
     <g id="line2d_4">
      <g>
       <use style="stroke:#000000;stroke-width:0.8;" x="372.353243" xlink:href="#md634186dab" y="624.1392"/>
      </g>
     </g>
     <g id="text_4">
      <!-- â¤ -->
      <defs>
       <path d="M 92.96875 84.234375 
Q 97.359375 84.234375 101.40625 83.078125 
Q 105.46875 81.9375 109 79.859375 
Q 112.546875 77.78125 115.453125 74.875 
Q 118.359375 71.96875 120.4375 68.421875 
Q 122.515625 64.890625 123.65625 60.828125 
Q 124.8125 56.78125 124.8125 52.390625 
Q 124.8125 45.90625 122.4375 40.1875 
Q 120.0625 34.46875 115.484375 29.890625 
L 68.65625 -16.9375 
L 21.828125 29.890625 
Q 17.234375 34.46875 14.859375 40.1875 
Q 12.5 45.90625 12.5 52.390625 
Q 12.5 56.78125 13.640625 60.859375 
Q 14.796875 64.9375 16.84375 68.453125 
Q 18.890625 71.96875 21.8125 74.890625 
Q 24.75 77.828125 28.265625 79.875 
Q 31.78125 81.9375 35.859375 83.078125 
Q 39.9375 84.234375 44.34375 84.234375 
Q 48.09375 84.234375 51.40625 83.46875 
Q 54.734375 82.71875 57.6875 81.296875 
Q 60.640625 79.890625 63.34375 77.8125 
Q 66.0625 75.734375 68.65625 73.09375 
Q 71.234375 75.734375 73.9375 77.8125 
Q 76.65625 79.890625 79.609375 81.328125 
Q 82.5625 82.765625 85.875 83.5 
Q 89.203125 84.234375 92.96875 84.234375 
z
M 68.65625 -7.03125 
L 110.5 34.859375 
Q 114.015625 38.375 115.890625 42.890625 
Q 117.78125 47.40625 117.78125 52.390625 
Q 117.78125 57.515625 115.828125 62.03125 
Q 113.875 66.546875 110.5 69.921875 
Q 107.125 73.296875 102.609375 75.25 
Q 98.09375 77.203125 92.96875 77.203125 
Q 88.96875 77.203125 85.84375 76.21875 
Q 82.71875 75.25 80.078125 73.5625 
Q 77.4375 71.875 75.0625 69.59375 
Q 72.703125 67.328125 70.21875 64.796875 
L 68.65625 63.1875 
L 67.234375 64.65625 
Q 64.75 67.234375 62.359375 69.5 
Q 59.96875 71.78125 57.296875 73.484375 
Q 54.640625 75.203125 51.484375 76.203125 
Q 48.34375 77.203125 44.34375 77.203125 
Q 39.203125 77.203125 34.6875 75.25 
Q 30.171875 73.296875 26.796875 69.921875 
Q 23.4375 66.546875 21.484375 62.03125 
Q 19.53125 57.515625 19.53125 52.390625 
Q 19.53125 47.40625 21.40625 42.890625 
Q 23.296875 38.375 26.8125 34.859375 
z
" id="SegoeUIEmoji-2764"/>
      </defs>
      <g transform="translate(361.368243 643.6467)scale(0.16 -0.16)">
       <use xlink:href="#SegoeUIEmoji-2764"/>
      </g>
     </g>
    </g>
    <g id="xtick_5">
     <g id="line2d_5">
      <g>
       <use style="stroke:#000000;stroke-width:0.8;" x="438.505748" xlink:href="#md634186dab" y="624.1392"/>
      </g>
     </g>
     <g id="text_5">
      <!-- ðŸ˜ -->
      <defs>
       <path d="M 117.78125 35.109375 
Q 117.78125 36.671875 117.703125 38.1875 
Q 117.625 39.703125 117.390625 41.265625 
Q 119.234375 43.359375 120.265625 45.96875 
Q 121.296875 48.578125 121.296875 51.375 
Q 121.296875 54.59375 120.125 57.4375 
Q 118.953125 60.296875 116.875 62.421875 
Q 114.796875 64.546875 111.984375 65.8125 
Q 109.1875 67.09375 105.90625 67.140625 
Q 102.4375 71.234375 98.1875 74.40625 
Q 93.953125 77.59375 89.15625 79.765625 
Q 84.375 81.9375 79.171875 83.078125 
Q 73.96875 84.234375 68.65625 84.234375 
Q 63.28125 84.234375 58.109375 83.078125 
Q 52.9375 81.9375 48.140625 79.765625 
Q 43.359375 77.59375 39.109375 74.40625 
Q 34.859375 71.234375 31.390625 67.140625 
Q 29.203125 67.09375 27.125 66.453125 
Q 25.046875 65.828125 23.265625 64.671875 
Q 21.484375 63.53125 20.015625 61.9375 
Q 18.5625 60.359375 17.578125 58.34375 
Q 21 65.875 26.3125 71.953125 
Q 31.640625 78.03125 38.296875 82.328125 
Q 44.96875 86.625 52.6875 88.9375 
Q 60.40625 91.265625 68.65625 91.265625 
Q 76.375 91.265625 83.546875 89.25 
Q 90.71875 87.25 96.96875 83.59375 
Q 103.21875 79.9375 108.34375 74.796875 
Q 113.484375 69.671875 117.140625 63.421875 
Q 120.796875 57.171875 122.796875 50 
Q 124.8125 42.828125 124.8125 35.109375 
Q 124.8125 27.34375 122.796875 20.1875 
Q 120.796875 13.03125 117.140625 6.78125 
Q 113.484375 0.53125 108.34375 -4.59375 
Q 103.21875 -9.71875 96.96875 -13.375 
Q 90.71875 -17.046875 83.546875 -19.046875 
Q 76.375 -21.046875 68.65625 -21.046875 
Q 60.890625 -21.046875 53.734375 -19.046875 
Q 46.578125 -17.046875 40.328125 -13.375 
Q 34.078125 -9.71875 28.953125 -4.59375 
Q 23.828125 0.53125 20.15625 6.78125 
Q 16.5 13.03125 14.5 20.203125 
Q 12.5 27.390625 12.5 35.109375 
Q 12.5 46.78125 17.140625 57.46875 
Q 16.609375 56.0625 16.28125 54.59375 
Q 15.96875 53.125 15.96875 51.609375 
Q 15.96875 48.734375 16.984375 46.0625 
Q 18.015625 43.40625 19.875 41.265625 
Q 19.671875 39.703125 19.59375 38.1875 
Q 19.53125 36.671875 19.53125 35.109375 
Q 19.53125 28.328125 21.28125 22.046875 
Q 23.046875 15.765625 26.234375 10.296875 
Q 29.4375 4.828125 33.90625 0.359375 
Q 38.375 -4.109375 43.84375 -7.296875 
Q 49.3125 -10.5 55.578125 -12.25 
Q 61.859375 -14.015625 68.65625 -14.015625 
Q 75.4375 -14.015625 81.703125 -12.25 
Q 87.984375 -10.5 93.453125 -7.296875 
Q 98.921875 -4.109375 103.390625 0.359375 
Q 107.859375 4.828125 111.0625 10.296875 
Q 114.265625 15.765625 116.015625 22.046875 
Q 117.78125 28.328125 117.78125 35.109375 
z
M 96.734375 24.5625 
Q 96.734375 18.75 94.5 13.640625 
Q 92.28125 8.546875 88.46875 4.734375 
Q 84.671875 0.921875 79.5625 -1.296875 
Q 74.46875 -3.515625 68.65625 -3.515625 
Q 62.84375 -3.515625 57.734375 -1.296875 
Q 52.640625 0.921875 48.828125 4.734375 
Q 45.015625 8.546875 42.796875 13.640625 
Q 40.578125 18.75 40.578125 24.5625 
z
M 19.53125 51.5625 
Q 19.53125 54.109375 20.484375 56.296875 
Q 21.4375 58.5 23.09375 60.125 
Q 24.75 61.765625 26.96875 62.71875 
Q 29.203125 63.671875 31.734375 63.671875 
Q 33.984375 63.671875 35.671875 62.9375 
Q 37.359375 62.203125 39.3125 61.234375 
Q 39.546875 61.765625 39.84375 62.390625 
Q 40.140625 63.03125 40.484375 63.578125 
Q 41.265625 65.09375 42.40625 66.3125 
Q 43.5625 67.53125 44.96875 68.40625 
Q 46.390625 69.28125 48 69.75 
Q 49.609375 70.21875 51.3125 70.21875 
Q 53.8125 70.21875 56 69.265625 
Q 58.203125 68.3125 59.828125 66.671875 
Q 61.46875 65.046875 62.421875 62.84375 
Q 63.375 60.640625 63.375 58.15625 
Q 63.375 55.21875 62.109375 52.6875 
L 50.140625 28.765625 
L 26.171875 40.71875 
Q 24.65625 41.453125 23.4375 42.625 
Q 22.21875 43.796875 21.328125 45.203125 
Q 20.453125 46.625 19.984375 48.234375 
Q 19.53125 49.859375 19.53125 51.5625 
z
M 117.78125 51.609375 
Q 117.78125 48.09375 116.15625 45.546875 
Q 114.546875 43.015625 111.765625 41.0625 
Q 111.140625 40.625 110.0625 40.078125 
Q 108.984375 39.546875 107.78125 38.953125 
Q 106.59375 38.375 105.484375 37.859375 
Q 104.390625 37.359375 103.65625 37.015625 
L 87.15625 28.765625 
L 75.203125 52.6875 
Q 73.921875 55.21875 73.921875 58.109375 
Q 73.921875 60.59375 74.875 62.78125 
Q 75.828125 64.984375 77.46875 66.625 
Q 79.109375 68.265625 81.296875 69.21875 
Q 83.5 70.171875 85.984375 70.171875 
Q 89.5 70.171875 92.328125 68.40625 
Q 95.171875 66.65625 96.78125 63.578125 
L 98 61.234375 
Q 98.734375 61.578125 99.09375 61.765625 
Q 99.46875 61.96875 100.09375 62.25 
Q 100.140625 62.3125 100.234375 62.375 
Q 100.34375 62.453125 100.4375 62.453125 
Q 102.828125 63.625 105.609375 63.625 
Q 108.109375 63.625 110.328125 62.6875 
Q 112.546875 61.765625 114.203125 60.125 
Q 115.875 58.5 116.828125 56.296875 
Q 117.78125 54.109375 117.78125 51.609375 
z
M 44.34375 21.046875 
Q 44.875 17.28125 46.4375 14.0625 
L 90.828125 14.0625 
Q 92.484375 17.4375 92.96875 21.046875 
z
M 68.65625 0 
Q 71.34375 0 73.96875 0.578125 
Q 76.609375 1.171875 79.046875 2.34375 
Q 77.046875 4.640625 74.359375 5.828125 
Q 71.6875 7.03125 68.65625 7.03125 
Q 65.625 7.03125 62.9375 5.828125 
Q 60.25 4.640625 58.25 2.34375 
Q 60.6875 1.171875 63.328125 0.578125 
Q 65.96875 0 68.65625 0 
z
M 17.140625 57.46875 
L 17.578125 58.34375 
z
" id="SegoeUIEmoji-1f60d"/>
      </defs>
      <g transform="translate(428.178248 642.9842)scale(0.16 -0.16)">
       <use xlink:href="#SegoeUIEmoji-1f60d"/>
      </g>
     </g>
    </g>
    <g id="xtick_6">
     <g id="line2d_6">
      <g>
       <use style="stroke:#000000;stroke-width:0.8;" x="504.658252" xlink:href="#md634186dab" y="624.1392"/>
      </g>
     </g>
     <g id="text_6">
      <!-- ðŸ’• -->
      <defs>
       <path d="M 100.390625 77.203125 
Q 105.421875 77.203125 109.890625 75.296875 
Q 114.359375 73.390625 117.65625 70.09375 
Q 120.953125 66.796875 122.875 62.34375 
Q 124.8125 57.90625 124.8125 52.828125 
Q 124.8125 47.796875 122.96875 43.53125 
Q 121.140625 39.265625 117.671875 35.59375 
Q 114.84375 32.5625 111.890625 29.6875 
Q 108.9375 26.8125 106 23.875 
Q 100.140625 18.015625 94.359375 12.203125 
Q 88.578125 6.390625 82.671875 0.640625 
L 75.6875 7.625 
L 54.59375 -13.421875 
Q 48.828125 -7.515625 43.015625 -1.734375 
Q 37.203125 4.046875 31.34375 9.90625 
Q 28.421875 12.84375 25.46875 15.671875 
Q 22.515625 18.5 19.625 21.53125 
Q 16.21875 25.140625 14.359375 29.4375 
Q 12.5 33.734375 12.5 38.765625 
Q 12.5 43.796875 14.40625 48.234375 
Q 16.3125 52.6875 19.609375 55.984375 
Q 22.90625 59.28125 27.3125 61.203125 
Q 31.734375 63.140625 36.765625 63.140625 
Q 39.59375 63.140625 42.578125 62.453125 
Q 43.953125 65.828125 46.265625 68.53125 
Q 48.578125 71.234375 51.53125 73.15625 
Q 54.5 75.09375 57.90625 76.140625 
Q 61.328125 77.203125 64.9375 77.203125 
Q 67.328125 77.203125 69.796875 76.6875 
Q 72.265625 76.171875 74.578125 75.1875 
Q 76.90625 74.21875 78.984375 72.796875 
Q 81.0625 71.390625 82.671875 69.578125 
Q 86.328125 73.25 90.75 75.21875 
Q 95.171875 77.203125 100.390625 77.203125 
z
M 36.859375 56.15625 
Q 33.25 56.15625 30.09375 54.78125 
Q 26.953125 53.421875 24.609375 51.046875 
Q 22.265625 48.6875 20.890625 45.5 
Q 19.53125 42.328125 19.53125 38.765625 
Q 19.53125 35.25 20.828125 32.125 
Q 22.125 29 24.609375 26.515625 
L 54.59375 -3.515625 
L 84.625 26.515625 
Q 87.109375 29 88.40625 32.125 
Q 89.703125 35.25 89.703125 38.765625 
Q 89.703125 42.390625 88.328125 45.5625 
Q 86.96875 48.734375 84.625 51.078125 
Q 82.28125 53.421875 79.09375 54.78125 
Q 75.921875 56.15625 72.3125 56.15625 
Q 69.140625 56.15625 66.75 55.265625 
Q 64.359375 54.390625 62.359375 52.921875 
Q 60.359375 51.46875 58.5 49.5625 
Q 56.640625 47.65625 54.59375 45.65625 
Q 52.546875 47.703125 50.703125 49.609375 
Q 48.875 51.515625 46.875 52.96875 
Q 44.875 54.4375 42.484375 55.296875 
Q 40.09375 56.15625 36.859375 56.15625 
z
M 78.171875 15.09375 
L 82.671875 10.546875 
L 112.703125 40.53125 
Q 115.1875 43.015625 116.484375 46.15625 
Q 117.78125 49.3125 117.78125 52.828125 
Q 117.78125 56.390625 116.40625 59.5625 
Q 115.046875 62.75 112.703125 65.09375 
Q 110.359375 67.4375 107.171875 68.796875 
Q 104 70.171875 100.4375 70.171875 
Q 97.265625 70.171875 94.84375 69.28125 
Q 92.4375 68.40625 90.40625 66.96875 
Q 88.375 65.53125 86.546875 63.625 
Q 84.71875 61.71875 82.671875 59.671875 
L 81.203125 61.1875 
Q 79.4375 62.984375 77.734375 64.625 
Q 76.03125 66.265625 74.125 67.5 
Q 72.21875 68.75 69.96875 69.453125 
Q 67.71875 70.171875 64.84375 70.171875 
Q 61.03125 70.171875 57.828125 68.671875 
Q 54.640625 67.1875 52.09375 64.40625 
Q 51.46875 63.71875 50.75 62.734375 
Q 50.046875 61.765625 49.453125 60.671875 
Q 48.875 59.578125 48.453125 58.453125 
Q 48.046875 57.328125 48 56.453125 
Q 49.90625 55.328125 51.46875 53.734375 
Q 53.03125 52.15625 54.59375 50.59375 
Q 56.59375 52.640625 58.46875 54.3125 
Q 60.359375 56 62.421875 57.171875 
Q 64.5 58.34375 66.890625 59 
Q 69.28125 59.671875 72.3125 59.671875 
Q 76.65625 59.671875 80.46875 58.03125 
Q 84.28125 56.390625 87.109375 53.5625 
Q 89.9375 50.734375 91.578125 46.921875 
Q 93.21875 43.109375 93.21875 38.765625 
Q 93.21875 34.578125 91.625 30.765625 
Q 90.046875 26.953125 87.109375 24.03125 
z
" id="SegoeUIEmoji-1f495"/>
      </defs>
      <g transform="translate(494.330752 642.9842)scale(0.16 -0.16)">
       <use xlink:href="#SegoeUIEmoji-1f495"/>
      </g>
     </g>
    </g>
    <g id="xtick_7">
     <g id="line2d_7">
      <g>
       <use style="stroke:#000000;stroke-width:0.8;" x="570.810757" xlink:href="#md634186dab" y="624.1392"/>
      </g>
     </g>
     <g id="text_7">
      <!-- ðŸ˜¢ -->
      <defs>
       <path d="M 68.65625 91.265625 
Q 76.375 91.265625 83.546875 89.25 
Q 90.71875 87.25 96.96875 83.59375 
Q 103.21875 79.9375 108.34375 74.796875 
Q 113.484375 69.671875 117.140625 63.421875 
Q 120.796875 57.171875 122.796875 50 
Q 124.8125 42.828125 124.8125 35.109375 
Q 124.8125 27.34375 122.796875 20.1875 
Q 120.796875 13.03125 117.140625 6.78125 
Q 113.484375 0.53125 108.34375 -4.59375 
Q 103.21875 -9.71875 96.96875 -13.375 
Q 90.71875 -17.046875 83.546875 -19.046875 
Q 76.375 -21.046875 68.65625 -21.046875 
Q 60.890625 -21.046875 53.734375 -19.046875 
Q 46.578125 -17.046875 40.328125 -13.375 
Q 34.078125 -9.71875 28.953125 -4.59375 
Q 23.828125 0.53125 20.15625 6.78125 
Q 16.5 13.03125 14.5 20.203125 
Q 12.5 27.390625 12.5 35.109375 
Q 12.5 42.828125 14.5 50 
Q 16.5 57.171875 20.15625 63.421875 
Q 23.828125 69.671875 28.953125 74.796875 
Q 34.078125 79.9375 40.328125 83.59375 
Q 46.578125 87.25 53.734375 89.25 
Q 60.890625 91.265625 68.65625 91.265625 
z
M 68.65625 -14.015625 
Q 75.4375 -14.015625 81.703125 -12.25 
Q 87.984375 -10.5 93.453125 -7.296875 
Q 98.921875 -4.109375 103.390625 0.359375 
Q 107.859375 4.828125 111.0625 10.296875 
Q 114.265625 15.765625 116.015625 22.046875 
Q 117.78125 28.328125 117.78125 35.109375 
Q 117.78125 41.890625 116.015625 48.15625 
Q 114.265625 54.4375 111.0625 59.90625 
Q 107.859375 65.375 103.390625 69.84375 
Q 98.921875 74.3125 93.453125 77.515625 
Q 87.984375 80.71875 81.703125 82.46875 
Q 75.4375 84.234375 68.65625 84.234375 
Q 61.859375 84.234375 55.578125 82.46875 
Q 49.3125 80.71875 43.84375 77.515625 
Q 38.375 74.3125 33.90625 69.84375 
Q 29.4375 65.375 26.234375 59.90625 
Q 23.046875 54.4375 21.28125 48.15625 
Q 19.53125 41.890625 19.53125 35.109375 
Q 19.53125 26.703125 22.21875 18.9375 
Q 24.90625 11.1875 30.125 4.640625 
Q 30.078125 4.25 30.046875 3.90625 
Q 30.03125 3.5625 30.03125 3.171875 
Q 30.03125 0.296875 31.15625 -2.21875 
Q 32.28125 -4.734375 34.234375 -6.59375 
Q 36.1875 -8.453125 38.71875 -9.5 
Q 41.265625 -10.546875 44.140625 -10.546875 
Q 46.484375 -10.546875 48.6875 -9.8125 
Q 53.421875 -11.96875 58.453125 -12.984375 
Q 63.484375 -14.015625 68.65625 -14.015625 
z
M 54.59375 3.421875 
Q 54.59375 1.21875 53.765625 -0.6875 
Q 52.9375 -2.59375 51.515625 -4 
Q 50.09375 -5.421875 48.1875 -6.21875 
Q 46.296875 -7.03125 44.140625 -7.03125 
Q 41.9375 -7.03125 39.984375 -6.25 
Q 38.03125 -5.46875 36.609375 -4.078125 
Q 35.203125 -2.6875 34.375 -0.796875 
Q 33.546875 1.078125 33.546875 3.328125 
Q 33.546875 4.890625 33.953125 6.328125 
Q 34.375 7.765625 35.15625 9.078125 
L 44.09375 24.5625 
L 51.90625 10.984375 
Q 52.484375 10.015625 52.96875 9.125 
Q 53.46875 8.25 53.828125 7.375 
Q 54.203125 6.5 54.390625 5.546875 
Q 54.59375 4.59375 54.59375 3.421875 
z
M 54.6875 13.234375 
Q 57.765625 15.375 61.296875 16.46875 
Q 64.84375 17.578125 68.5625 17.578125 
Q 71.140625 17.578125 73.703125 17.03125 
Q 76.265625 16.5 78.625 15.453125 
Q 81 14.40625 83.125 12.859375 
Q 85.25 11.328125 86.96875 9.375 
Q 87.890625 8.296875 87.890625 7.078125 
Q 87.890625 6.34375 87.59375 5.703125 
Q 87.3125 5.078125 86.8125 4.59375 
Q 86.328125 4.109375 85.6875 3.8125 
Q 85.0625 3.515625 84.375 3.515625 
Q 83.546875 3.515625 82.90625 3.828125 
Q 82.28125 4.15625 81.734375 4.6875 
Q 78.90625 7.46875 75.796875 9 
Q 72.703125 10.546875 68.65625 10.546875 
Q 65.625 10.546875 62.84375 9.5625 
Q 60.0625 8.59375 57.71875 6.734375 
Q 57.28125 8.59375 56.421875 10.109375 
Q 55.5625 11.625 54.6875 13.234375 
z
M 103.765625 46.6875 
Q 103.765625 45.953125 103.46875 45.3125 
Q 103.171875 44.671875 102.6875 44.1875 
Q 102.203125 43.703125 101.5625 43.40625 
Q 100.921875 43.109375 100.25 43.109375 
Q 99.421875 43.109375 98.78125 43.421875 
Q 98.140625 43.75 97.609375 44.34375 
Q 93.75 48.296875 89.28125 50.46875 
Q 84.8125 52.640625 79.203125 52.640625 
Q 77.78125 52.640625 76.734375 53.6875 
Q 75.6875 54.734375 75.6875 56.15625 
Q 75.6875 57.625 76.703125 58.640625 
Q 77.734375 59.671875 79.203125 59.671875 
Q 82.46875 59.671875 85.78125 58.953125 
Q 89.109375 58.25 92.203125 56.875 
Q 95.3125 55.515625 98.015625 53.515625 
Q 100.734375 51.515625 102.875 48.96875 
Q 103.765625 47.859375 103.765625 46.6875 
z
M 33.546875 46.6875 
Q 33.546875 47.859375 34.421875 48.96875 
Q 36.53125 51.515625 39.265625 53.515625 
Q 42 55.515625 45.09375 56.875 
Q 48.1875 58.25 51.484375 58.953125 
Q 54.78125 59.671875 58.109375 59.671875 
Q 59.578125 59.671875 60.59375 58.640625 
Q 61.625 57.625 61.625 56.15625 
Q 61.625 54.734375 60.5625 53.6875 
Q 59.515625 52.640625 58.109375 52.640625 
Q 52.484375 52.640625 48.015625 50.46875 
Q 43.5625 48.296875 39.703125 44.34375 
Q 39.15625 43.75 38.515625 43.421875 
Q 37.890625 43.109375 37.0625 43.109375 
Q 36.375 43.109375 35.734375 43.40625 
Q 35.109375 43.703125 34.609375 44.1875 
Q 34.125 44.671875 33.828125 45.3125 
Q 33.546875 45.953125 33.546875 46.6875 
z
M 87.9375 42.140625 
Q 89.015625 42.140625 89.984375 41.71875 
Q 90.96875 41.3125 91.671875 40.59375 
Q 92.390625 39.890625 92.796875 38.90625 
Q 93.21875 37.9375 93.21875 36.859375 
L 93.21875 29.828125 
Q 93.21875 28.765625 92.796875 27.8125 
Q 92.390625 26.859375 91.65625 26.125 
Q 90.921875 25.390625 89.96875 24.96875 
Q 89.015625 24.5625 87.9375 24.5625 
Q 86.859375 24.5625 85.90625 24.96875 
Q 84.96875 25.390625 84.234375 26.125 
Q 83.5 26.859375 83.078125 27.8125 
Q 82.671875 28.765625 82.671875 29.828125 
L 82.671875 36.859375 
Q 82.671875 37.9375 83.078125 38.890625 
Q 83.5 39.84375 84.234375 40.578125 
Q 84.96875 41.3125 85.90625 41.71875 
Q 86.859375 42.140625 87.9375 42.140625 
z
M 44.09375 36.859375 
Q 44.09375 37.9375 44.5 38.90625 
Q 44.921875 39.890625 45.625 40.59375 
Q 46.34375 41.3125 47.296875 41.71875 
Q 48.25 42.140625 49.359375 42.140625 
Q 50.4375 42.140625 51.40625 41.71875 
Q 52.390625 41.3125 53.078125 40.578125 
Q 53.765625 39.84375 54.171875 38.890625 
Q 54.59375 37.9375 54.59375 36.859375 
L 54.59375 29.828125 
Q 54.59375 28.765625 54.171875 27.8125 
Q 53.765625 26.859375 53.046875 26.125 
Q 52.34375 25.390625 51.390625 24.96875 
Q 50.4375 24.5625 49.359375 24.5625 
Q 48.296875 24.5625 47.34375 24.96875 
Q 46.390625 25.390625 45.65625 26.125 
Q 44.921875 26.859375 44.5 27.8125 
Q 44.09375 28.765625 44.09375 29.828125 
z
" id="SegoeUIEmoji-1f622"/>
      </defs>
      <g transform="translate(560.483257 642.9842)scale(0.16 -0.16)">
       <use xlink:href="#SegoeUIEmoji-1f622"/>
      </g>
     </g>
    </g>
    <g id="xtick_8">
     <g id="line2d_8">
      <g>
       <use style="stroke:#000000;stroke-width:0.8;" x="636.963262" xlink:href="#md634186dab" y="624.1392"/>
      </g>
     </g>
     <g id="text_8">
      <!-- ðŸ˜ -->
      <defs>
       <path d="M 37.0625 28.078125 
L 37.0625 31.59375 
L 100.25 31.59375 
L 100.25 28.078125 
Q 100.25 23.734375 99.125 19.671875 
Q 98 15.625 95.921875 12.125 
Q 93.84375 8.640625 90.96875 5.75 
Q 88.09375 2.875 84.59375 0.796875 
Q 81.109375 -1.265625 77.046875 -2.390625 
Q 73 -3.515625 68.65625 -3.515625 
Q 64.3125 -3.515625 60.25 -2.390625 
Q 56.203125 -1.265625 52.703125 0.796875 
Q 49.21875 2.875 46.328125 5.75 
Q 43.453125 8.640625 41.375 12.125 
Q 39.3125 15.625 38.1875 19.671875 
Q 37.0625 23.734375 37.0625 28.078125 
z
M 49.359375 50.875 
Q 47.515625 50.875 45.921875 50.1875 
Q 44.34375 49.515625 43.140625 48.34375 
Q 41.9375 47.171875 41.25 45.5625 
Q 40.578125 43.953125 40.578125 42.140625 
L 37.0625 42.140625 
L 37.0625 43.890625 
Q 37.0625 46.4375 38.03125 48.671875 
Q 39.015625 50.921875 40.671875 52.578125 
Q 42.328125 54.25 44.578125 55.203125 
Q 46.828125 56.15625 49.359375 56.15625 
Q 51.90625 56.15625 54.140625 55.203125 
Q 56.390625 54.25 58.046875 52.578125 
Q 59.71875 50.921875 60.671875 48.671875 
Q 61.625 46.4375 61.625 43.890625 
L 61.625 42.140625 
L 58.109375 42.140625 
Q 58.109375 43.953125 57.421875 45.53125 
Q 56.734375 47.125 55.53125 48.3125 
Q 54.34375 49.515625 52.75 50.1875 
Q 51.171875 50.875 49.359375 50.875 
z
M 87.9375 50.875 
Q 86.140625 50.875 84.546875 50.1875 
Q 82.953125 49.515625 81.75 48.3125 
Q 80.5625 47.125 79.875 45.53125 
Q 79.203125 43.953125 79.203125 42.140625 
L 75.6875 42.140625 
L 75.6875 43.890625 
Q 75.6875 46.4375 76.640625 48.671875 
Q 77.59375 50.921875 79.25 52.578125 
Q 80.90625 54.25 83.125 55.203125 
Q 85.359375 56.15625 87.9375 56.15625 
Q 90.484375 56.15625 92.71875 55.203125 
Q 94.96875 54.25 96.625 52.578125 
Q 98.296875 50.921875 99.265625 48.671875 
Q 100.25 46.4375 100.25 43.890625 
L 100.25 42.140625 
L 96.734375 42.140625 
Q 96.734375 43.953125 96.046875 45.5625 
Q 95.359375 47.171875 94.15625 48.34375 
Q 92.96875 49.515625 91.359375 50.1875 
Q 89.75 50.875 87.9375 50.875 
z
M 65.140625 14.0625 
L 65.140625 0.25 
Q 66.015625 0.140625 66.890625 0.0625 
Q 67.78125 0 68.65625 0 
Q 69.53125 0 70.40625 0.0625 
Q 71.296875 0.140625 72.171875 0.25 
L 72.171875 14.0625 
z
M 54.59375 14.0625 
L 54.59375 3.8125 
Q 57.90625 1.90625 61.625 0.921875 
L 61.625 14.0625 
z
M 75.6875 14.0625 
L 75.6875 0.921875 
Q 79.296875 1.859375 82.671875 3.8125 
L 82.671875 14.0625 
z
M 86.1875 28.078125 
L 86.1875 17.578125 
L 93.21875 17.578125 
L 93.21875 28.078125 
z
M 65.140625 28.078125 
L 65.140625 17.578125 
L 72.171875 17.578125 
L 72.171875 28.078125 
z
M 54.59375 28.078125 
L 54.59375 17.578125 
L 61.625 17.578125 
L 61.625 28.078125 
z
M 44.09375 28.078125 
L 44.09375 17.578125 
L 51.125 17.578125 
L 51.125 28.078125 
z
M 75.6875 28.078125 
L 75.6875 17.578125 
L 82.671875 17.578125 
L 82.671875 28.078125 
z
M 86.1875 14.0625 
L 86.1875 6.203125 
Q 90.328125 9.46875 92.921875 14.0625 
z
M 51.125 6.203125 
L 51.125 14.0625 
L 44.390625 14.0625 
Q 46.96875 9.46875 51.125 6.203125 
z
M 68.65625 91.265625 
Q 76.421875 91.265625 83.59375 89.25 
Q 90.765625 87.25 96.984375 83.59375 
Q 103.21875 79.9375 108.34375 74.796875 
Q 113.484375 69.671875 117.140625 63.453125 
Q 120.796875 57.234375 122.796875 50.046875 
Q 124.8125 42.875 124.8125 35.109375 
Q 124.8125 27.34375 122.796875 20.15625 
Q 120.796875 12.984375 117.140625 6.75 
Q 113.484375 0.53125 108.34375 -4.59375 
Q 103.21875 -9.71875 96.984375 -13.375 
Q 90.765625 -17.046875 83.59375 -19.046875 
Q 76.421875 -21.046875 68.65625 -21.046875 
Q 60.890625 -21.046875 53.703125 -19.046875 
Q 46.53125 -17.046875 40.296875 -13.375 
Q 34.078125 -9.71875 28.953125 -4.59375 
Q 23.828125 0.53125 20.15625 6.75 
Q 16.5 12.984375 14.5 20.15625 
Q 12.5 27.34375 12.5 35.109375 
Q 12.5 42.875 14.5 50.046875 
Q 16.5 57.234375 20.15625 63.453125 
Q 23.828125 69.671875 28.953125 74.796875 
Q 34.078125 79.9375 40.296875 83.59375 
Q 46.53125 87.25 53.703125 89.25 
Q 60.890625 91.265625 68.65625 91.265625 
z
M 68.65625 -14.015625 
Q 75.4375 -14.015625 81.703125 -12.25 
Q 87.984375 -10.5 93.453125 -7.296875 
Q 98.921875 -4.109375 103.390625 0.359375 
Q 107.859375 4.828125 111.0625 10.296875 
Q 114.265625 15.765625 116.015625 22.046875 
Q 117.78125 28.328125 117.78125 35.109375 
Q 117.78125 41.890625 116.015625 48.15625 
Q 114.265625 54.4375 111.0625 59.90625 
Q 107.859375 65.375 103.390625 69.84375 
Q 98.921875 74.3125 93.453125 77.515625 
Q 87.984375 80.71875 81.703125 82.46875 
Q 75.4375 84.234375 68.65625 84.234375 
Q 61.859375 84.234375 55.578125 82.46875 
Q 49.3125 80.71875 43.84375 77.515625 
Q 38.375 74.3125 33.90625 69.84375 
Q 29.4375 65.375 26.234375 59.90625 
Q 23.046875 54.4375 21.28125 48.15625 
Q 19.53125 41.890625 19.53125 35.109375 
Q 19.53125 28.328125 21.28125 22.046875 
Q 23.046875 15.765625 26.234375 10.296875 
Q 29.4375 4.828125 33.90625 0.359375 
Q 38.375 -4.109375 43.84375 -7.296875 
Q 49.3125 -10.5 55.578125 -12.25 
Q 61.859375 -14.015625 68.65625 -14.015625 
z
" id="SegoeUIEmoji-1f601"/>
      </defs>
      <g transform="translate(626.635762 642.9842)scale(0.16 -0.16)">
       <use xlink:href="#SegoeUIEmoji-1f601"/>
      </g>
     </g>
    </g>
    <g id="xtick_9">
     <g id="line2d_9">
      <g>
       <use style="stroke:#000000;stroke-width:0.8;" x="703.115766" xlink:href="#md634186dab" y="624.1392"/>
      </g>
     </g>
     <g id="text_9">
      <!-- ðŸ˜˜ -->
      <defs>
       <path d="M 68.65625 -14.015625 
Q 74.75 -14.015625 80.609375 -12.59375 
Q 86.46875 -11.1875 91.796875 -8.25 
L 96.921875 -13.421875 
Q 90.484375 -17.234375 83.296875 -19.140625 
Q 76.125 -21.046875 68.65625 -21.046875 
Q 60.890625 -21.046875 53.703125 -19.046875 
Q 46.53125 -17.046875 40.296875 -13.375 
Q 34.078125 -9.71875 28.953125 -4.59375 
Q 23.828125 0.53125 20.15625 6.75 
Q 16.5 12.984375 14.5 20.15625 
Q 12.5 27.34375 12.5 35.109375 
Q 12.5 42.875 14.5 50.046875 
Q 16.5 57.234375 20.15625 63.453125 
Q 23.828125 69.671875 28.953125 74.796875 
Q 34.078125 79.9375 40.296875 83.59375 
Q 46.53125 87.25 53.703125 89.25 
Q 60.890625 91.265625 68.65625 91.265625 
Q 76.421875 91.265625 83.59375 89.25 
Q 90.765625 87.25 96.984375 83.59375 
Q 103.21875 79.9375 108.34375 74.796875 
Q 113.484375 69.671875 117.140625 63.453125 
Q 120.796875 57.234375 122.796875 50.046875 
Q 124.8125 42.875 124.8125 35.109375 
Q 124.8125 29.78125 123.796875 24.609375 
Q 122.796875 19.4375 120.90625 14.453125 
Q 120.3125 16.65625 119.046875 18.53125 
Q 117.78125 20.40625 115.96875 21.78125 
Q 116.890625 25.046875 117.328125 28.390625 
Q 117.78125 31.734375 117.78125 35.109375 
Q 117.78125 41.890625 116.015625 48.15625 
Q 114.265625 54.4375 111.0625 59.90625 
Q 107.859375 65.375 103.390625 69.84375 
Q 98.921875 74.3125 93.453125 77.515625 
Q 87.984375 80.71875 81.703125 82.46875 
Q 75.4375 84.234375 68.65625 84.234375 
Q 61.859375 84.234375 55.578125 82.46875 
Q 49.3125 80.71875 43.84375 77.515625 
Q 38.375 74.3125 33.90625 69.84375 
Q 29.4375 65.375 26.234375 59.90625 
Q 23.046875 54.4375 21.28125 48.15625 
Q 19.53125 41.890625 19.53125 35.109375 
Q 19.53125 28.328125 21.28125 22.046875 
Q 23.046875 15.765625 26.234375 10.296875 
Q 29.4375 4.828125 33.90625 0.359375 
Q 38.375 -4.109375 43.84375 -7.296875 
Q 49.3125 -10.5 55.578125 -12.25 
Q 61.859375 -14.015625 68.65625 -14.015625 
z
M 81.390625 11.140625 
Q 81.390625 13.1875 82.171875 14.96875 
Q 82.953125 16.75 84.265625 18.0625 
Q 85.59375 19.390625 87.375 20.140625 
Q 89.15625 20.90625 91.21875 20.90625 
Q 92.578125 20.90625 93.71875 20.578125 
Q 94.875 20.265625 95.875 19.671875 
Q 96.875 19.09375 97.78125 18.28125 
Q 98.6875 17.484375 99.609375 16.546875 
Q 100.53125 17.484375 101.4375 18.28125 
Q 102.34375 19.09375 103.3125 19.671875 
Q 104.296875 20.265625 105.421875 20.578125 
Q 106.546875 20.90625 107.953125 20.90625 
Q 110.015625 20.90625 111.796875 20.140625 
Q 113.578125 19.390625 114.890625 18.0625 
Q 116.21875 16.75 117 14.96875 
Q 117.78125 13.1875 117.78125 11.140625 
Q 117.78125 9.234375 117.046875 7.390625 
Q 116.3125 5.5625 114.9375 4.203125 
L 99.609375 -11.140625 
L 84.28125 4.203125 
Q 82.90625 5.5625 82.140625 7.375 
Q 81.390625 9.1875 81.390625 11.140625 
z
M 79.203125 7.03125 
Q 79.203125 5.609375 78.640625 4.3125 
Q 78.078125 3.03125 77.125 2.078125 
Q 76.171875 1.125 74.875 0.5625 
Q 73.578125 0 72.171875 0 
L 61.625 0 
Q 60.890625 0 60.375 0.515625 
Q 59.859375 1.03125 59.859375 1.765625 
Q 59.859375 2.484375 60.375 3 
Q 60.890625 3.515625 61.625 3.515625 
L 72.171875 3.515625 
Q 73.578125 3.515625 74.625 4.5625 
Q 75.6875 5.609375 75.6875 7.03125 
Q 75.6875 8.5 74.65625 9.515625 
Q 73.640625 10.546875 72.171875 10.546875 
L 66.890625 10.546875 
Q 65.4375 10.546875 64.40625 11.5625 
Q 63.375 12.59375 63.375 14.0625 
Q 63.375 15.484375 64.421875 16.53125 
Q 65.484375 17.578125 66.890625 17.578125 
L 72.171875 17.578125 
Q 73.578125 17.578125 74.625 18.59375 
Q 75.6875 19.625 75.6875 21.046875 
Q 75.6875 22.46875 74.625 23.515625 
Q 73.578125 24.5625 72.171875 24.5625 
L 61.625 24.5625 
Q 60.890625 24.5625 60.375 25.078125 
Q 59.859375 25.59375 59.859375 26.3125 
Q 59.859375 27.046875 60.375 27.5625 
Q 60.890625 28.078125 61.625 28.078125 
L 72.171875 28.078125 
Q 73.640625 28.078125 74.90625 27.515625 
Q 76.171875 26.953125 77.125 26 
Q 78.078125 25.046875 78.640625 23.78125 
Q 79.203125 22.515625 79.203125 21.046875 
Q 79.203125 19.671875 78.65625 18.421875 
Q 78.125 17.1875 77.1875 16.234375 
Q 76.265625 15.28125 75.046875 14.6875 
Q 73.828125 14.109375 72.46875 14.0625 
Q 73.828125 14.015625 75.046875 13.421875 
Q 76.265625 12.84375 77.1875 11.859375 
Q 78.125 10.890625 78.65625 9.640625 
Q 79.203125 8.40625 79.203125 7.03125 
z
M 87.9375 59.625 
Q 88.875 59.625 90.265625 59.421875 
Q 91.65625 59.234375 93.21875 58.859375 
Q 94.78125 58.5 96.34375 57.9375 
Q 97.90625 57.375 99.171875 56.59375 
Q 100.4375 55.8125 101.21875 54.828125 
Q 102 53.859375 102 52.6875 
Q 102 51.21875 100.96875 50.1875 
Q 99.953125 49.171875 98.484375 49.171875 
Q 97.796875 49.171875 96.71875 49.703125 
Q 95.65625 50.25 94.3125 50.875 
Q 92.96875 51.515625 91.359375 52.046875 
Q 89.75 52.59375 87.9375 52.59375 
Q 86.140625 52.59375 84.546875 52.046875 
Q 82.953125 51.515625 81.578125 50.875 
Q 80.21875 50.25 79.171875 49.703125 
Q 78.125 49.171875 77.4375 49.171875 
Q 75.984375 49.171875 74.953125 50.171875 
Q 73.921875 51.171875 73.921875 52.640625 
Q 73.921875 53.8125 74.703125 54.8125 
Q 75.484375 55.8125 76.734375 56.59375 
Q 77.984375 57.375 79.546875 57.9375 
Q 81.109375 58.5 82.671875 58.859375 
Q 84.234375 59.234375 85.625 59.421875 
Q 87.015625 59.625 87.9375 59.625 
z
M 48.4375 66.703125 
Q 49.859375 66.703125 50.90625 65.640625 
Q 51.953125 64.59375 51.953125 63.1875 
Q 51.953125 61.921875 51.3125 61.15625 
Q 50.6875 60.40625 49.609375 59.859375 
Q 46.6875 58.40625 44.875 57.296875 
Q 43.0625 56.203125 41.796875 54.90625 
Q 40.53125 53.609375 39.453125 51.796875 
Q 38.375 50 36.859375 47.125 
Q 36.328125 46.046875 35.5625 45.40625 
Q 34.8125 44.78125 33.546875 44.78125 
Q 32.125 44.78125 31.09375 45.828125 
Q 30.078125 46.875 30.078125 48.296875 
Q 30.078125 48.921875 30.28125 49.46875 
Q 31.296875 52.390625 32.984375 55.03125 
Q 34.671875 57.671875 36.859375 59.859375 
Q 39.0625 62.0625 41.703125 63.765625 
Q 44.34375 65.484375 47.265625 66.5 
Q 47.796875 66.703125 48.4375 66.703125 
z
M 49.359375 49.125 
Q 50.4375 49.125 51.390625 48.703125 
Q 52.34375 48.296875 53.078125 47.578125 
Q 53.8125 46.875 54.21875 45.921875 
Q 54.640625 44.96875 54.640625 43.890625 
L 54.640625 36.859375 
Q 54.640625 35.796875 54.21875 34.84375 
Q 53.8125 33.890625 53.078125 33.15625 
Q 52.34375 32.421875 51.390625 32 
Q 50.4375 31.59375 49.359375 31.59375 
Q 48.25 31.59375 47.296875 32 
Q 46.34375 32.421875 45.625 33.125 
Q 44.921875 33.84375 44.5 34.796875 
Q 44.09375 35.75 44.09375 36.859375 
L 44.09375 43.890625 
Q 44.09375 44.96875 44.5 45.9375 
Q 44.921875 46.921875 45.65625 47.609375 
Q 46.390625 48.296875 47.34375 48.703125 
Q 48.296875 49.125 49.359375 49.125 
z
M 89.703125 45.65625 
Q 91.890625 45.65625 93.796875 44.828125 
Q 95.703125 44 97.140625 42.546875 
Q 98.578125 41.109375 99.40625 39.203125 
Q 100.25 37.3125 100.25 35.109375 
L 96.734375 35.109375 
Q 96.734375 36.578125 95.703125 37.59375 
Q 94.671875 38.625 93.21875 38.625 
L 82.671875 38.625 
Q 81.203125 38.625 80.203125 37.578125 
Q 79.203125 36.53125 79.203125 35.109375 
L 75.6875 35.109375 
Q 75.6875 37.3125 76.515625 39.203125 
Q 77.34375 41.109375 78.75 42.546875 
Q 80.171875 44 82.078125 44.828125 
Q 83.984375 45.65625 86.1875 45.65625 
z
" id="SegoeUIEmoji-1f618"/>
      </defs>
      <g transform="translate(692.788266 642.9842)scale(0.16 -0.16)">
       <use xlink:href="#SegoeUIEmoji-1f618"/>
      </g>
     </g>
    </g>
    <g id="xtick_10">
     <g id="line2d_10">
      <g>
       <use style="stroke:#000000;stroke-width:0.8;" x="769.268271" xlink:href="#md634186dab" y="624.1392"/>
      </g>
     </g>
     <g id="text_10">
      <!-- ðŸ˜” -->
      <defs>
       <path d="M 68.65625 91.265625 
Q 76.421875 91.265625 83.59375 89.25 
Q 90.765625 87.25 96.984375 83.59375 
Q 103.21875 79.9375 108.34375 74.796875 
Q 113.484375 69.671875 117.140625 63.453125 
Q 120.796875 57.234375 122.796875 50.046875 
Q 124.8125 42.875 124.8125 35.109375 
Q 124.8125 27.34375 122.796875 20.15625 
Q 120.796875 12.984375 117.140625 6.75 
Q 113.484375 0.53125 108.34375 -4.59375 
Q 103.21875 -9.71875 96.984375 -13.375 
Q 90.765625 -17.046875 83.59375 -19.046875 
Q 76.421875 -21.046875 68.65625 -21.046875 
Q 60.890625 -21.046875 53.703125 -19.046875 
Q 46.53125 -17.046875 40.296875 -13.375 
Q 34.078125 -9.71875 28.953125 -4.59375 
Q 23.828125 0.53125 20.15625 6.75 
Q 16.5 12.984375 14.5 20.15625 
Q 12.5 27.34375 12.5 35.109375 
Q 12.5 42.875 14.5 50.046875 
Q 16.5 57.234375 20.15625 63.453125 
Q 23.828125 69.671875 28.953125 74.796875 
Q 34.078125 79.9375 40.296875 83.59375 
Q 46.53125 87.25 53.703125 89.25 
Q 60.890625 91.265625 68.65625 91.265625 
z
M 68.65625 -14.015625 
Q 75.4375 -14.015625 81.703125 -12.25 
Q 87.984375 -10.5 93.453125 -7.296875 
Q 98.921875 -4.109375 103.390625 0.359375 
Q 107.859375 4.828125 111.0625 10.296875 
Q 114.265625 15.765625 116.015625 22.046875 
Q 117.78125 28.328125 117.78125 35.109375 
Q 117.78125 41.890625 116.015625 48.15625 
Q 114.265625 54.4375 111.0625 59.90625 
Q 107.859375 65.375 103.390625 69.84375 
Q 98.921875 74.3125 93.453125 77.515625 
Q 87.984375 80.71875 81.703125 82.46875 
Q 75.4375 84.234375 68.65625 84.234375 
Q 61.859375 84.234375 55.578125 82.46875 
Q 49.3125 80.71875 43.84375 77.515625 
Q 38.375 74.3125 33.90625 69.84375 
Q 29.4375 65.375 26.234375 59.90625 
Q 23.046875 54.4375 21.28125 48.15625 
Q 19.53125 41.890625 19.53125 35.109375 
Q 19.53125 28.328125 21.28125 22.046875 
Q 23.046875 15.765625 26.234375 10.296875 
Q 29.4375 4.828125 33.90625 0.359375 
Q 38.375 -4.109375 43.84375 -7.296875 
Q 49.3125 -10.5 55.578125 -12.25 
Q 61.859375 -14.015625 68.65625 -14.015625 
z
M 79.203125 10.546875 
Q 80.609375 10.546875 81.640625 9.5 
Q 82.671875 8.453125 82.671875 7.03125 
Q 82.671875 5.609375 81.640625 4.5625 
Q 80.609375 3.515625 79.203125 3.515625 
L 58.109375 3.515625 
Q 56.6875 3.515625 55.640625 4.5625 
Q 54.59375 5.609375 54.59375 7.03125 
Q 54.59375 8.453125 55.640625 9.5 
Q 56.6875 10.546875 58.109375 10.546875 
z
M 61.625 29.828125 
Q 61.625 27.25 60.671875 25.015625 
Q 59.71875 22.796875 58.046875 21.140625 
Q 56.390625 19.484375 54.140625 18.53125 
Q 51.90625 17.578125 49.359375 17.578125 
Q 46.828125 17.578125 44.578125 18.53125 
Q 42.328125 19.484375 40.671875 21.140625 
Q 39.015625 22.796875 38.03125 25.046875 
Q 37.0625 27.296875 37.0625 29.828125 
L 37.0625 31.59375 
L 40.578125 31.59375 
Q 40.578125 29.734375 41.25 28.140625 
Q 41.9375 26.5625 43.140625 25.359375 
Q 44.34375 24.171875 45.921875 23.484375 
Q 47.515625 22.796875 49.359375 22.796875 
Q 51.171875 22.796875 52.78125 23.484375 
Q 54.390625 24.171875 55.5625 25.359375 
Q 56.734375 26.5625 57.421875 28.140625 
Q 58.109375 29.734375 58.109375 31.59375 
L 61.625 31.59375 
z
M 96.734375 31.59375 
L 100.25 31.59375 
L 100.25 29.828125 
Q 100.25 27.296875 99.265625 25.046875 
Q 98.296875 22.796875 96.625 21.140625 
Q 94.96875 19.484375 92.71875 18.53125 
Q 90.484375 17.578125 87.9375 17.578125 
Q 85.359375 17.578125 83.125 18.53125 
Q 80.90625 19.484375 79.25 21.140625 
Q 77.59375 22.796875 76.640625 25.015625 
Q 75.6875 27.25 75.6875 29.828125 
L 75.6875 31.59375 
L 79.203125 31.59375 
Q 79.203125 29.734375 79.875 28.140625 
Q 80.5625 26.5625 81.734375 25.359375 
Q 82.90625 24.171875 84.484375 23.484375 
Q 86.078125 22.796875 87.9375 22.796875 
Q 89.75 22.796875 91.359375 23.484375 
Q 92.96875 24.171875 94.15625 25.359375 
Q 95.359375 26.5625 96.046875 28.140625 
Q 96.734375 29.734375 96.734375 31.59375 
z
M 26.515625 38.625 
Q 26.515625 40.046875 27.5625 41.09375 
Q 28.609375 42.140625 30.03125 42.140625 
Q 33.203125 42.140625 35.640625 42.703125 
Q 38.09375 43.265625 40.15625 44.3125 
Q 42.234375 45.359375 44.203125 46.890625 
Q 46.1875 48.4375 48.484375 50.4375 
Q 49.125 50.984375 49.6875 51.3125 
Q 50.25 51.65625 51.078125 51.65625 
Q 52.484375 51.65625 53.5625 50.609375 
Q 54.640625 49.5625 54.640625 48.140625 
Q 54.640625 47.40625 54.390625 46.875 
Q 54.15625 46.34375 53.71875 45.796875 
Q 51.765625 43.265625 49 41.28125 
Q 46.234375 39.3125 43.0625 37.9375 
Q 39.890625 36.578125 36.515625 35.84375 
Q 33.15625 35.109375 30.03125 35.109375 
Q 28.609375 35.109375 27.5625 36.15625 
Q 26.515625 37.203125 26.515625 38.625 
z
M 86.1875 51.65625 
Q 87.109375 51.65625 87.625 51.34375 
Q 88.140625 51.03125 88.8125 50.4375 
Q 91.0625 48.4375 93.0625 46.890625 
Q 95.0625 45.359375 97.15625 44.3125 
Q 99.265625 43.265625 101.6875 42.703125 
Q 104.109375 42.140625 107.28125 42.140625 
Q 108.6875 42.140625 109.71875 41.09375 
Q 110.75 40.046875 110.75 38.625 
Q 110.75 37.203125 109.71875 36.15625 
Q 108.6875 35.109375 107.28125 35.109375 
Q 104.15625 35.109375 100.78125 35.8125 
Q 97.40625 36.53125 94.203125 37.890625 
Q 91.015625 39.265625 88.234375 41.265625 
Q 85.453125 43.265625 83.546875 45.796875 
Q 83.15625 46.34375 82.90625 46.875 
Q 82.671875 47.40625 82.671875 48.09375 
Q 82.671875 49.5625 83.6875 50.609375 
Q 84.71875 51.65625 86.1875 51.65625 
z
" id="SegoeUIEmoji-1f614"/>
      </defs>
      <g transform="translate(758.940771 642.9842)scale(0.16 -0.16)">
       <use xlink:href="#SegoeUIEmoji-1f614"/>
      </g>
     </g>
    </g>
    <g id="text_11">
     <!-- Emoji -->
     <defs>
      <path d="M 46.296875 0 
L 9.1875 0 
L 9.1875 70.015625 
L 44.734375 70.015625 
L 44.734375 62.59375 
L 17.390625 62.59375 
L 17.390625 39.3125 
L 42.671875 39.3125 
L 42.671875 31.9375 
L 17.390625 31.9375 
L 17.390625 7.421875 
L 46.296875 7.421875 
z
" id="SegoeUIEmoji-45"/>
      <path d="M 79.109375 0 
L 71.09375 0 
L 71.09375 28.71875 
Q 71.09375 37.015625 68.53125 40.71875 
Q 65.96875 44.4375 59.90625 44.4375 
Q 54.78125 44.4375 51.1875 39.75 
Q 47.609375 35.0625 47.609375 28.515625 
L 47.609375 0 
L 39.59375 0 
L 39.59375 29.6875 
Q 39.59375 44.4375 28.21875 44.4375 
Q 22.953125 44.4375 19.53125 40.015625 
Q 16.109375 35.59375 16.109375 28.515625 
L 16.109375 0 
L 8.109375 0 
L 8.109375 50 
L 16.109375 50 
L 16.109375 42.09375 
L 16.3125 42.09375 
Q 21.625 51.171875 31.84375 51.171875 
Q 36.96875 51.171875 40.765625 48.3125 
Q 44.578125 45.453125 46 40.828125 
Q 51.5625 51.171875 62.59375 51.171875 
Q 79.109375 51.171875 79.109375 30.8125 
z
" id="SegoeUIEmoji-6d"/>
      <path d="M 29 -1.171875 
Q 17.921875 -1.171875 11.296875 5.828125 
Q 4.6875 12.84375 4.6875 24.421875 
Q 4.6875 37.015625 11.5625 44.09375 
Q 18.453125 51.171875 30.171875 51.171875 
Q 41.359375 51.171875 47.625 44.28125 
Q 53.90625 37.40625 53.90625 25.203125 
Q 53.90625 13.234375 47.140625 6.03125 
Q 40.375 -1.171875 29 -1.171875 
z
M 29.59375 44.4375 
Q 21.875 44.4375 17.375 39.1875 
Q 12.890625 33.9375 12.890625 24.703125 
Q 12.890625 15.828125 17.421875 10.6875 
Q 21.96875 5.5625 29.59375 5.5625 
Q 37.359375 5.5625 41.53125 10.59375 
Q 45.703125 15.625 45.703125 24.90625 
Q 45.703125 34.28125 41.53125 39.359375 
Q 37.359375 44.4375 29.59375 44.4375 
z
" id="SegoeUIEmoji-6f"/>
      <path d="M 16.109375 2.09375 
Q 16.109375 -10.203125 11.15625 -16.859375 
Q 6.203125 -23.53125 -3.03125 -23.53125 
Q -6.453125 -23.53125 -9.671875 -21.96875 
L -9.671875 -14.5 
Q -6.0625 -16.703125 -2.828125 -16.703125 
Q 8.109375 -16.703125 8.109375 0.78125 
L 8.109375 50 
L 16.109375 50 
z
M 12.203125 62.703125 
Q 10.0625 62.703125 8.546875 64.15625 
Q 7.03125 65.625 7.03125 67.875 
Q 7.03125 70.125 8.546875 71.609375 
Q 10.0625 73.09375 12.203125 73.09375 
Q 14.40625 73.09375 15.9375 71.609375 
Q 17.484375 70.125 17.484375 67.875 
Q 17.484375 65.71875 15.9375 64.203125 
Q 14.40625 62.703125 12.203125 62.703125 
z
" id="SegoeUIEmoji-6a"/>
      <path d="M 12.203125 62.703125 
Q 10.0625 62.703125 8.546875 64.15625 
Q 7.03125 65.625 7.03125 67.875 
Q 7.03125 70.125 8.546875 71.609375 
Q 10.0625 73.09375 12.203125 73.09375 
Q 14.40625 73.09375 15.9375 71.609375 
Q 17.484375 70.125 17.484375 67.875 
Q 17.484375 65.71875 15.9375 64.203125 
Q 14.40625 62.703125 12.203125 62.703125 
z
M 16.109375 0 
L 8.109375 0 
L 8.109375 50 
L 16.109375 50 
z
" id="SegoeUIEmoji-69"/>
     </defs>
     <g transform="translate(452.08075 663.0867)scale(0.16 -0.16)">
      <use xlink:href="#SegoeUIEmoji-45"/>
      <use x="50.585938" xlink:href="#SegoeUIEmoji-6d"/>
      <use x="136.71875" xlink:href="#SegoeUIEmoji-6f"/>
      <use x="195.3125" xlink:href="#SegoeUIEmoji-6a"/>
      <use x="219.53125" xlink:href="#SegoeUIEmoji-69"/>
     </g>
    </g>
   </g>
   <g id="matplotlib.axis_2">
    <g id="ytick_1">
     <g id="line2d_11">
      <path clip-path="url(#p2c2945c519)" d="M 115.02 624.1392 
L 828.144 624.1392 
" style="fill:none;opacity:0.25;stroke:#000080;stroke-linecap:square;stroke-width:0.5;"/>
     </g>
     <g id="line2d_12">
      <defs>
       <path d="M 0 0 
L -3.5 0 
" id="m3e41bf5a50" style="stroke:#000000;stroke-width:0.8;"/>
      </defs>
      <g>
       <use style="stroke:#000000;stroke-width:0.8;" x="115.02" xlink:href="#m3e41bf5a50" y="624.1392"/>
      </g>
     </g>
     <g id="text_12">
      <!-- 0 -->
      <defs>
       <path d="M 26.265625 -1.171875 
Q 15.875 -1.171875 10.03125 7.765625 
Q 4.203125 16.703125 4.203125 33.59375 
Q 4.203125 52.15625 10.28125 61.671875 
Q 16.359375 71.1875 27.828125 71.1875 
Q 49.8125 71.1875 49.8125 35.296875 
Q 49.8125 17.53125 43.609375 8.171875 
Q 37.40625 -1.171875 26.265625 -1.171875 
z
M 27.390625 64.40625 
Q 12.40625 64.40625 12.40625 33.984375 
Q 12.40625 5.5625 27.09375 5.5625 
Q 41.609375 5.5625 41.609375 34.46875 
Q 41.609375 64.40625 27.390625 64.40625 
z
" id="SegoeUIEmoji-30"/>
      </defs>
      <g transform="translate(99.395 630.0617)scale(0.16 -0.16)">
       <use xlink:href="#SegoeUIEmoji-30"/>
      </g>
     </g>
    </g>
    <g id="ytick_2">
     <g id="line2d_13">
      <path clip-path="url(#p2c2945c519)" d="M 115.02 552.781908 
L 828.144 552.781908 
" style="fill:none;opacity:0.25;stroke:#000080;stroke-linecap:square;stroke-width:0.5;"/>
     </g>
     <g id="line2d_14">
      <g>
       <use style="stroke:#000000;stroke-width:0.8;" x="115.02" xlink:href="#m3e41bf5a50" y="552.781908"/>
      </g>
     </g>
     <g id="text_13">
      <!-- 2000 -->
      <defs>
       <path d="M 37.703125 51.65625 
Q 37.703125 54.890625 36.6875 57.28125 
Q 35.6875 59.671875 33.953125 61.25 
Q 32.234375 62.84375 29.890625 63.625 
Q 27.546875 64.40625 24.8125 64.40625 
Q 22.46875 64.40625 20.21875 63.765625 
Q 17.96875 63.140625 15.84375 62.015625 
Q 13.71875 60.890625 11.734375 59.328125 
Q 9.765625 57.765625 8.0625 55.859375 
L 8.0625 64.453125 
Q 11.421875 67.71875 15.59375 69.453125 
Q 19.78125 71.1875 25.78125 71.1875 
Q 30.078125 71.1875 33.734375 69.9375 
Q 37.40625 68.703125 40.09375 66.3125 
Q 42.78125 63.921875 44.3125 60.40625 
Q 45.84375 56.890625 45.84375 52.34375 
Q 45.84375 48.1875 44.890625 44.8125 
Q 43.953125 41.453125 42.015625 38.46875 
Q 40.09375 35.5 37.15625 32.765625 
Q 34.234375 30.03125 30.28125 27.203125 
Q 25.34375 23.6875 22.140625 21.1875 
Q 18.953125 18.703125 17.0625 16.53125 
Q 15.1875 14.359375 14.421875 12.1875 
Q 13.671875 10.015625 13.671875 7.171875 
L 48.53125 7.171875 
L 48.53125 0 
L 5.328125 0 
L 5.328125 3.46875 
Q 5.328125 7.953125 6.296875 11.375 
Q 7.28125 14.796875 9.515625 17.875 
Q 11.765625 20.953125 15.40625 24.015625 
Q 19.046875 27.09375 24.3125 30.953125 
Q 28.125 33.6875 30.6875 36.171875 
Q 33.25 38.671875 34.8125 41.15625 
Q 36.375 43.65625 37.03125 46.21875 
Q 37.703125 48.78125 37.703125 51.65625 
z
" id="SegoeUIEmoji-32"/>
      </defs>
      <g transform="translate(73.52 558.704408)scale(0.16 -0.16)">
       <use xlink:href="#SegoeUIEmoji-32"/>
       <use x="53.90625" xlink:href="#SegoeUIEmoji-30"/>
       <use x="107.8125" xlink:href="#SegoeUIEmoji-30"/>
       <use x="161.71875" xlink:href="#SegoeUIEmoji-30"/>
      </g>
     </g>
    </g>
    <g id="ytick_3">
     <g id="line2d_15">
      <path clip-path="url(#p2c2945c519)" d="M 115.02 481.424617 
L 828.144 481.424617 
" style="fill:none;opacity:0.25;stroke:#000080;stroke-linecap:square;stroke-width:0.5;"/>
     </g>
     <g id="line2d_16">
      <g>
       <use style="stroke:#000000;stroke-width:0.8;" x="115.02" xlink:href="#m3e41bf5a50" y="481.424617"/>
      </g>
     </g>
     <g id="text_14">
      <!-- 4000 -->
      <defs>
       <path d="M 41.5 70.015625 
L 41.5 23.78125 
L 50.484375 23.78125 
L 50.484375 16.453125 
L 41.5 16.453125 
L 41.5 0 
L 33.59375 0 
L 33.59375 16.453125 
L 0.6875 16.453125 
L 0.6875 23.390625 
Q 5.28125 28.5625 9.96875 34.4375 
Q 14.65625 40.328125 18.921875 46.375 
Q 23.1875 52.4375 26.828125 58.46875 
Q 30.46875 64.5 32.953125 70.015625 
z
M 9.71875 23.78125 
L 33.59375 23.78125 
L 33.59375 58.0625 
Q 29.9375 51.65625 26.65625 46.625 
Q 23.390625 41.609375 20.4375 37.5 
Q 17.484375 33.40625 14.796875 30.078125 
Q 12.109375 26.765625 9.71875 23.78125 
z
" id="SegoeUIEmoji-34"/>
      </defs>
      <g transform="translate(73.52 487.347117)scale(0.16 -0.16)">
       <use xlink:href="#SegoeUIEmoji-34"/>
       <use x="53.90625" xlink:href="#SegoeUIEmoji-30"/>
       <use x="107.8125" xlink:href="#SegoeUIEmoji-30"/>
       <use x="161.71875" xlink:href="#SegoeUIEmoji-30"/>
      </g>
     </g>
    </g>
    <g id="ytick_4">
     <g id="line2d_17">
      <path clip-path="url(#p2c2945c519)" d="M 115.02 410.067325 
L 828.144 410.067325 
" style="fill:none;opacity:0.25;stroke:#000080;stroke-linecap:square;stroke-width:0.5;"/>
     </g>
     <g id="line2d_18">
      <g>
       <use style="stroke:#000000;stroke-width:0.8;" x="115.02" xlink:href="#m3e41bf5a50" y="410.067325"/>
      </g>
     </g>
     <g id="text_15">
      <!-- 6000 -->
      <defs>
       <path d="M 45.609375 69.1875 
L 45.609375 61.625 
Q 40.1875 64.40625 34.1875 64.40625 
Q 24.859375 64.40625 19.265625 56.09375 
Q 13.671875 47.796875 13.671875 33.890625 
L 13.875 33.890625 
Q 18.75 43.796875 29.890625 43.796875 
Q 39.0625 43.796875 44.484375 37.90625 
Q 49.90625 32.03125 49.90625 22.171875 
Q 49.90625 11.859375 43.703125 5.34375 
Q 37.5 -1.171875 27.9375 -1.171875 
Q 17.390625 -1.171875 11.375 7.21875 
Q 5.375 15.625 5.375 30.8125 
Q 5.375 49.21875 13.234375 60.203125 
Q 21.09375 71.1875 33.984375 71.1875 
Q 41.3125 71.1875 45.609375 69.1875 
z
M 28.125 37.015625 
Q 21.921875 37.015625 18.0625 32.8125 
Q 14.203125 28.609375 14.203125 22.90625 
Q 14.203125 15.71875 18.03125 10.640625 
Q 21.875 5.5625 28.21875 5.5625 
Q 34.28125 5.5625 37.984375 9.984375 
Q 41.703125 14.40625 41.703125 21.1875 
Q 41.703125 28.609375 38.140625 32.8125 
Q 34.578125 37.015625 28.125 37.015625 
z
" id="SegoeUIEmoji-36"/>
      </defs>
      <g transform="translate(73.52 415.989825)scale(0.16 -0.16)">
       <use xlink:href="#SegoeUIEmoji-36"/>
       <use x="53.90625" xlink:href="#SegoeUIEmoji-30"/>
       <use x="107.8125" xlink:href="#SegoeUIEmoji-30"/>
       <use x="161.71875" xlink:href="#SegoeUIEmoji-30"/>
      </g>
     </g>
    </g>
    <g id="ytick_5">
     <g id="line2d_19">
      <path clip-path="url(#p2c2945c519)" d="M 115.02 338.710034 
L 828.144 338.710034 
" style="fill:none;opacity:0.25;stroke:#000080;stroke-linecap:square;stroke-width:0.5;"/>
     </g>
     <g id="line2d_20">
      <g>
       <use style="stroke:#000000;stroke-width:0.8;" x="115.02" xlink:href="#m3e41bf5a50" y="338.710034"/>
      </g>
     </g>
     <g id="text_16">
      <!-- 8000 -->
      <defs>
       <path d="M 20.015625 36.71875 
L 20.015625 36.921875 
Q 7.421875 42.78125 7.421875 53.90625 
Q 7.421875 61.46875 13.1875 66.328125 
Q 18.953125 71.1875 28.03125 71.1875 
Q 36.234375 71.1875 41.5 66.640625 
Q 46.78125 62.109375 46.78125 54.984375 
Q 46.78125 43.359375 33.796875 36.921875 
L 33.796875 36.71875 
Q 49.125 31.25 49.125 17.78125 
Q 49.125 9.078125 42.875 3.953125 
Q 36.625 -1.171875 25.484375 -1.171875 
Q 16.5 -1.171875 10.6875 3.90625 
Q 4.890625 8.984375 4.890625 17.09375 
Q 4.890625 30.5625 20.015625 36.71875 
z
M 38.578125 54 
Q 38.578125 58.84375 35.546875 61.625 
Q 32.515625 64.40625 27.296875 64.40625 
Q 22.40625 64.40625 19.015625 61.5 
Q 15.625 58.59375 15.625 54.109375 
Q 15.625 44.96875 27 40.328125 
Q 38.578125 45.125 38.578125 54 
z
M 26.46875 32.90625 
Q 13.09375 27.59375 13.09375 17.484375 
Q 13.09375 12.25 16.96875 8.90625 
Q 20.84375 5.5625 27.203125 5.5625 
Q 33.25 5.5625 37.078125 8.859375 
Q 40.921875 12.15625 40.921875 17.1875 
Q 40.921875 27.734375 26.46875 32.90625 
z
" id="SegoeUIEmoji-38"/>
      </defs>
      <g transform="translate(73.52 344.632534)scale(0.16 -0.16)">
       <use xlink:href="#SegoeUIEmoji-38"/>
       <use x="53.90625" xlink:href="#SegoeUIEmoji-30"/>
       <use x="107.8125" xlink:href="#SegoeUIEmoji-30"/>
       <use x="161.71875" xlink:href="#SegoeUIEmoji-30"/>
      </g>
     </g>
    </g>
    <g id="ytick_6">
     <g id="line2d_21">
      <path clip-path="url(#p2c2945c519)" d="M 115.02 267.352742 
L 828.144 267.352742 
" style="fill:none;opacity:0.25;stroke:#000080;stroke-linecap:square;stroke-width:0.5;"/>
     </g>
     <g id="line2d_22">
      <g>
       <use style="stroke:#000000;stroke-width:0.8;" x="115.02" xlink:href="#m3e41bf5a50" y="267.352742"/>
      </g>
     </g>
     <g id="text_17">
      <!-- 10000 -->
      <defs>
       <path d="M 35.359375 0 
L 27.34375 0 
L 27.34375 60.5 
Q 26.421875 59.578125 24.640625 58.375 
Q 22.859375 57.171875 20.625 56 
Q 18.40625 54.828125 15.9375 53.796875 
Q 13.484375 52.78125 11.140625 52.203125 
L 11.140625 60.296875 
Q 13.765625 61.03125 16.71875 62.28125 
Q 19.671875 63.53125 22.53125 65.0625 
Q 25.390625 66.609375 27.921875 68.28125 
Q 30.46875 69.96875 32.328125 71.578125 
L 35.359375 71.578125 
z
" id="SegoeUIEmoji-31"/>
      </defs>
      <g transform="translate(64.895 273.275242)scale(0.16 -0.16)">
       <use xlink:href="#SegoeUIEmoji-31"/>
       <use x="53.90625" xlink:href="#SegoeUIEmoji-30"/>
       <use x="107.8125" xlink:href="#SegoeUIEmoji-30"/>
       <use x="161.71875" xlink:href="#SegoeUIEmoji-30"/>
       <use x="215.625" xlink:href="#SegoeUIEmoji-30"/>
      </g>
     </g>
    </g>
    <g id="ytick_7">
     <g id="line2d_23">
      <path clip-path="url(#p2c2945c519)" d="M 115.02 195.995451 
L 828.144 195.995451 
" style="fill:none;opacity:0.25;stroke:#000080;stroke-linecap:square;stroke-width:0.5;"/>
     </g>
     <g id="line2d_24">
      <g>
       <use style="stroke:#000000;stroke-width:0.8;" x="115.02" xlink:href="#m3e41bf5a50" y="195.995451"/>
      </g>
     </g>
     <g id="text_18">
      <!-- 12000 -->
      <g transform="translate(64.895 201.917951)scale(0.16 -0.16)">
       <use xlink:href="#SegoeUIEmoji-31"/>
       <use x="53.90625" xlink:href="#SegoeUIEmoji-32"/>
       <use x="107.8125" xlink:href="#SegoeUIEmoji-30"/>
       <use x="161.71875" xlink:href="#SegoeUIEmoji-30"/>
       <use x="215.625" xlink:href="#SegoeUIEmoji-30"/>
      </g>
     </g>
    </g>
    <g id="ytick_8">
     <g id="line2d_25">
      <path clip-path="url(#p2c2945c519)" d="M 115.02 124.638159 
L 828.144 124.638159 
" style="fill:none;opacity:0.25;stroke:#000080;stroke-linecap:square;stroke-width:0.5;"/>
     </g>
     <g id="line2d_26">
      <g>
       <use style="stroke:#000000;stroke-width:0.8;" x="115.02" xlink:href="#m3e41bf5a50" y="124.638159"/>
      </g>
     </g>
     <g id="text_19">
      <!-- 14000 -->
      <g transform="translate(64.895 130.560659)scale(0.16 -0.16)">
       <use xlink:href="#SegoeUIEmoji-31"/>
       <use x="53.90625" xlink:href="#SegoeUIEmoji-34"/>
       <use x="107.8125" xlink:href="#SegoeUIEmoji-30"/>
       <use x="161.71875" xlink:href="#SegoeUIEmoji-30"/>
       <use x="215.625" xlink:href="#SegoeUIEmoji-30"/>
      </g>
     </g>
    </g>
    <g id="text_20">
     <!-- Frequency (Times) -->
     <defs>
      <path d="M 44.734375 62.59375 
L 17.390625 62.59375 
L 17.390625 38.375 
L 42.671875 38.375 
L 42.671875 31 
L 17.390625 31 
L 17.390625 0 
L 9.1875 0 
L 9.1875 70.015625 
L 44.734375 70.015625 
z
" id="SegoeUIEmoji-46"/>
      <path d="M 34.1875 41.890625 
Q 32.078125 43.5 28.125 43.5 
Q 23 43.5 19.546875 38.671875 
Q 16.109375 33.84375 16.109375 25.484375 
L 16.109375 0 
L 8.109375 0 
L 8.109375 50 
L 16.109375 50 
L 16.109375 39.703125 
L 16.3125 39.703125 
Q 18.015625 44.96875 21.53125 47.921875 
Q 25.046875 50.875 29.390625 50.875 
Q 32.515625 50.875 34.1875 50.203125 
z
" id="SegoeUIEmoji-72"/>
      <path d="M 48.296875 23 
L 12.984375 23 
Q 13.1875 14.65625 17.484375 10.109375 
Q 21.78125 5.5625 29.296875 5.5625 
Q 37.75 5.5625 44.828125 11.140625 
L 44.828125 3.609375 
Q 38.234375 -1.171875 27.390625 -1.171875 
Q 16.796875 -1.171875 10.734375 5.640625 
Q 4.6875 12.453125 4.6875 24.8125 
Q 4.6875 36.46875 11.296875 43.8125 
Q 17.921875 51.171875 27.734375 51.171875 
Q 37.546875 51.171875 42.921875 44.828125 
Q 48.296875 38.484375 48.296875 27.203125 
z
M 40.09375 29.78125 
Q 40.046875 36.71875 36.75 40.578125 
Q 33.453125 44.4375 27.59375 44.4375 
Q 21.921875 44.4375 17.96875 40.375 
Q 14.015625 36.328125 13.09375 29.78125 
z
" id="SegoeUIEmoji-65"/>
      <path d="M 50.78125 -23 
L 42.78125 -23 
L 42.78125 8.59375 
L 42.578125 8.59375 
Q 37.359375 -1.171875 25.484375 -1.171875 
Q 16.0625 -1.171875 10.375 5.53125 
Q 4.6875 12.25 4.6875 23.828125 
Q 4.6875 36.28125 10.9375 43.71875 
Q 17.1875 51.171875 27.734375 51.171875 
Q 37.984375 51.171875 42.578125 43.0625 
L 42.78125 43.0625 
L 42.78125 50 
L 50.78125 50 
z
M 42.78125 22.515625 
L 42.78125 29.78125 
Q 42.78125 35.9375 38.75 40.1875 
Q 34.71875 44.4375 28.515625 44.4375 
Q 21.296875 44.4375 17.09375 39.078125 
Q 12.890625 33.734375 12.890625 24.03125 
Q 12.890625 15.375 16.9375 10.46875 
Q 21 5.5625 27.390625 5.5625 
Q 34.421875 5.5625 38.59375 10.375 
Q 42.78125 15.1875 42.78125 22.515625 
z
" id="SegoeUIEmoji-71"/>
      <path d="M 48.53125 0 
L 40.53125 0 
L 40.53125 7.90625 
L 40.328125 7.90625 
Q 35.359375 -1.171875 24.90625 -1.171875 
Q 7.03125 -1.171875 7.03125 20.125 
L 7.03125 50 
L 14.984375 50 
L 14.984375 21.390625 
Q 14.984375 5.5625 27.09375 5.5625 
Q 32.953125 5.5625 36.734375 9.875 
Q 40.53125 14.203125 40.53125 21.1875 
L 40.53125 50 
L 48.53125 50 
z
" id="SegoeUIEmoji-75"/>
      <path d="M 49.609375 0 
L 41.609375 0 
L 41.609375 28.515625 
Q 41.609375 44.4375 29.984375 44.4375 
Q 23.96875 44.4375 20.03125 39.921875 
Q 16.109375 35.40625 16.109375 28.515625 
L 16.109375 0 
L 8.109375 0 
L 8.109375 50 
L 16.109375 50 
L 16.109375 41.703125 
L 16.3125 41.703125 
Q 21.96875 51.171875 32.71875 51.171875 
Q 40.921875 51.171875 45.265625 45.875 
Q 49.609375 40.578125 49.609375 30.5625 
z
" id="SegoeUIEmoji-6e"/>
      <path d="M 42.1875 2.296875 
Q 36.421875 -1.171875 28.515625 -1.171875 
Q 17.828125 -1.171875 11.25 5.78125 
Q 4.6875 12.75 4.6875 23.828125 
Q 4.6875 36.1875 11.765625 43.671875 
Q 18.84375 51.171875 30.671875 51.171875 
Q 37.25 51.171875 42.28125 48.734375 
L 42.28125 40.53125 
Q 36.71875 44.4375 30.375 44.4375 
Q 22.703125 44.4375 17.796875 38.9375 
Q 12.890625 33.453125 12.890625 24.515625 
Q 12.890625 15.71875 17.5 10.640625 
Q 22.125 5.5625 29.890625 5.5625 
Q 36.421875 5.5625 42.1875 9.90625 
z
" id="SegoeUIEmoji-63"/>
      <path d="M 47.90625 50 
L 24.90625 -8.015625 
Q 18.75 -23.53125 7.625 -23.53125 
Q 4.5 -23.53125 2.390625 -22.90625 
L 2.390625 -15.71875 
Q 4.984375 -16.609375 7.125 -16.609375 
Q 13.1875 -16.609375 16.21875 -9.375 
L 20.21875 0.09375 
L 0.6875 50 
L 9.578125 50 
L 23.09375 11.53125 
Q 23.34375 10.796875 24.125 7.71875 
L 24.421875 7.71875 
Q 24.65625 8.890625 25.390625 11.421875 
L 39.59375 50 
z
" id="SegoeUIEmoji-79"/>
      <path id="SegoeUIEmoji-20"/>
      <path d="M 29.109375 -15.921875 
L 21.96875 -15.921875 
Q 6.84375 1.375 6.84375 26.703125 
Q 6.84375 52.15625 21.96875 70.015625 
L 29.203125 70.015625 
Q 13.875 51.46875 13.875 26.8125 
Q 13.875 2.34375 29.109375 -15.921875 
z
" id="SegoeUIEmoji-28"/>
      <path d="M 50.59375 62.59375 
L 30.375 62.59375 
L 30.375 0 
L 22.171875 0 
L 22.171875 62.59375 
L 2 62.59375 
L 2 70.015625 
L 50.59375 70.015625 
z
" id="SegoeUIEmoji-54"/>
      <path d="M 5.078125 1.8125 
L 5.078125 10.40625 
Q 11.625 5.5625 19.484375 5.5625 
Q 30.03125 5.5625 30.03125 12.59375 
Q 30.03125 14.59375 29.125 15.984375 
Q 28.21875 17.390625 26.671875 18.453125 
Q 25.140625 19.53125 23.0625 20.375 
Q 21 21.234375 18.609375 22.171875 
Q 15.28125 23.484375 12.765625 24.828125 
Q 10.25 26.171875 8.5625 27.859375 
Q 6.890625 29.546875 6.03125 31.6875 
Q 5.171875 33.84375 5.171875 36.71875 
Q 5.171875 40.234375 6.78125 42.9375 
Q 8.40625 45.65625 11.078125 47.484375 
Q 13.765625 49.3125 17.203125 50.234375 
Q 20.65625 51.171875 24.3125 51.171875 
Q 30.8125 51.171875 35.9375 48.921875 
L 35.9375 40.828125 
Q 30.421875 44.4375 23.25 44.4375 
Q 21 44.4375 19.1875 43.921875 
Q 17.390625 43.40625 16.09375 42.46875 
Q 14.796875 41.546875 14.078125 40.25 
Q 13.375 38.96875 13.375 37.40625 
Q 13.375 35.453125 14.078125 34.125 
Q 14.796875 32.8125 16.15625 31.78125 
Q 17.53125 30.765625 19.484375 29.9375 
Q 21.4375 29.109375 23.921875 28.125 
Q 27.25 26.859375 29.875 25.515625 
Q 32.515625 24.171875 34.375 22.484375 
Q 36.234375 20.796875 37.234375 18.59375 
Q 38.234375 16.40625 38.234375 13.375 
Q 38.234375 9.671875 36.59375 6.9375 
Q 34.96875 4.203125 32.234375 2.390625 
Q 29.5 0.59375 25.921875 -0.28125 
Q 22.359375 -1.171875 18.453125 -1.171875 
Q 10.75 -1.171875 5.078125 1.8125 
z
" id="SegoeUIEmoji-73"/>
      <path d="M 8.296875 -15.921875 
L 1.171875 -15.921875 
Q 16.40625 2.34375 16.40625 26.8125 
Q 16.40625 51.46875 1.078125 70.015625 
L 8.296875 70.015625 
Q 23.53125 52.15625 23.53125 26.703125 
Q 23.53125 1.375 8.296875 -15.921875 
z
" id="SegoeUIEmoji-29"/>
     </defs>
     <g transform="translate(57.13 418.15015)rotate(-90)scale(0.16 -0.16)">
      <use xlink:href="#SegoeUIEmoji-46"/>
      <use x="48.828125" xlink:href="#SegoeUIEmoji-72"/>
      <use x="83.578125" xlink:href="#SegoeUIEmoji-65"/>
      <use x="135.873047" xlink:href="#SegoeUIEmoji-71"/>
      <use x="194.759766" xlink:href="#SegoeUIEmoji-75"/>
      <use x="251.351562" xlink:href="#SegoeUIEmoji-65"/>
      <use x="303.646484" xlink:href="#SegoeUIEmoji-6e"/>
      <use x="360.238281" xlink:href="#SegoeUIEmoji-63"/>
      <use x="406.429688" xlink:href="#SegoeUIEmoji-79"/>
      <use x="454.818359" xlink:href="#SegoeUIEmoji-20"/>
      <use x="482.210938" xlink:href="#SegoeUIEmoji-28"/>
      <use x="512.386719" xlink:href="#SegoeUIEmoji-54"/>
      <use x="564.779297" xlink:href="#SegoeUIEmoji-69"/>
      <use x="588.998047" xlink:href="#SegoeUIEmoji-6d"/>
      <use x="675.130859" xlink:href="#SegoeUIEmoji-65"/>
      <use x="727.425781" xlink:href="#SegoeUIEmoji-73"/>
      <use x="769.857422" xlink:href="#SegoeUIEmoji-29"/>
     </g>
    </g>
   </g>
   <g id="patch_13">
    <path d="M 115.02 624.1392 
L 115.02 84.1536 
" style="fill:none;stroke:#000000;stroke-linecap:square;stroke-linejoin:miter;stroke-width:0.8;"/>
   </g>
   <g id="patch_14">
    <path d="M 828.144 624.1392 
L 828.144 84.1536 
" style="fill:none;stroke:#000000;stroke-linecap:square;stroke-linejoin:miter;stroke-width:0.8;"/>
   </g>
   <g id="patch_15">
    <path d="M 115.02 624.1392 
L 828.144 624.1392 
" style="fill:none;stroke:#000000;stroke-linecap:square;stroke-linejoin:miter;stroke-width:0.8;"/>
   </g>
   <g id="patch_16">
    <path d="M 115.02 84.1536 
L 828.144 84.1536 
" style="fill:none;stroke:#000000;stroke-linecap:square;stroke-linejoin:miter;stroke-width:0.8;"/>
   </g>
   <g id="text_21">
    <!-- Thai top 10 emoji usage on Twitter (13 April 2017) -->
    <defs>
     <path d="M 49.609375 0 
L 41.609375 0 
L 41.609375 28.8125 
Q 41.609375 44.4375 29.984375 44.4375 
Q 24.125 44.4375 20.109375 39.921875 
Q 16.109375 35.40625 16.109375 28.328125 
L 16.109375 0 
L 8.109375 0 
L 8.109375 74.03125 
L 16.109375 74.03125 
L 16.109375 41.703125 
L 16.3125 41.703125 
Q 22.078125 51.171875 32.71875 51.171875 
Q 49.609375 51.171875 49.609375 30.8125 
z
" id="SegoeUIEmoji-68"/>
     <path d="M 43.890625 0 
L 35.890625 0 
L 35.890625 7.8125 
L 35.6875 7.8125 
Q 30.46875 -1.171875 20.3125 -1.171875 
Q 12.84375 -1.171875 8.609375 2.78125 
Q 4.390625 6.734375 4.390625 13.28125 
Q 4.390625 27.296875 20.90625 29.59375 
L 35.890625 31.6875 
Q 35.890625 44.4375 25.59375 44.4375 
Q 16.546875 44.4375 9.28125 38.28125 
L 9.28125 46.484375 
Q 16.65625 51.171875 26.265625 51.171875 
Q 43.890625 51.171875 43.890625 32.515625 
z
M 35.890625 25.296875 
L 23.828125 23.640625 
Q 18.265625 22.859375 15.421875 20.875 
Q 12.59375 18.890625 12.59375 13.875 
Q 12.59375 10.203125 15.203125 7.875 
Q 17.828125 5.5625 22.171875 5.5625 
Q 28.125 5.5625 32 9.734375 
Q 35.890625 13.921875 35.890625 20.3125 
z
" id="SegoeUIEmoji-61"/>
     <path d="M 31.296875 0.484375 
Q 28.46875 -1.078125 23.828125 -1.078125 
Q 10.6875 -1.078125 10.6875 13.578125 
L 10.6875 43.171875 
L 2.09375 43.171875 
L 2.09375 50 
L 10.6875 50 
L 10.6875 62.203125 
L 18.703125 64.796875 
L 18.703125 50 
L 31.296875 50 
L 31.296875 43.171875 
L 18.703125 43.171875 
L 18.703125 14.984375 
Q 18.703125 9.96875 20.40625 7.8125 
Q 22.125 5.671875 26.078125 5.671875 
Q 29.109375 5.671875 31.296875 7.328125 
z
" id="SegoeUIEmoji-74"/>
     <path d="M 16.3125 7.234375 
L 16.109375 7.234375 
L 16.109375 -23 
L 8.109375 -23 
L 8.109375 50 
L 16.109375 50 
L 16.109375 41.21875 
L 16.3125 41.21875 
Q 22.21875 51.171875 33.59375 51.171875 
Q 43.265625 51.171875 48.6875 44.453125 
Q 54.109375 37.75 54.109375 26.46875 
Q 54.109375 13.921875 48 6.375 
Q 41.890625 -1.171875 31.296875 -1.171875 
Q 21.578125 -1.171875 16.3125 7.234375 
z
M 16.109375 27.390625 
L 16.109375 20.40625 
Q 16.109375 14.203125 20.140625 9.875 
Q 24.171875 5.5625 30.375 5.5625 
Q 37.640625 5.5625 41.765625 11.125 
Q 45.90625 16.703125 45.90625 26.609375 
Q 45.90625 34.96875 42.046875 39.703125 
Q 38.1875 44.4375 31.59375 44.4375 
Q 24.609375 44.4375 20.359375 39.578125 
Q 16.109375 34.71875 16.109375 27.390625 
z
" id="SegoeUIEmoji-70"/>
     <path d="M 50.78125 4 
Q 50.78125 -23.53125 24.421875 -23.53125 
Q 15.140625 -23.53125 8.203125 -20.015625 
L 8.203125 -12.015625 
Q 16.65625 -16.703125 24.3125 -16.703125 
Q 42.78125 -16.703125 42.78125 2.9375 
L 42.78125 8.40625 
L 42.578125 8.40625 
Q 36.859375 -1.171875 25.390625 -1.171875 
Q 16.0625 -1.171875 10.375 5.484375 
Q 4.6875 12.15625 4.6875 23.390625 
Q 4.6875 36.140625 10.8125 43.65625 
Q 16.9375 51.171875 27.59375 51.171875 
Q 37.703125 51.171875 42.578125 43.0625 
L 42.78125 43.0625 
L 42.78125 50 
L 50.78125 50 
z
M 42.78125 22.609375 
L 42.78125 29.984375 
Q 42.78125 35.9375 38.75 40.1875 
Q 34.71875 44.4375 28.71875 44.4375 
Q 21.296875 44.4375 17.09375 39.03125 
Q 12.890625 33.640625 12.890625 23.921875 
Q 12.890625 15.578125 16.921875 10.5625 
Q 20.953125 5.5625 27.59375 5.5625 
Q 34.328125 5.5625 38.546875 10.34375 
Q 42.78125 15.140625 42.78125 22.609375 
z
" id="SegoeUIEmoji-67"/>
     <path d="M 71.09375 50 
L 56.109375 0 
L 47.796875 0 
L 37.5 35.796875 
Q 36.921875 37.84375 36.71875 40.4375 
L 36.53125 40.4375 
Q 36.375 38.671875 35.5 35.890625 
L 24.3125 0 
L 16.3125 0 
L 1.171875 50 
L 9.578125 50 
L 19.921875 12.40625 
Q 20.40625 10.6875 20.609375 7.90625 
L 21 7.90625 
Q 21.140625 10.0625 21.875 12.5 
L 33.40625 50 
L 40.71875 50 
L 51.078125 12.3125 
Q 51.5625 10.5 51.8125 7.8125 
L 52.203125 7.8125 
Q 52.296875 9.71875 53.03125 12.3125 
L 63.1875 50 
z
" id="SegoeUIEmoji-77"/>
     <path d="M 6.390625 2.59375 
L 6.390625 11.234375 
Q 13.578125 5.5625 22.609375 5.5625 
Q 29.9375 5.5625 34.296875 9.21875 
Q 38.671875 12.890625 38.671875 19.09375 
Q 38.671875 32.8125 19.1875 32.8125 
L 13.375 32.8125 
L 13.375 39.59375 
L 18.890625 39.59375 
Q 36.234375 39.59375 36.234375 52.484375 
Q 36.234375 64.40625 23 64.40625 
Q 15.625 64.40625 9.078125 59.375 
L 9.078125 67.1875 
Q 15.828125 71.1875 25 71.1875 
Q 33.84375 71.1875 39.140625 66.5 
Q 44.4375 61.8125 44.4375 54.5 
Q 44.4375 40.671875 30.375 36.71875 
L 30.375 36.53125 
Q 37.9375 35.796875 42.40625 31.21875 
Q 46.875 26.65625 46.875 19.828125 
Q 46.875 10.40625 40.109375 4.609375 
Q 33.34375 -1.171875 22.265625 -1.171875 
Q 12.3125 -1.171875 6.390625 2.59375 
z
" id="SegoeUIEmoji-33"/>
     <path d="M 63.375 0 
L 54.296875 0 
L 46.875 19.625 
L 17.1875 19.625 
L 10.203125 0 
L 1.078125 0 
L 27.9375 70.015625 
L 36.421875 70.015625 
z
M 44.1875 27 
L 33.203125 56.84375 
Q 32.671875 58.296875 32.125 61.53125 
L 31.9375 61.53125 
Q 31.453125 58.546875 30.8125 56.84375 
L 19.921875 27 
z
" id="SegoeUIEmoji-41"/>
     <path d="M 16.109375 0 
L 8.109375 0 
L 8.109375 74.03125 
L 16.109375 74.03125 
z
" id="SegoeUIEmoji-6c"/>
     <path d="M 49.3125 67.484375 
L 21.578125 0 
L 13.28125 0 
L 39.5 62.796875 
L 4.203125 62.796875 
L 4.203125 70.015625 
L 49.3125 70.015625 
z
" id="SegoeUIEmoji-37"/>
    </defs>
    <g transform="translate(259.8675 64.1536)scale(0.192 -0.192)">
     <use xlink:href="#SegoeUIEmoji-54"/>
     <use x="52.392578" xlink:href="#SegoeUIEmoji-68"/>
     <use x="108.984375" xlink:href="#SegoeUIEmoji-61"/>
     <use x="159.863281" xlink:href="#SegoeUIEmoji-69"/>
     <use x="184.082031" xlink:href="#SegoeUIEmoji-20"/>
     <use x="211.474609" xlink:href="#SegoeUIEmoji-74"/>
     <use x="245.361328" xlink:href="#SegoeUIEmoji-6f"/>
     <use x="303.955078" xlink:href="#SegoeUIEmoji-70"/>
     <use x="362.744141" xlink:href="#SegoeUIEmoji-20"/>
     <use x="390.136719" xlink:href="#SegoeUIEmoji-31"/>
     <use x="444.042969" xlink:href="#SegoeUIEmoji-30"/>
     <use x="497.949219" xlink:href="#SegoeUIEmoji-20"/>
     <use x="525.341797" xlink:href="#SegoeUIEmoji-65"/>
     <use x="577.636719" xlink:href="#SegoeUIEmoji-6d"/>
     <use x="663.769531" xlink:href="#SegoeUIEmoji-6f"/>
     <use x="722.363281" xlink:href="#SegoeUIEmoji-6a"/>
     <use x="746.582031" xlink:href="#SegoeUIEmoji-69"/>
     <use x="770.800781" xlink:href="#SegoeUIEmoji-20"/>
     <use x="798.193359" xlink:href="#SegoeUIEmoji-75"/>
     <use x="854.785156" xlink:href="#SegoeUIEmoji-73"/>
     <use x="897.216797" xlink:href="#SegoeUIEmoji-61"/>
     <use x="948.095703" xlink:href="#SegoeUIEmoji-67"/>
     <use x="1006.982422" xlink:href="#SegoeUIEmoji-65"/>
     <use x="1059.277344" xlink:href="#SegoeUIEmoji-20"/>
     <use x="1086.669922" xlink:href="#SegoeUIEmoji-6f"/>
     <use x="1145.263672" xlink:href="#SegoeUIEmoji-6e"/>
     <use x="1201.855469" xlink:href="#SegoeUIEmoji-20"/>
     <use x="1229.248047" xlink:href="#SegoeUIEmoji-54"/>
     <use x="1281.5625" xlink:href="#SegoeUIEmoji-77"/>
     <use x="1353.828125" xlink:href="#SegoeUIEmoji-69"/>
     <use x="1378.046875" xlink:href="#SegoeUIEmoji-74"/>
     <use x="1411.933594" xlink:href="#SegoeUIEmoji-74"/>
     <use x="1445.820312" xlink:href="#SegoeUIEmoji-65"/>
     <use x="1498.115234" xlink:href="#SegoeUIEmoji-72"/>
     <use x="1532.880859" xlink:href="#SegoeUIEmoji-20"/>
     <use x="1560.273438" xlink:href="#SegoeUIEmoji-28"/>
     <use x="1590.449219" xlink:href="#SegoeUIEmoji-31"/>
     <use x="1644.355469" xlink:href="#SegoeUIEmoji-33"/>
     <use x="1698.261719" xlink:href="#SegoeUIEmoji-20"/>
     <use x="1725.654297" xlink:href="#SegoeUIEmoji-41"/>
     <use x="1790.15625" xlink:href="#SegoeUIEmoji-70"/>
     <use x="1848.945312" xlink:href="#SegoeUIEmoji-72"/>
     <use x="1883.710938" xlink:href="#SegoeUIEmoji-69"/>
     <use x="1907.929688" xlink:href="#SegoeUIEmoji-6c"/>
     <use x="1932.148438" xlink:href="#SegoeUIEmoji-20"/>
     <use x="1959.541016" xlink:href="#SegoeUIEmoji-32"/>
     <use x="2013.447266" xlink:href="#SegoeUIEmoji-30"/>
     <use x="2067.353516" xlink:href="#SegoeUIEmoji-31"/>
     <use x="2121.259766" xlink:href="#SegoeUIEmoji-37"/>
     <use x="2175.166016" xlink:href="#SegoeUIEmoji-29"/>
    </g>
   </g>
  </g>
 </g>
 <defs>
  <clipPath id="p2c2945c519">
   <rect height="539.9856" width="713.124" x="115.02" y="84.1536"/>
  </clipPath>
 </defs>
</svg>
